M48
;Layer_Color=9474304
;FILE_FORMAT=4:4
METRIC,LZ
;TYPE=PLATED
T01F00S00C0.3000
T02F00S00C0.5000
T03F00S00C1.2500
T04F00S00C3.2000
T05F00S00C4.2000
;TYPE=NON_PLATED
T06F00S00C1.2000
%
T01
X00135Y00045
X001575Y0009
X002025
X002475
X002925
X0028194Y0013335
X0027Y00135
X00225
X0018534
X001778Y0018288
X001575Y0027
X002025
X002475
X002925
X0027051Y0030861
X00225Y00315
X0018534
X001125Y0027
X000675
X00045Y00315
X0001397Y0019685
X0029591Y0019177
X00315Y00225
X0034671Y0022733
X003825Y0027
X0039116Y0026543
X0034544Y0030988
X0036Y00135
X003825Y0009
X0038227Y0008128
X0036Y00045
X0045
X004725Y0009
X00495Y00135
X0045
X00405
X004725Y0018
X0046863Y0020193
X004826Y0020574
X0047879Y0024765
X0047752Y0027432
X0046863Y0027051
X0046355Y0029972
X0047625Y0030226
Y0032766
X0046228Y0032893
X0045847Y0036449
X0048006Y0036576
X0047879Y0038989
X004953Y0038481
X0054Y00315
X005625Y0027
X006075
X006525
X006975
X0069977Y0020193
X006975Y0018
X006604Y001765
X006525Y0018
X0065151Y0022225
X0063Y00225
X00585
X0054
X0050673Y0023241
X005625Y0018
X006075
X0063Y00135
X00675
X0075692Y0014332
X0075057Y0020574
X0079121Y0031623
X0063Y00315
X004275Y0027
X0078232Y0008382
X0079502Y0011303
X0093599Y0006985
X00955496Y00184576
X0094742Y002019
X0096139Y002146
X0095758Y002654
X0094488Y002781
X0095885Y002908
X0094742Y003035
X0095885Y003162
X0094361Y002527
X0104648Y0018923
X0118237Y0016256
X0045Y00405
X0046609Y004241
X0039624
X0036Y00405
X00315
X0027
X00225
X0018
X00045
T02
X0003207Y0003207
X0005207Y0002457
X0007207Y0003207
X0007957Y0005207
X0007207Y0007207
X0005207Y0007957
X0003207Y0007207
X0002457Y0005207
X0052556Y0004616
X0053306Y0002616
X0055306Y0001866
X0057306Y0002616
X0058056Y0004616
X0057306Y0006616
X0055306Y0007366
X0053306Y0006616
X0077051Y0004102
X007747Y0039624
X0118306Y0006616
X0117556Y0004616
X0118306Y0002616
X0120306Y0001866
X0122306Y0002616
X0123056Y0004616
X0122306Y0006616
X0120306Y0007366
X0143Y0007
X0145Y000775
X0147Y0007
X014775Y0005
X0147Y0003
X0145Y000225
X0143Y0003
X014225Y0005
X0143Y0048
X0145Y004725
X0147Y0048
X014775Y005
X0147Y0052
X0145Y005275
X0143Y0052
X014225Y005
X0123056Y0049616
X0122306Y0051616
X0120306Y0052366
Y0046866
X0122306Y0047616
X0118306
X0117556Y0049616
X0118306Y0051616
X0091059Y0041656
X0057306Y0047616
X0058056Y0049616
X0057306Y0051616
X0055306Y0052366
X0053306Y0051616
X0052556Y0049616
X0053306Y0047616
X0055306Y0046866
X0019177Y0041656
X0007Y0048
X000775Y005
X0007Y0052
X0005Y005275
X0003Y0052
X000225Y005
X0003Y0048
X0005Y004725
T03
X000565Y0012479
Y0014979
Y0017479
Y0019979
Y0022479
Y0024979
X000815
Y0022479
Y0019979
Y0017479
Y0014979
Y0012479
X0008255Y0029377
Y0031877
Y0034377
Y0036877
Y0039377
X0010755
Y0036877
Y0034377
Y0031877
Y0029377
X0127989Y0035884
Y0038384
X0130489
X0132989
X0135489
X0137989
X0140489
Y0035884
X0137989
X0135489
X0132989
X0130489
X013087Y0022028
Y0019528
X012837
Y0022028
X013337
Y0019528
X013587
X013837
X014087
Y0022028
X013837
X013587
X0010755Y0041877
X0008255
T04
X0055306Y0004616
X0120306
Y0049616
X0055306
T05
X0005Y0005
X0145
Y005
X0005
T06
X000949Y0018729
X0006915Y0035627
X0134239Y0034544
X013462Y0023368
M30
