G04*
G04 #@! TF.GenerationSoftware,Altium Limited,Altium Designer,23.11.1 (41)*
G04*
G04 Layer_Color=8421504*
%FSLAX44Y44*%
%MOMM*%
G71*
G04*
G04 #@! TF.SameCoordinates,67C3E342-4779-4E5F-A12F-953D3FBABCF8*
G04*
G04*
G04 #@! TF.FilePolarity,Positive*
G04*
G01*
G75*
%ADD13R,1.1500X1.3500*%
%ADD14R,0.9000X1.3000*%
%ADD15R,0.7400X1.7000*%
%ADD16R,1.7000X0.7400*%
G04:AMPARAMS|DCode=17|XSize=1.75mm|YSize=1.25mm|CornerRadius=0.3125mm|HoleSize=0mm|Usage=FLASHONLY|Rotation=90.000|XOffset=0mm|YOffset=0mm|HoleType=Round|Shape=RoundedRectangle|*
%AMROUNDEDRECTD17*
21,1,1.7500,0.6250,0,0,90.0*
21,1,1.1250,1.2500,0,0,90.0*
1,1,0.6250,0.3125,0.5625*
1,1,0.6250,0.3125,-0.5625*
1,1,0.6250,-0.3125,-0.5625*
1,1,0.6250,-0.3125,0.5625*
%
%ADD17ROUNDEDRECTD17*%
D13*
X327980Y322580D02*
D03*
X309480D02*
D03*
X327980Y373380D02*
D03*
X309480D02*
D03*
X329250Y289560D02*
D03*
X310750D02*
D03*
X329250Y262890D02*
D03*
X310750D02*
D03*
X309520Y100330D02*
D03*
X328020D02*
D03*
X310790Y177800D02*
D03*
X329290D02*
D03*
X498750Y190500D02*
D03*
X517250D02*
D03*
X329250Y205740D02*
D03*
X310750D02*
D03*
X515980Y214630D02*
D03*
X497480D02*
D03*
X328020Y124460D02*
D03*
X309520D02*
D03*
X429620Y35560D02*
D03*
X411120D02*
D03*
X429250Y123190D02*
D03*
X410750D02*
D03*
X429250Y176530D02*
D03*
X410750D02*
D03*
X429250Y229870D02*
D03*
X410750D02*
D03*
X429250Y281940D02*
D03*
X410750D02*
D03*
X429250Y332740D02*
D03*
X410750D02*
D03*
X429250Y381000D02*
D03*
X410750D02*
D03*
X411120Y93980D02*
D03*
X429620D02*
D03*
X490750Y340000D02*
D03*
X509250D02*
D03*
X490750Y370000D02*
D03*
X509250D02*
D03*
X490750Y280000D02*
D03*
X509250D02*
D03*
X490750Y310000D02*
D03*
X509250D02*
D03*
X490750Y250000D02*
D03*
X509250D02*
D03*
X490750Y400000D02*
D03*
X509250D02*
D03*
D14*
X328230Y346710D02*
D03*
X309230D02*
D03*
X329500Y236220D02*
D03*
X310500D02*
D03*
X340970Y74930D02*
D03*
X321970D02*
D03*
X329540Y151130D02*
D03*
X310540D02*
D03*
X517500Y163830D02*
D03*
X498500D02*
D03*
X429870Y63500D02*
D03*
X410870D02*
D03*
X429500Y148590D02*
D03*
X410500D02*
D03*
X429500Y201930D02*
D03*
X410500D02*
D03*
X429500Y254000D02*
D03*
X410500D02*
D03*
X429500Y306070D02*
D03*
X410500D02*
D03*
X429500Y356870D02*
D03*
X410500D02*
D03*
X429500Y406400D02*
D03*
X410500D02*
D03*
D15*
X872110Y96660D02*
D03*
X859410D02*
D03*
X872110Y55660D02*
D03*
X859410D02*
D03*
X846710Y96660D02*
D03*
Y55660D02*
D03*
X808610Y96660D02*
D03*
Y55660D02*
D03*
X770510Y96660D02*
D03*
Y55660D02*
D03*
X783210D02*
D03*
X795910D02*
D03*
X783210Y96660D02*
D03*
X795910D02*
D03*
X821310Y55660D02*
D03*
X834010D02*
D03*
X821310Y96660D02*
D03*
X834010D02*
D03*
X884810Y55660D02*
D03*
X897510D02*
D03*
X910210D02*
D03*
X922910D02*
D03*
X935610D02*
D03*
X884810Y96660D02*
D03*
X897510D02*
D03*
X910210D02*
D03*
X922910D02*
D03*
X935610D02*
D03*
X872110Y416660D02*
D03*
X859410D02*
D03*
X872110Y375660D02*
D03*
X859410D02*
D03*
X846710Y416660D02*
D03*
Y375660D02*
D03*
X808610Y416660D02*
D03*
Y375660D02*
D03*
X770510Y416660D02*
D03*
Y375660D02*
D03*
X783210D02*
D03*
X795910D02*
D03*
X783210Y416660D02*
D03*
X795910D02*
D03*
X821310Y375660D02*
D03*
X834010D02*
D03*
X821310Y416660D02*
D03*
X834010D02*
D03*
X884810Y375660D02*
D03*
X897510D02*
D03*
X910210D02*
D03*
X922910D02*
D03*
X935610D02*
D03*
X884810Y416660D02*
D03*
X897510D02*
D03*
X910210D02*
D03*
X922910D02*
D03*
X935610D02*
D03*
D16*
X682560Y265210D02*
D03*
Y252510D02*
D03*
X723560Y265210D02*
D03*
Y252510D02*
D03*
X682560Y239810D02*
D03*
X723560D02*
D03*
X682560Y201710D02*
D03*
X723560D02*
D03*
X682560Y163610D02*
D03*
X723560D02*
D03*
Y176310D02*
D03*
Y189010D02*
D03*
X682560Y176310D02*
D03*
Y189010D02*
D03*
X723560Y214410D02*
D03*
Y227110D02*
D03*
X682560Y214410D02*
D03*
Y227110D02*
D03*
X723560Y277910D02*
D03*
Y290610D02*
D03*
Y303310D02*
D03*
Y316010D02*
D03*
Y328710D02*
D03*
X682560Y277910D02*
D03*
Y290610D02*
D03*
Y303310D02*
D03*
Y316010D02*
D03*
Y328710D02*
D03*
X1023560Y227110D02*
D03*
Y239810D02*
D03*
X982560Y227110D02*
D03*
Y239810D02*
D03*
X1023560Y252510D02*
D03*
X982560D02*
D03*
X1023560Y290610D02*
D03*
X982560D02*
D03*
X1023560Y328710D02*
D03*
X982560D02*
D03*
Y316010D02*
D03*
Y303310D02*
D03*
X1023560Y316010D02*
D03*
Y303310D02*
D03*
X982560Y277910D02*
D03*
Y265210D02*
D03*
X1023560Y277910D02*
D03*
Y265210D02*
D03*
X982560Y214410D02*
D03*
Y201710D02*
D03*
Y189010D02*
D03*
Y176310D02*
D03*
Y163610D02*
D03*
X1023560Y214410D02*
D03*
Y201710D02*
D03*
Y189010D02*
D03*
Y176310D02*
D03*
Y163610D02*
D03*
D17*
X177090Y119380D02*
D03*
X148590D02*
D03*
X178080Y181610D02*
D03*
X149580D02*
D03*
X178080Y152400D02*
D03*
X149580D02*
D03*
X162280Y421640D02*
D03*
X190780D02*
D03*
X162280Y391160D02*
D03*
X190780D02*
D03*
X162280Y360680D02*
D03*
X190780D02*
D03*
M02*
