G04*
G04 #@! TF.GenerationSoftware,Altium Limited,Altium Designer,23.11.1 (41)*
G04*
G04 Layer_Color=16711935*
%FSLAX44Y44*%
%MOMM*%
G71*
G04*
G04 #@! TF.SameCoordinates,47FBA793-924A-4BED-84D3-63313EB43BBA*
G04*
G04*
G04 #@! TF.FilePolarity,Negative*
G04*
G01*
G75*
%ADD23C,2.0750*%
%ADD24C,0.8750*%
%ADD25C,7.2000*%
%ADD26C,8.2000*%
%ADD27C,0.7000*%
%ADD28C,0.9000*%
D23*
X82550Y418770D02*
D03*
Y393770D02*
D03*
Y368770D02*
D03*
Y343770D02*
D03*
Y318770D02*
D03*
Y293770D02*
D03*
X107550Y418770D02*
D03*
Y393770D02*
D03*
Y368770D02*
D03*
Y343770D02*
D03*
Y318770D02*
D03*
Y293770D02*
D03*
X1283700Y195280D02*
D03*
X1308700D02*
D03*
X1333700D02*
D03*
X1358700D02*
D03*
X1383700D02*
D03*
X1408700D02*
D03*
X1283700Y220280D02*
D03*
X1308700D02*
D03*
X1333700D02*
D03*
X1358700D02*
D03*
X1383700D02*
D03*
X1408700D02*
D03*
X1404890Y383840D02*
D03*
X1379890D02*
D03*
X1354890D02*
D03*
X1329890D02*
D03*
X1304890D02*
D03*
X1279890D02*
D03*
X1404890Y358840D02*
D03*
X1379890D02*
D03*
X1354890D02*
D03*
X1329890D02*
D03*
X1304890D02*
D03*
X1279890D02*
D03*
X56500Y249790D02*
D03*
Y224790D02*
D03*
Y199790D02*
D03*
Y174790D02*
D03*
Y149790D02*
D03*
Y124790D02*
D03*
X81500Y249790D02*
D03*
Y224790D02*
D03*
Y199790D02*
D03*
Y174790D02*
D03*
Y149790D02*
D03*
Y124790D02*
D03*
D24*
X69150Y356270D02*
D03*
X1346200Y233680D02*
D03*
X1342390Y345440D02*
D03*
X94900Y187290D02*
D03*
D25*
X1203060Y46160D02*
D03*
X553060Y496160D02*
D03*
X1203060D02*
D03*
X553060Y46160D02*
D03*
D26*
X50000Y50000D02*
D03*
X1450000Y500000D02*
D03*
Y50000D02*
D03*
X50000Y500000D02*
D03*
D27*
X13970Y196850D02*
D03*
X791210Y316230D02*
D03*
X699770Y201930D02*
D03*
X935990Y69850D02*
D03*
X1046480Y189230D02*
D03*
X185340Y135000D02*
D03*
X177800Y182880D02*
D03*
X185340Y315000D02*
D03*
X202500Y270000D02*
D03*
X225000Y315000D02*
D03*
X247500Y270000D02*
D03*
X270510Y308610D02*
D03*
X292500Y270000D02*
D03*
X315000Y225000D02*
D03*
X382500Y270000D02*
D03*
X391160Y265430D02*
D03*
X427500Y270000D02*
D03*
X540000Y315000D02*
D03*
X466090Y424100D02*
D03*
X396240D02*
D03*
X180000Y405000D02*
D03*
X225000D02*
D03*
X697500Y270000D02*
D03*
Y180000D02*
D03*
X675000Y135000D02*
D03*
X630000Y315000D02*
D03*
X652500Y270000D02*
D03*
X630000Y225000D02*
D03*
X652500Y180000D02*
D03*
X630000Y135000D02*
D03*
X607500Y270000D02*
D03*
X585000Y225000D02*
D03*
X607500Y180000D02*
D03*
X562500Y270000D02*
D03*
X540000Y225000D02*
D03*
X562500Y180000D02*
D03*
X495000Y135000D02*
D03*
X450000Y405000D02*
D03*
X472500Y180000D02*
D03*
X450000Y135000D02*
D03*
X472500Y90000D02*
D03*
X450000Y45000D02*
D03*
X405000Y135000D02*
D03*
X360000Y405000D02*
D03*
Y135000D02*
D03*
X382500Y90000D02*
D03*
X360000Y45000D02*
D03*
X315000Y405000D02*
D03*
X270000D02*
D03*
Y135000D02*
D03*
X292500Y90000D02*
D03*
X225000Y135000D02*
D03*
X247500Y90000D02*
D03*
X202500D02*
D03*
X157500Y270000D02*
D03*
Y90000D02*
D03*
X135000Y45000D02*
D03*
X112500Y270000D02*
D03*
X45000Y405000D02*
D03*
Y315000D02*
D03*
X67500Y270000D02*
D03*
X495300Y384810D02*
D03*
X458470Y364490D02*
D03*
X651510Y222250D02*
D03*
X462280Y328930D02*
D03*
X463550Y299720D02*
D03*
X468630Y270510D02*
D03*
X506730Y232410D02*
D03*
X468630Y201930D02*
D03*
X382270Y81280D02*
D03*
X281940Y133350D02*
D03*
X295910Y191770D02*
D03*
X782320Y83820D02*
D03*
X795020Y113030D02*
D03*
X756920Y143320D02*
D03*
X346710Y227330D02*
D03*
X345440Y309880D02*
D03*
X482600Y205740D02*
D03*
X476250Y302260D02*
D03*
Y327660D02*
D03*
X480060Y365760D02*
D03*
X478790Y247650D02*
D03*
X477520Y274320D02*
D03*
X478790Y389890D02*
D03*
X1182370Y162560D02*
D03*
X955496Y184576D02*
D03*
X958850Y316200D02*
D03*
Y290800D02*
D03*
X943610Y252700D02*
D03*
X947420Y303500D02*
D03*
X660400Y176500D02*
D03*
X947420Y201900D02*
D03*
X944880Y278100D02*
D03*
X961390Y214600D02*
D03*
X957580Y265400D02*
D03*
D28*
X770510Y41020D02*
D03*
X774700Y396240D02*
D03*
X191770Y416560D02*
D03*
X910590D02*
D03*
X1203060Y73660D02*
D03*
X1223060Y66160D02*
D03*
X1230560Y46160D02*
D03*
X1223060Y26160D02*
D03*
X1203060Y18660D02*
D03*
X1183060Y26160D02*
D03*
X1175560Y46160D02*
D03*
X1183060Y66160D02*
D03*
X52070Y79570D02*
D03*
X72070Y72070D02*
D03*
X79570Y52070D02*
D03*
X72070Y32070D02*
D03*
X52070Y24570D02*
D03*
X32070Y32070D02*
D03*
X24570Y52070D02*
D03*
X32070Y72070D02*
D03*
X553060Y523660D02*
D03*
X573060Y516160D02*
D03*
X580560Y496160D02*
D03*
X573060Y476160D02*
D03*
X553060Y468660D02*
D03*
X533060Y476160D02*
D03*
X525560Y496160D02*
D03*
X533060Y516160D02*
D03*
X1203060Y523660D02*
D03*
X1223060Y516160D02*
D03*
X1230560Y496160D02*
D03*
X1223060Y476160D02*
D03*
X1203060Y468660D02*
D03*
X1183060Y476160D02*
D03*
X1175560Y496160D02*
D03*
X1183060Y516160D02*
D03*
X553060Y73660D02*
D03*
X573060Y66160D02*
D03*
X580560Y46160D02*
D03*
X573060Y26160D02*
D03*
X553060Y18660D02*
D03*
X533060Y26160D02*
D03*
X525560Y46160D02*
D03*
X533060Y66160D02*
D03*
X1450000Y527500D02*
D03*
X1470000Y520000D02*
D03*
X1477500Y500000D02*
D03*
X1470000Y480000D02*
D03*
X1450000Y472500D02*
D03*
X1430000Y480000D02*
D03*
X1422500Y500000D02*
D03*
X1430000Y520000D02*
D03*
X1450000Y77500D02*
D03*
X1470000Y70000D02*
D03*
X1477500Y50000D02*
D03*
X1470000Y30000D02*
D03*
X1450000Y22500D02*
D03*
X1430000Y30000D02*
D03*
X1422500Y50000D02*
D03*
X1430000Y70000D02*
D03*
X50000Y527500D02*
D03*
X70000Y520000D02*
D03*
X77500Y500000D02*
D03*
X70000Y480000D02*
D03*
X50000Y472500D02*
D03*
X30000Y480000D02*
D03*
X22500Y500000D02*
D03*
X30000Y520000D02*
D03*
M02*
