G04*
G04 #@! TF.GenerationSoftware,Altium Limited,Altium Designer,23.11.1 (41)*
G04*
G04 Layer_Physical_Order=1*
G04 Layer_Color=255*
%FSLAX44Y44*%
%MOMM*%
G71*
G04*
G04 #@! TF.SameCoordinates,47FBA793-924A-4BED-84D3-63313EB43BBA*
G04*
G04*
G04 #@! TF.FilePolarity,Positive*
G04*
G01*
G75*
%ADD11C,0.2000*%
%ADD12C,0.3000*%
%ADD13R,1.1500X1.3500*%
%ADD14R,0.9000X1.3000*%
%ADD15R,0.7400X1.7000*%
%ADD16R,1.7000X0.7400*%
G04:AMPARAMS|DCode=17|XSize=1.75mm|YSize=1.25mm|CornerRadius=0.3125mm|HoleSize=0mm|Usage=FLASHONLY|Rotation=90.000|XOffset=0mm|YOffset=0mm|HoleType=Round|Shape=RoundedRectangle|*
%AMROUNDEDRECTD17*
21,1,1.7500,0.6250,0,0,90.0*
21,1,1.1250,1.2500,0,0,90.0*
1,1,0.6250,0.3125,0.5625*
1,1,0.6250,0.3125,-0.5625*
1,1,0.6250,-0.3125,-0.5625*
1,1,0.6250,-0.3125,0.5625*
%
%ADD17ROUNDEDRECTD17*%
%ADD29C,0.5000*%
%ADD30C,1.8750*%
%ADD31C,0.6750*%
%ADD32C,7.0000*%
%ADD33C,8.0000*%
%ADD34C,0.5000*%
%ADD35C,0.7000*%
G36*
X731520Y390415D02*
X730347Y389929D01*
X714773Y405503D01*
X713436Y406396D01*
X711860Y406709D01*
X517540D01*
Y409290D01*
X506785D01*
X499143Y416933D01*
X497806Y417826D01*
X496230Y418139D01*
X437120D01*
X435544Y417826D01*
X434207Y416933D01*
X432794Y415519D01*
X432500D01*
X432102Y415440D01*
X422460D01*
Y397360D01*
X425381D01*
Y390290D01*
X420960D01*
Y371710D01*
X437540D01*
Y390290D01*
X433619D01*
Y397360D01*
X436540D01*
Y407904D01*
X437413Y408487D01*
X438826Y409901D01*
X481443D01*
X482460Y409290D01*
Y396535D01*
X480544Y394619D01*
X479793Y394930D01*
X477788D01*
X475935Y394163D01*
X474517Y392745D01*
X473750Y390892D01*
Y388887D01*
X474517Y387035D01*
X475935Y385617D01*
X477788Y384850D01*
X479793D01*
X481645Y385617D01*
X481838Y385810D01*
X483216Y386084D01*
X484553Y386977D01*
X488285Y390710D01*
X499040D01*
Y403333D01*
X500252Y403867D01*
X500960Y403299D01*
Y390710D01*
X517540D01*
Y398471D01*
X538306D01*
X538792Y397298D01*
X520864Y379369D01*
X513500D01*
X513102Y379290D01*
X500960D01*
Y366701D01*
X500252Y366133D01*
X499040Y366667D01*
Y379290D01*
X482460D01*
Y371364D01*
X481404Y370658D01*
X481063Y370800D01*
X479058D01*
X477205Y370033D01*
X475787Y368615D01*
X475020Y366763D01*
Y364757D01*
X475787Y362905D01*
X476433Y362259D01*
X475907Y360989D01*
X436540D01*
Y365910D01*
X422460D01*
Y347830D01*
X425381D01*
Y342030D01*
X420960D01*
Y323450D01*
X437540D01*
Y342030D01*
X433619D01*
Y347830D01*
X436540D01*
Y352751D01*
X497120D01*
X498696Y353064D01*
X500033Y353957D01*
X506785Y360710D01*
X517540D01*
Y371131D01*
X522570D01*
X524146Y371444D01*
X525483Y372337D01*
X545266Y392121D01*
X561462D01*
X561848Y390851D01*
X560967Y390263D01*
X518713Y348009D01*
X517540Y348495D01*
Y349290D01*
X500960D01*
Y336701D01*
X500252Y336133D01*
X499040Y336667D01*
Y349290D01*
X482460D01*
Y335814D01*
X478732Y332087D01*
X477253Y332700D01*
X475247D01*
X473395Y331933D01*
X471977Y330515D01*
X471210Y328662D01*
Y326657D01*
X471497Y325965D01*
X470791Y324909D01*
X464300D01*
X462724Y324596D01*
X461387Y323703D01*
X447874Y310189D01*
X436540D01*
Y315110D01*
X422460D01*
Y297030D01*
X425381D01*
Y291230D01*
X420960D01*
Y272650D01*
X437540D01*
Y291230D01*
X433619D01*
Y297030D01*
X436540D01*
Y301951D01*
X449580D01*
X451156Y302264D01*
X452493Y303157D01*
X466006Y316671D01*
X482460D01*
Y307859D01*
X479052D01*
X477671Y307585D01*
X477245Y307300D01*
X475247D01*
X473395Y306533D01*
X471977Y305115D01*
X471210Y303263D01*
Y301257D01*
X471977Y299405D01*
X473395Y297987D01*
X475086Y297287D01*
X475641Y296047D01*
X437810Y258215D01*
X436540Y258351D01*
Y263040D01*
X422460D01*
Y244960D01*
X425131D01*
Y239160D01*
X420960D01*
Y220580D01*
X437540D01*
Y239160D01*
X433369D01*
Y244960D01*
X436540D01*
Y249881D01*
X439420D01*
X440996Y250194D01*
X442333Y251087D01*
X484306Y293061D01*
X497430D01*
X499006Y293374D01*
X500343Y294267D01*
X506785Y300710D01*
X517540D01*
Y305881D01*
X520820D01*
X522396Y306194D01*
X523733Y307087D01*
X589716Y373071D01*
X604642D01*
X605028Y371801D01*
X604147Y371213D01*
X518713Y285779D01*
X517540Y286265D01*
Y289290D01*
X500960D01*
Y276701D01*
X500252Y276133D01*
X499040Y276667D01*
Y289290D01*
X482460D01*
Y277929D01*
X481038D01*
X480375Y278593D01*
X478522Y279360D01*
X476517D01*
X474665Y278593D01*
X473247Y277175D01*
X472480Y275322D01*
Y273318D01*
X473247Y271465D01*
X474665Y270047D01*
X474858Y268593D01*
X447937Y241673D01*
X447044Y240336D01*
X446731Y238760D01*
Y217606D01*
X437713Y208589D01*
X436540Y209075D01*
Y210970D01*
X422460D01*
Y192890D01*
X425381D01*
Y185820D01*
X420960D01*
Y167240D01*
X437540D01*
Y185820D01*
X433619D01*
Y192890D01*
X436540D01*
Y197811D01*
X436880D01*
X438456Y198124D01*
X439793Y199017D01*
X453763Y212987D01*
X454351Y213868D01*
X455621Y213482D01*
Y165536D01*
X442794Y152709D01*
X436540D01*
Y157630D01*
X422460D01*
Y139550D01*
X425381D01*
Y132576D01*
X425360Y132559D01*
X424360D01*
X423962Y132480D01*
X420960D01*
Y130623D01*
X420554Y130016D01*
X420241Y128440D01*
X420554Y126864D01*
X420960Y126257D01*
Y116519D01*
X367976D01*
X336580Y147915D01*
Y160170D01*
X333149D01*
Y168510D01*
X337580D01*
Y187090D01*
X333149D01*
Y196450D01*
X337540D01*
Y215030D01*
X320960D01*
Y196450D01*
X325931D01*
Y187090D01*
X321000D01*
Y168510D01*
X325931D01*
Y160170D01*
X322500D01*
Y142090D01*
X330755D01*
X361332Y111512D01*
X360846Y110339D01*
X346966D01*
X336310Y120995D01*
Y133750D01*
X319730D01*
Y115170D01*
X324411D01*
Y109620D01*
X319730D01*
Y91040D01*
X331206D01*
X337006Y85240D01*
X336503Y83970D01*
X333930D01*
Y68509D01*
X303076D01*
X240339Y131246D01*
Y166370D01*
X240026Y167946D01*
X239133Y169283D01*
X213048Y195368D01*
X213534Y196541D01*
X226894D01*
X299029Y124406D01*
X300365Y123513D01*
X301230Y123341D01*
Y115170D01*
X317810D01*
Y133750D01*
X301335D01*
X231513Y203573D01*
X230176Y204466D01*
X228600Y204779D01*
X132370D01*
X130794Y204466D01*
X129457Y203573D01*
X86529Y160645D01*
X86099Y160893D01*
X83215Y161666D01*
X83167Y162062D01*
Y162518D01*
X83215Y162914D01*
X86099Y163687D01*
X88816Y165256D01*
X91034Y167474D01*
X92603Y170191D01*
X93415Y173221D01*
Y176359D01*
X93032Y177788D01*
X94089Y178750D01*
X96024D01*
X98196Y179332D01*
X100144Y180456D01*
X101734Y182046D01*
X102858Y183994D01*
X103440Y186166D01*
Y188414D01*
X102858Y190586D01*
X101734Y192534D01*
X100144Y194124D01*
X98196Y195248D01*
X96024Y195830D01*
X94089D01*
X93032Y196792D01*
X93415Y198221D01*
Y201359D01*
X92603Y204389D01*
X92355Y204819D01*
X101856Y214321D01*
X296344D01*
X302460Y208205D01*
Y196450D01*
X319040D01*
Y215030D01*
X307285D01*
X300963Y221353D01*
X299626Y222246D01*
X298050Y222559D01*
X100150D01*
X98574Y222246D01*
X97237Y221353D01*
X86529Y210645D01*
X86099Y210893D01*
X83215Y211666D01*
X83167Y212062D01*
Y212518D01*
X83215Y212914D01*
X86099Y213687D01*
X88816Y215256D01*
X91034Y217474D01*
X92603Y220191D01*
X93415Y223221D01*
Y226359D01*
X92603Y229389D01*
X92355Y229819D01*
X102256Y239721D01*
X243840D01*
X245416Y240034D01*
X246753Y240927D01*
X291266Y285441D01*
X302460D01*
Y280270D01*
X319040D01*
Y298850D01*
X302460D01*
Y293679D01*
X289560D01*
X287984Y293366D01*
X287692Y293171D01*
X286883Y294157D01*
X306015Y313290D01*
X317770D01*
Y331870D01*
X301190D01*
Y320115D01*
X234984Y253909D01*
X92732D01*
X92603Y254389D01*
X91034Y257106D01*
X88816Y259324D01*
X86099Y260893D01*
X83069Y261705D01*
X79931D01*
X76901Y260893D01*
X74184Y259324D01*
X71966Y257106D01*
X70397Y254389D01*
X69585Y251359D01*
Y248221D01*
X70397Y245191D01*
X71966Y242474D01*
X74184Y240256D01*
X76901Y238687D01*
X79785Y237914D01*
X79833Y237518D01*
Y237062D01*
X79785Y236666D01*
X76901Y235893D01*
X74184Y234324D01*
X71966Y232106D01*
X70397Y229389D01*
X69585Y226359D01*
Y223221D01*
X70397Y220191D01*
X71966Y217474D01*
X74184Y215256D01*
X76901Y213687D01*
X79785Y212914D01*
X79833Y212518D01*
Y212062D01*
X79785Y211666D01*
X76901Y210893D01*
X74184Y209324D01*
X71966Y207106D01*
X70397Y204389D01*
X69624Y201505D01*
X69228Y201457D01*
X68772D01*
X68376Y201505D01*
X67603Y204389D01*
X66034Y207106D01*
X63816Y209324D01*
X61099Y210893D01*
X58069Y211705D01*
X54931D01*
X51901Y210893D01*
X49184Y209324D01*
X46966Y207106D01*
X45397Y204389D01*
X44585Y201359D01*
Y198221D01*
X45397Y195191D01*
X46966Y192474D01*
X49184Y190256D01*
X51901Y188687D01*
X54785Y187914D01*
X54833Y187518D01*
Y187062D01*
X54785Y186666D01*
X51901Y185893D01*
X49184Y184324D01*
X46966Y182106D01*
X45397Y179389D01*
X44585Y176359D01*
Y173221D01*
X45236Y170793D01*
X30911Y156469D01*
X29797Y154802D01*
X29406Y152835D01*
Y108965D01*
X29797Y106999D01*
X30911Y105331D01*
X33470Y102773D01*
X32983Y101600D01*
X20320D01*
Y427990D01*
X38100Y445770D01*
X69574D01*
X70060Y444597D01*
X56961Y431498D01*
X55847Y429831D01*
X55456Y427864D01*
Y390725D01*
X55847Y388759D01*
X56961Y387091D01*
X71286Y372767D01*
X70635Y370339D01*
Y367201D01*
X71018Y365772D01*
X69961Y364810D01*
X68026D01*
X65854Y364228D01*
X63906Y363104D01*
X62316Y361514D01*
X61192Y359566D01*
X60610Y357394D01*
Y355146D01*
X61192Y352974D01*
X62316Y351026D01*
X63906Y349436D01*
X65854Y348312D01*
X68026Y347730D01*
X70274D01*
X72446Y348312D01*
X74394Y349436D01*
X75984Y351026D01*
X77108Y352974D01*
X77690Y355146D01*
Y356422D01*
X78959Y357397D01*
X80981Y356855D01*
X84119D01*
X87149Y357667D01*
X89866Y359236D01*
X92084Y361454D01*
X93653Y364171D01*
X94426Y367055D01*
X94822Y367103D01*
X95278D01*
X95674Y367055D01*
X96447Y364171D01*
X98016Y361454D01*
X100234Y359236D01*
X102951Y357667D01*
X105835Y356894D01*
X105883Y356498D01*
Y356042D01*
X105835Y355646D01*
X102951Y354873D01*
X100234Y353304D01*
X98016Y351086D01*
X96447Y348369D01*
X95635Y345339D01*
Y342201D01*
X96447Y339171D01*
X98016Y336454D01*
X100234Y334236D01*
X102951Y332667D01*
X105835Y331894D01*
X105883Y331498D01*
Y331042D01*
X105835Y330646D01*
X102951Y329873D01*
X100234Y328304D01*
X98016Y326086D01*
X96447Y323369D01*
X95635Y320339D01*
Y317201D01*
X96447Y314171D01*
X98016Y311454D01*
X100234Y309236D01*
X102951Y307667D01*
X105835Y306894D01*
X105883Y306498D01*
Y306042D01*
X105835Y305646D01*
X102951Y304873D01*
X100234Y303304D01*
X98016Y301086D01*
X96447Y298369D01*
X95635Y295339D01*
Y292201D01*
X96447Y289171D01*
X98016Y286454D01*
X100234Y284236D01*
X102951Y282667D01*
X105981Y281855D01*
X109119D01*
X112149Y282667D01*
X114866Y284236D01*
X117084Y286454D01*
X118653Y289171D01*
X119465Y292201D01*
Y295339D01*
X118653Y298369D01*
X117084Y301086D01*
X114866Y303304D01*
X112149Y304873D01*
X109265Y305646D01*
X109217Y306042D01*
Y306498D01*
X109265Y306894D01*
X112149Y307667D01*
X114866Y309236D01*
X117084Y311454D01*
X118653Y314171D01*
X119465Y317201D01*
Y320339D01*
X118653Y323369D01*
X117084Y326086D01*
X114866Y328304D01*
X112149Y329873D01*
X109265Y330646D01*
X109217Y331042D01*
Y331498D01*
X109265Y331894D01*
X112149Y332667D01*
X114866Y334236D01*
X117084Y336454D01*
X118653Y339171D01*
X119465Y342201D01*
Y345339D01*
X118653Y348369D01*
X117084Y351086D01*
X114866Y353304D01*
X112149Y354873D01*
X109265Y355646D01*
X109217Y356042D01*
Y356498D01*
X109265Y356894D01*
X112149Y357667D01*
X114866Y359236D01*
X117084Y361454D01*
X118653Y364171D01*
X119465Y367201D01*
Y370339D01*
X118653Y373369D01*
X117084Y376086D01*
X114866Y378304D01*
X112149Y379873D01*
X109265Y380646D01*
X109217Y381042D01*
Y381498D01*
X109265Y381894D01*
X112149Y382667D01*
X114866Y384236D01*
X117084Y386454D01*
X118653Y389171D01*
X119465Y392201D01*
Y395339D01*
X118653Y398369D01*
X117084Y401086D01*
X114866Y403304D01*
X112149Y404873D01*
X109265Y405646D01*
X109217Y406042D01*
Y406498D01*
X109265Y406894D01*
X112149Y407667D01*
X114866Y409236D01*
X117084Y411454D01*
X118653Y414171D01*
X119465Y417201D01*
Y418314D01*
X120638Y418800D01*
X134561Y404877D01*
Y391160D01*
X134952Y389193D01*
X136066Y387526D01*
X154203Y369389D01*
Y369091D01*
X153819Y368515D01*
X153379Y366305D01*
Y355055D01*
X153819Y352845D01*
X155071Y350971D01*
X156945Y349719D01*
X159155Y349279D01*
X165405D01*
X167615Y349719D01*
X169489Y350971D01*
X170741Y352845D01*
X171181Y355055D01*
Y366305D01*
X170741Y368515D01*
X169489Y370389D01*
X167615Y371641D01*
X165405Y372081D01*
X164369D01*
X164090Y373484D01*
X162976Y375152D01*
X159638Y378489D01*
X160164Y379759D01*
X165405D01*
X167615Y380199D01*
X169489Y381451D01*
X170741Y383325D01*
X171181Y385535D01*
Y396785D01*
X170741Y398995D01*
X169489Y400869D01*
X167615Y402121D01*
X165405Y402561D01*
X163775D01*
X163663Y403121D01*
X162549Y404788D01*
X158204Y409133D01*
X158830Y410304D01*
X159155Y410239D01*
X165405D01*
X167615Y410679D01*
X169489Y411931D01*
X170741Y413805D01*
X171181Y416015D01*
Y427265D01*
X170741Y429475D01*
X169489Y431349D01*
X167615Y432601D01*
X165405Y433041D01*
X159155D01*
X156945Y432601D01*
X155071Y431349D01*
X154756Y430878D01*
X153125Y430723D01*
X139251Y444597D01*
X139737Y445770D01*
X731520D01*
Y390415D01*
D02*
G37*
G36*
X95674Y417055D02*
X96447Y414171D01*
X98016Y411454D01*
X100234Y409236D01*
X102951Y407667D01*
X105835Y406894D01*
X105883Y406498D01*
Y406042D01*
X105835Y405646D01*
X102951Y404873D01*
X100234Y403304D01*
X98016Y401086D01*
X96447Y398369D01*
X95674Y395485D01*
X95278Y395437D01*
X94822D01*
X94426Y395485D01*
X93653Y398369D01*
X92084Y401086D01*
X89866Y403304D01*
X87149Y404873D01*
X84265Y405646D01*
X84217Y406042D01*
Y406498D01*
X84265Y406894D01*
X87149Y407667D01*
X89866Y409236D01*
X92084Y411454D01*
X93653Y414171D01*
X94426Y417055D01*
X94822Y417103D01*
X95278D01*
X95674Y417055D01*
D02*
G37*
G36*
Y392055D02*
X96447Y389171D01*
X98016Y386454D01*
X100234Y384236D01*
X102951Y382667D01*
X105835Y381894D01*
X105883Y381498D01*
Y381042D01*
X105835Y380646D01*
X102951Y379873D01*
X100234Y378304D01*
X98016Y376086D01*
X96447Y373369D01*
X95674Y370485D01*
X95278Y370437D01*
X94822D01*
X94426Y370485D01*
X93653Y373369D01*
X92084Y376086D01*
X89866Y378304D01*
X87149Y379873D01*
X84265Y380646D01*
X84217Y381042D01*
Y381498D01*
X84265Y381894D01*
X87149Y382667D01*
X89866Y384236D01*
X92084Y386454D01*
X93653Y389171D01*
X94426Y392055D01*
X94822Y392103D01*
X95278D01*
X95674Y392055D01*
D02*
G37*
G36*
X705040Y382519D02*
X704508Y381309D01*
X588010D01*
X586434Y380996D01*
X585097Y380103D01*
X519114Y314119D01*
X517540D01*
Y319290D01*
X500960D01*
Y306701D01*
X500252Y306133D01*
X499040Y306667D01*
Y319290D01*
X497025D01*
X496539Y320463D01*
X506785Y330710D01*
X517540D01*
Y337094D01*
X517743D01*
X519319Y337407D01*
X520655Y338300D01*
X565586Y383231D01*
X704469D01*
X705040Y382519D01*
D02*
G37*
G36*
X620268Y362911D02*
X619387Y362323D01*
X516355Y259290D01*
X500960D01*
Y246701D01*
X500252Y246133D01*
X499040Y246667D01*
Y259290D01*
X482460D01*
Y253609D01*
X481952D01*
X480571Y253335D01*
X479606Y252690D01*
X477788D01*
X475935Y251923D01*
X474517Y250505D01*
X473750Y248652D01*
Y246647D01*
X474517Y244795D01*
X475935Y243377D01*
X477788Y242610D01*
X479793D01*
X481190Y243189D01*
X482460Y242533D01*
Y240710D01*
X481709Y240706D01*
X481697Y240706D01*
X481230Y240613D01*
X480120Y240392D01*
X478784Y239499D01*
X456827Y217543D01*
X456239Y216662D01*
X454969Y217048D01*
Y237054D01*
X480383Y262467D01*
X496837D01*
X498413Y262781D01*
X499749Y263674D01*
X506785Y270710D01*
X517540D01*
Y275881D01*
X518760D01*
X520336Y276194D01*
X521673Y277087D01*
X608766Y364181D01*
X619882D01*
X620268Y362911D01*
D02*
G37*
G36*
X728235Y336123D02*
X727749Y334950D01*
X712520D01*
Y322470D01*
X712520D01*
Y322250D01*
X712520D01*
Y309770D01*
X712520D01*
Y309550D01*
X712520D01*
Y297070D01*
X712520D01*
Y296850D01*
X712520D01*
Y284370D01*
X712520D01*
Y284150D01*
X712520D01*
Y271670D01*
X712520Y271670D01*
Y271450D01*
X712520D01*
X712520Y270400D01*
Y258970D01*
X712520Y258970D01*
Y258750D01*
X712520D01*
X712520Y257700D01*
Y246270D01*
X712520Y246270D01*
Y246050D01*
X712520D01*
X712520Y245000D01*
Y233570D01*
X712520Y233570D01*
Y233350D01*
X712520D01*
X712520Y232300D01*
Y220870D01*
X712520Y220870D01*
Y220650D01*
X712520D01*
X712520Y219600D01*
Y208170D01*
X712520Y208170D01*
Y207950D01*
X712520D01*
X712520Y206900D01*
Y195470D01*
X712520D01*
Y195250D01*
X712520D01*
Y182770D01*
X712520D01*
Y182550D01*
X712520D01*
Y170070D01*
X712520D01*
Y169850D01*
X712520D01*
Y164221D01*
X711347Y163735D01*
X708559Y166523D01*
X707223Y167416D01*
X705647Y167729D01*
X694498D01*
X693600Y168627D01*
X693600Y169850D01*
X693600Y171120D01*
Y181500D01*
X693600Y182550D01*
X693600Y183820D01*
Y195250D01*
X693600D01*
Y195301D01*
X694007Y196571D01*
X699550D01*
Y196567D01*
X701602Y196975D01*
X702620Y197655D01*
X702625Y197657D01*
X702628Y197661D01*
X703342Y198138D01*
X703819Y198852D01*
X704043Y199075D01*
X704164Y199367D01*
X704505Y199878D01*
X704625Y200480D01*
X704810Y200928D01*
X704913Y201930D01*
X704909D01*
X704810Y202426D01*
Y202932D01*
X704616Y203400D01*
X704518Y203897D01*
X704236Y204317D01*
X704043Y204785D01*
X703685Y205143D01*
X703404Y205564D01*
X702983Y205845D01*
X702625Y206203D01*
X702157Y206396D01*
X701737Y206678D01*
X701240Y206776D01*
X700772Y206970D01*
X700266D01*
X699770Y207069D01*
X699550Y207249D01*
Y207285D01*
X698767Y206970D01*
X698475Y206849D01*
X693600D01*
Y207950D01*
X671520D01*
Y195470D01*
X671520D01*
Y195250D01*
X671520D01*
Y183820D01*
X671520Y182770D01*
X671520Y181422D01*
X670622Y180524D01*
X663503D01*
X663255Y180773D01*
X661403Y181540D01*
X659398D01*
X657545Y180773D01*
X656127Y179355D01*
X655360Y177502D01*
Y175497D01*
X656127Y173645D01*
X657545Y172227D01*
X659398Y171460D01*
X661403D01*
X663255Y172227D01*
X663314Y172286D01*
X670622D01*
X671520Y171388D01*
X671520Y170070D01*
X671520Y168800D01*
Y157370D01*
X693600D01*
Y159491D01*
X703940D01*
X730329Y133103D01*
X729843Y131929D01*
X553226D01*
X524540Y160615D01*
Y172870D01*
X521619D01*
Y181210D01*
X525540D01*
Y199790D01*
X521619D01*
Y205340D01*
X524270D01*
Y223920D01*
X507690D01*
Y205340D01*
X513381D01*
Y199790D01*
X508960D01*
Y181210D01*
X513381D01*
Y172870D01*
X510460D01*
Y154790D01*
X518715D01*
X548607Y124897D01*
X549944Y124004D01*
X551520Y123691D01*
X572136D01*
X572622Y122517D01*
X566624Y116519D01*
X437540D01*
Y132480D01*
X433619D01*
Y139550D01*
X436540D01*
Y144471D01*
X444500D01*
X446076Y144784D01*
X447413Y145677D01*
X462653Y160917D01*
X463546Y162254D01*
X463859Y163830D01*
Y212924D01*
X483403Y232468D01*
X496837D01*
X498413Y232781D01*
X499749Y233674D01*
X506785Y240710D01*
X517540D01*
Y250500D01*
X519078Y250806D01*
X520415Y251699D01*
X624006Y355291D01*
X709067D01*
X728235Y336123D01*
D02*
G37*
G36*
X69624Y198075D02*
X70397Y195191D01*
X71966Y192474D01*
X74184Y190256D01*
X76901Y188687D01*
X79785Y187914D01*
X79833Y187518D01*
Y187062D01*
X79785Y186666D01*
X76901Y185893D01*
X74184Y184324D01*
X71966Y182106D01*
X70397Y179389D01*
X69624Y176505D01*
X69228Y176457D01*
X68772D01*
X68376Y176505D01*
X67603Y179389D01*
X66034Y182106D01*
X63816Y184324D01*
X61099Y185893D01*
X58215Y186666D01*
X58167Y187062D01*
Y187518D01*
X58215Y187914D01*
X61099Y188687D01*
X63816Y190256D01*
X66034Y192474D01*
X67603Y195191D01*
X68376Y198075D01*
X68772Y198123D01*
X69228D01*
X69624Y198075D01*
D02*
G37*
G36*
Y173075D02*
X70397Y170191D01*
X71966Y167474D01*
X74184Y165256D01*
X76901Y163687D01*
X79785Y162914D01*
X79833Y162518D01*
Y162062D01*
X79785Y161666D01*
X76901Y160893D01*
X74184Y159324D01*
X71966Y157106D01*
X70397Y154389D01*
X69624Y151505D01*
X69228Y151457D01*
X68772D01*
X68376Y151505D01*
X67603Y154389D01*
X66034Y157106D01*
X63816Y159324D01*
X61099Y160893D01*
X58215Y161666D01*
X58167Y162062D01*
Y162518D01*
X58215Y162914D01*
X61099Y163687D01*
X63816Y165256D01*
X66034Y167474D01*
X67603Y170191D01*
X68376Y173075D01*
X68772Y173123D01*
X69228D01*
X69624Y173075D01*
D02*
G37*
G36*
X110048Y170716D02*
X109881Y169880D01*
Y161427D01*
X94017Y145563D01*
X92879Y146220D01*
X93415Y148221D01*
Y151359D01*
X92603Y154389D01*
X92355Y154819D01*
X108877Y171342D01*
X110048Y170716D01*
D02*
G37*
G36*
X69624Y148075D02*
X70397Y145191D01*
X71966Y142474D01*
X74184Y140256D01*
X76901Y138687D01*
X79785Y137914D01*
X79833Y137518D01*
Y137062D01*
X79785Y136666D01*
X76901Y135893D01*
X74184Y134324D01*
X71966Y132106D01*
X70397Y129389D01*
X69624Y126505D01*
X69228Y126457D01*
X68772D01*
X68376Y126505D01*
X67603Y129389D01*
X66034Y132106D01*
X63816Y134324D01*
X61099Y135893D01*
X58215Y136666D01*
X58167Y137062D01*
Y137518D01*
X58215Y137914D01*
X61099Y138687D01*
X63816Y140256D01*
X66034Y142474D01*
X67603Y145191D01*
X68376Y148075D01*
X68772Y148123D01*
X69228D01*
X69624Y148075D01*
D02*
G37*
G36*
X139874Y189389D02*
X140825Y187967D01*
X140679Y187235D01*
Y177156D01*
X113210Y149687D01*
X112096Y148020D01*
X111705Y146053D01*
Y131672D01*
X95547Y115514D01*
X90733D01*
X90247Y116687D01*
X91034Y117474D01*
X92603Y120191D01*
X93415Y123221D01*
Y126359D01*
X92603Y129389D01*
X91465Y131360D01*
X116913Y156808D01*
X117806Y158144D01*
X118120Y159720D01*
Y168174D01*
X139421Y189476D01*
X139874Y189389D01*
D02*
G37*
G36*
X232101Y164664D02*
Y129540D01*
X232414Y127964D01*
X233307Y126627D01*
X298457Y61477D01*
X299794Y60584D01*
X301370Y60271D01*
X382530D01*
X384106Y60584D01*
X385443Y61477D01*
X408655Y84690D01*
X419410D01*
Y102101D01*
X421330D01*
Y84690D01*
X426011D01*
Y72540D01*
X422830D01*
Y54460D01*
X426011D01*
Y44850D01*
X421330D01*
Y26270D01*
X437910D01*
Y44850D01*
X433229D01*
Y54460D01*
X436910D01*
Y72540D01*
X433229D01*
Y84690D01*
X437910D01*
Y102101D01*
X546505D01*
X558532Y90073D01*
X558046Y88900D01*
X480060D01*
Y52070D01*
X436880Y13970D01*
X125730D01*
Y46990D01*
X83737Y88983D01*
X84223Y90156D01*
X120695D01*
X122662Y90547D01*
X124329Y91661D01*
X141926Y109258D01*
X141998D01*
X143255Y108419D01*
X145465Y107979D01*
X151715D01*
X153925Y108419D01*
X155799Y109671D01*
X157051Y111545D01*
X157491Y113755D01*
Y125005D01*
X157051Y127215D01*
X155799Y129089D01*
X153925Y130341D01*
X151715Y130781D01*
X145465D01*
X143255Y130341D01*
X141381Y129089D01*
X140129Y127215D01*
X139689Y125005D01*
Y119514D01*
X137830Y119145D01*
X136163Y118031D01*
X118567Y100434D01*
X111900D01*
X111414Y101607D01*
X149850Y140042D01*
X150489Y140999D01*
X152705D01*
X154915Y141439D01*
X156789Y142691D01*
X158041Y144565D01*
X158481Y146775D01*
Y158025D01*
X158041Y160235D01*
X156789Y162109D01*
X154915Y163361D01*
X152705Y163801D01*
X146455D01*
X144245Y163361D01*
X142371Y162109D01*
X141119Y160235D01*
X140679Y158025D01*
Y146775D01*
X140906Y145633D01*
X122895Y127622D01*
X121724Y128248D01*
X121982Y129543D01*
Y143925D01*
X148266Y170209D01*
X152705D01*
X154915Y170649D01*
X156789Y171901D01*
X158041Y173775D01*
X158481Y175985D01*
Y187235D01*
X158128Y189011D01*
X158894Y190281D01*
X168766D01*
X169532Y189011D01*
X169179Y187235D01*
Y175985D01*
X169619Y173775D01*
X170871Y171901D01*
X172661Y170704D01*
Y163306D01*
X170871Y162109D01*
X169619Y160235D01*
X169179Y158025D01*
Y146775D01*
X169619Y144565D01*
X170871Y142691D01*
X172661Y141494D01*
Y130522D01*
X171755Y130341D01*
X169881Y129089D01*
X168629Y127215D01*
X168189Y125005D01*
Y113755D01*
X168629Y111545D01*
X169881Y109671D01*
X171755Y108419D01*
X173965Y107979D01*
X180215D01*
X182425Y108419D01*
X184299Y109671D01*
X185551Y111545D01*
X185991Y113755D01*
Y125005D01*
X185551Y127215D01*
X184299Y129089D01*
X182939Y129998D01*
Y141344D01*
X183415Y141439D01*
X185289Y142691D01*
X186541Y144565D01*
X186981Y146775D01*
Y158025D01*
X186541Y160235D01*
X185289Y162109D01*
X183415Y163361D01*
X182939Y163456D01*
Y170554D01*
X183415Y170649D01*
X185289Y171901D01*
X186541Y173775D01*
X186981Y175985D01*
Y187235D01*
X186628Y189011D01*
X187394Y190281D01*
X206484D01*
X232101Y164664D01*
D02*
G37*
G36*
X721148Y116628D02*
X693420Y88900D01*
X571356D01*
X553149Y107107D01*
X553635Y108281D01*
X568330D01*
X569906Y108594D01*
X571243Y109487D01*
X579556Y117801D01*
X720661D01*
X721148Y116628D01*
D02*
G37*
G36*
X342347Y103307D02*
X343684Y102414D01*
X345260Y102101D01*
X402830D01*
Y90515D01*
X380824Y68509D01*
X348010D01*
Y83970D01*
X344579D01*
Y86380D01*
X344305Y87761D01*
X343522Y88932D01*
X336310Y96144D01*
Y107685D01*
X337483Y108171D01*
X342347Y103307D01*
D02*
G37*
G36*
X1462829Y453684D02*
X1467451Y451769D01*
X1471611Y448989D01*
X1475149Y445452D01*
X1477929Y441291D01*
X1479844Y436669D01*
X1480820Y431762D01*
Y429260D01*
Y181610D01*
Y180609D01*
X1480430Y178646D01*
X1479664Y176797D01*
X1478552Y175133D01*
X1477137Y173718D01*
X1475473Y172606D01*
X1473624Y171840D01*
X1471661Y171450D01*
X1242355D01*
X1241869Y172623D01*
X1278671Y209425D01*
X1279101Y209177D01*
X1281985Y208404D01*
X1282033Y208008D01*
Y207552D01*
X1281985Y207156D01*
X1279101Y206383D01*
X1276384Y204814D01*
X1274166Y202596D01*
X1272597Y199879D01*
X1271785Y196849D01*
Y193711D01*
X1272597Y190681D01*
X1274166Y187964D01*
X1276384Y185746D01*
X1279101Y184177D01*
X1282131Y183365D01*
X1285269D01*
X1288299Y184177D01*
X1291016Y185746D01*
X1293234Y187964D01*
X1294803Y190681D01*
X1295576Y193565D01*
X1295972Y193613D01*
X1296428D01*
X1296824Y193565D01*
X1297597Y190681D01*
X1299166Y187964D01*
X1301384Y185746D01*
X1304101Y184177D01*
X1307131Y183365D01*
X1310269D01*
X1313299Y184177D01*
X1316016Y185746D01*
X1318234Y187964D01*
X1319803Y190681D01*
X1320576Y193565D01*
X1320972Y193613D01*
X1321428D01*
X1321824Y193565D01*
X1322597Y190681D01*
X1324166Y187964D01*
X1326384Y185746D01*
X1329101Y184177D01*
X1332131Y183365D01*
X1335269D01*
X1338299Y184177D01*
X1341016Y185746D01*
X1343234Y187964D01*
X1344803Y190681D01*
X1345576Y193565D01*
X1345972Y193613D01*
X1346428D01*
X1346824Y193565D01*
X1347597Y190681D01*
X1349166Y187964D01*
X1351384Y185746D01*
X1354101Y184177D01*
X1357131Y183365D01*
X1360269D01*
X1363299Y184177D01*
X1366016Y185746D01*
X1368234Y187964D01*
X1369803Y190681D01*
X1370576Y193565D01*
X1370972Y193613D01*
X1371428D01*
X1371824Y193565D01*
X1372597Y190681D01*
X1374166Y187964D01*
X1376384Y185746D01*
X1379101Y184177D01*
X1382131Y183365D01*
X1385269D01*
X1388299Y184177D01*
X1391016Y185746D01*
X1393234Y187964D01*
X1394803Y190681D01*
X1395576Y193565D01*
X1395972Y193613D01*
X1396428D01*
X1396824Y193565D01*
X1397597Y190681D01*
X1399166Y187964D01*
X1401384Y185746D01*
X1404101Y184177D01*
X1407131Y183365D01*
X1410269D01*
X1413299Y184177D01*
X1416016Y185746D01*
X1418234Y187964D01*
X1419803Y190681D01*
X1420615Y193711D01*
Y196849D01*
X1419803Y199879D01*
X1418234Y202596D01*
X1416016Y204814D01*
X1413299Y206383D01*
X1410269Y207195D01*
X1407131D01*
X1404101Y206383D01*
X1401384Y204814D01*
X1399166Y202596D01*
X1397597Y199879D01*
X1396824Y196995D01*
X1396428Y196947D01*
X1395972D01*
X1395576Y196995D01*
X1394803Y199879D01*
X1393234Y202596D01*
X1391016Y204814D01*
X1388299Y206383D01*
X1385415Y207156D01*
X1385367Y207552D01*
Y208008D01*
X1385415Y208404D01*
X1388299Y209177D01*
X1391016Y210746D01*
X1393234Y212964D01*
X1394803Y215681D01*
X1395615Y218711D01*
Y221849D01*
X1394803Y224879D01*
X1393234Y227596D01*
X1391016Y229814D01*
X1388299Y231383D01*
X1385269Y232195D01*
X1382131D01*
X1379760Y231560D01*
X1266417Y344903D01*
X1259967Y351353D01*
X1258631Y352246D01*
X1257055Y352559D01*
X870423D01*
X859535Y363447D01*
X860021Y364620D01*
X865650Y364620D01*
X866920Y364620D01*
X877300D01*
X878350Y364620D01*
X879620Y364620D01*
X890000D01*
X891050Y364620D01*
X892320Y364620D01*
X902700D01*
X903750Y364620D01*
X905020Y364620D01*
X915400D01*
X916450Y364620D01*
X917720Y364620D01*
X928100D01*
X929150Y364620D01*
X930420Y364620D01*
X941850D01*
Y386021D01*
X941850Y386700D01*
X942875Y387291D01*
X1267436D01*
X1268210Y386284D01*
X1267975Y385409D01*
Y382271D01*
X1268787Y379241D01*
X1270356Y376524D01*
X1272574Y374306D01*
X1275291Y372737D01*
X1278175Y371964D01*
X1278223Y371568D01*
Y371112D01*
X1278175Y370716D01*
X1275291Y369943D01*
X1272574Y368374D01*
X1270356Y366156D01*
X1268787Y363439D01*
X1267975Y360409D01*
Y357271D01*
X1268787Y354241D01*
X1270356Y351524D01*
X1272574Y349306D01*
X1275291Y347737D01*
X1278321Y346925D01*
X1281459D01*
X1284489Y347737D01*
X1287206Y349306D01*
X1289424Y351524D01*
X1290993Y354241D01*
X1291766Y357125D01*
X1292162Y357173D01*
X1292618D01*
X1293014Y357125D01*
X1293787Y354241D01*
X1295356Y351524D01*
X1297574Y349306D01*
X1300291Y347737D01*
X1303321Y346925D01*
X1306459D01*
X1309489Y347737D01*
X1312206Y349306D01*
X1314424Y351524D01*
X1315993Y354241D01*
X1316766Y357125D01*
X1317162Y357173D01*
X1317618D01*
X1318014Y357125D01*
X1318787Y354241D01*
X1320356Y351524D01*
X1322574Y349306D01*
X1325291Y347737D01*
X1328321Y346925D01*
X1331459D01*
X1332888Y347308D01*
X1333850Y346251D01*
Y344316D01*
X1334432Y342144D01*
X1335556Y340196D01*
X1337146Y338606D01*
X1339094Y337482D01*
X1341266Y336900D01*
X1343514D01*
X1345686Y337482D01*
X1347634Y338606D01*
X1349224Y340196D01*
X1350348Y342144D01*
X1350930Y344316D01*
Y346251D01*
X1351892Y347308D01*
X1353321Y346925D01*
X1356459D01*
X1359489Y347737D01*
X1362206Y349306D01*
X1364424Y351524D01*
X1365993Y354241D01*
X1366766Y357125D01*
X1367162Y357173D01*
X1367618D01*
X1368014Y357125D01*
X1368787Y354241D01*
X1370356Y351524D01*
X1372574Y349306D01*
X1375291Y347737D01*
X1378321Y346925D01*
X1381459D01*
X1384489Y347737D01*
X1387206Y349306D01*
X1389424Y351524D01*
X1390993Y354241D01*
X1391766Y357125D01*
X1392162Y357173D01*
X1392618D01*
X1393014Y357125D01*
X1393787Y354241D01*
X1395356Y351524D01*
X1397574Y349306D01*
X1400291Y347737D01*
X1403321Y346925D01*
X1406459D01*
X1409489Y347737D01*
X1412206Y349306D01*
X1414424Y351524D01*
X1415993Y354241D01*
X1416805Y357271D01*
Y360409D01*
X1415993Y363439D01*
X1414424Y366156D01*
X1412206Y368374D01*
X1409489Y369943D01*
X1406605Y370716D01*
X1406557Y371112D01*
Y371568D01*
X1406605Y371964D01*
X1409489Y372737D01*
X1412206Y374306D01*
X1414424Y376524D01*
X1415993Y379241D01*
X1416805Y382271D01*
Y385409D01*
X1415993Y388439D01*
X1414424Y391156D01*
X1412206Y393374D01*
X1409489Y394943D01*
X1406459Y395755D01*
X1403321D01*
X1400291Y394943D01*
X1397574Y393374D01*
X1395356Y391156D01*
X1393787Y388439D01*
X1393014Y385555D01*
X1392618Y385507D01*
X1392162D01*
X1391766Y385555D01*
X1390993Y388439D01*
X1389424Y391156D01*
X1387206Y393374D01*
X1384489Y394943D01*
X1381459Y395755D01*
X1378321D01*
X1375291Y394943D01*
X1372574Y393374D01*
X1370356Y391156D01*
X1368787Y388439D01*
X1368014Y385555D01*
X1367618Y385507D01*
X1367162D01*
X1366766Y385555D01*
X1365993Y388439D01*
X1364424Y391156D01*
X1362206Y393374D01*
X1359489Y394943D01*
X1356459Y395755D01*
X1353321D01*
X1350291Y394943D01*
X1347574Y393374D01*
X1345356Y391156D01*
X1343787Y388439D01*
X1343014Y385555D01*
X1342618Y385507D01*
X1342162D01*
X1341766Y385555D01*
X1340993Y388439D01*
X1339424Y391156D01*
X1337206Y393374D01*
X1334489Y394943D01*
X1331459Y395755D01*
X1328321D01*
X1325291Y394943D01*
X1322574Y393374D01*
X1320356Y391156D01*
X1318787Y388439D01*
X1317975Y385409D01*
Y382271D01*
X1318787Y379241D01*
X1320356Y376524D01*
X1322574Y374306D01*
X1325291Y372737D01*
X1328175Y371964D01*
X1328223Y371568D01*
Y371112D01*
X1328175Y370716D01*
X1325291Y369943D01*
X1322574Y368374D01*
X1320356Y366156D01*
X1318787Y363439D01*
X1318014Y360555D01*
X1317618Y360507D01*
X1317162D01*
X1316766Y360555D01*
X1315993Y363439D01*
X1314424Y366156D01*
X1312206Y368374D01*
X1309489Y369943D01*
X1306459Y370755D01*
X1303321D01*
X1300291Y369943D01*
X1297574Y368374D01*
X1295356Y366156D01*
X1293787Y363439D01*
X1293014Y360555D01*
X1292618Y360507D01*
X1292162D01*
X1291766Y360555D01*
X1290993Y363439D01*
X1289424Y366156D01*
X1287206Y368374D01*
X1284489Y369943D01*
X1281605Y370716D01*
X1281557Y371112D01*
Y371568D01*
X1281605Y371964D01*
X1284489Y372737D01*
X1287206Y374306D01*
X1289424Y376524D01*
X1290993Y379241D01*
X1291805Y382271D01*
Y385409D01*
X1290993Y388439D01*
X1289424Y391156D01*
X1287206Y393374D01*
X1284489Y394943D01*
X1281459Y395755D01*
X1278321D01*
X1278203Y395723D01*
X1278174Y395746D01*
X1274858Y397119D01*
X1271300Y397588D01*
Y397569D01*
X845540D01*
X845325Y397526D01*
X841803Y397873D01*
X838210Y398963D01*
X834898Y400733D01*
X831995Y403115D01*
X830882Y404472D01*
X831425Y405620D01*
X839200D01*
X840250Y405620D01*
X841520Y405620D01*
X851900D01*
X852950Y405620D01*
X854220Y405620D01*
X864600D01*
X865650Y405620D01*
X866920Y405620D01*
X877300D01*
X878350Y405620D01*
X879620Y405620D01*
X890000D01*
X891050Y405620D01*
X892320Y405620D01*
X902700D01*
X903750Y405620D01*
X905020Y405620D01*
X916450D01*
Y405620D01*
X916670D01*
Y405620D01*
X929150D01*
Y405620D01*
X929370D01*
Y405620D01*
X941850D01*
Y427700D01*
X929370D01*
Y427700D01*
X929150D01*
Y427700D01*
X916670D01*
Y427700D01*
X916450D01*
Y427700D01*
X905020D01*
X903970Y427700D01*
X902700Y427700D01*
X892320D01*
X891270Y427700D01*
X890000Y427700D01*
X879620D01*
X878570Y427700D01*
X877300Y427700D01*
X866920D01*
X865870Y427700D01*
X864600Y427700D01*
X854220D01*
X853170Y427700D01*
X851900Y427700D01*
X841520D01*
X840470Y427700D01*
X839200Y427700D01*
X827770D01*
X827770Y427700D01*
X827550D01*
Y427700D01*
X826500Y427700D01*
X815070D01*
Y427700D01*
X814850D01*
Y427700D01*
X802370D01*
Y427700D01*
X802150D01*
Y427700D01*
X789670D01*
Y427700D01*
X789450D01*
Y427700D01*
X776970D01*
Y405620D01*
X777322D01*
X778029Y404350D01*
X777849Y403446D01*
X777110Y402340D01*
X776592Y401994D01*
X775901Y402280D01*
X773499D01*
X771279Y401361D01*
X769579Y399661D01*
X768660Y397441D01*
Y395039D01*
X769579Y392819D01*
X771279Y391119D01*
X773499Y390200D01*
X775901D01*
X778121Y391119D01*
X778772Y391770D01*
X781534Y392914D01*
X784364Y395086D01*
X786536Y397917D01*
X787901Y401213D01*
X788367Y404750D01*
X788491Y404869D01*
X789450Y405620D01*
X789670D01*
Y405620D01*
X802150D01*
Y405620D01*
X802370D01*
Y405620D01*
X814850D01*
Y405620D01*
X815070D01*
Y405620D01*
X818431D01*
X819380Y403331D01*
X821787Y399402D01*
X824779Y395899D01*
X828282Y392907D01*
X832211Y390500D01*
X836467Y388736D01*
X839660Y387970D01*
X839510Y386700D01*
X828820D01*
X827770Y386700D01*
X826500Y386700D01*
X816120D01*
X815070Y386700D01*
X813800Y386700D01*
X803420D01*
X802370Y386700D01*
X801100Y386700D01*
X790720D01*
X789670Y386700D01*
X788400Y386700D01*
X778020D01*
X776970Y386700D01*
X775700Y386700D01*
X764270D01*
Y364620D01*
X775700D01*
X776750Y364620D01*
X778020Y364620D01*
X788400D01*
X789450Y364620D01*
X790720Y364620D01*
X801100D01*
X802150Y364620D01*
X803420Y364620D01*
X813800D01*
X814850Y364620D01*
X816120Y364620D01*
X826500D01*
X827550Y364620D01*
X828820Y364620D01*
X834425D01*
X835225Y363820D01*
X836057Y362574D01*
X858644Y339987D01*
X859980Y339094D01*
X861557Y338781D01*
X1253054D01*
X1348657Y243178D01*
X1348000Y242039D01*
X1347324Y242220D01*
X1345076D01*
X1342904Y241638D01*
X1340956Y240514D01*
X1339366Y238924D01*
X1338242Y236976D01*
X1337660Y234804D01*
Y232869D01*
X1336698Y231812D01*
X1335269Y232195D01*
X1332131D01*
X1329101Y231383D01*
X1326384Y229814D01*
X1324166Y227596D01*
X1322597Y224879D01*
X1321824Y221995D01*
X1321428Y221947D01*
X1320972D01*
X1320576Y221995D01*
X1319803Y224879D01*
X1318234Y227596D01*
X1316016Y229814D01*
X1313299Y231383D01*
X1310269Y232195D01*
X1307131D01*
X1304101Y231383D01*
X1303671Y231135D01*
X1298198Y236608D01*
X1296861Y237501D01*
X1295285Y237814D01*
X1272555D01*
X1270979Y237501D01*
X1269642Y236608D01*
X1204485Y171450D01*
X1182370D01*
X1179880Y171328D01*
X1174997Y170356D01*
X1170396Y168451D01*
X1166256Y165685D01*
X1162736Y162164D01*
X1159969Y158024D01*
X1158064Y153423D01*
X1157092Y148540D01*
X1156970Y146050D01*
Y142985D01*
X1151454Y137469D01*
X759284D01*
X759031Y138739D01*
X759775Y139047D01*
X761193Y140465D01*
X761960Y142317D01*
Y144323D01*
X761193Y146175D01*
X761039Y146328D01*
Y158829D01*
X760726Y160405D01*
X759833Y161742D01*
X755650Y165924D01*
Y222761D01*
X766713Y233824D01*
X767606Y235160D01*
X767919Y236737D01*
Y350650D01*
X767606Y352226D01*
X766713Y353563D01*
X755650Y364625D01*
Y435610D01*
Y449573D01*
X756617Y451907D01*
X758403Y453693D01*
X760737Y454660D01*
X1457922D01*
X1462829Y453684D01*
D02*
G37*
G36*
X1368014Y382125D02*
X1368787Y379241D01*
X1370356Y376524D01*
X1372574Y374306D01*
X1375291Y372737D01*
X1378175Y371964D01*
X1378223Y371568D01*
Y371112D01*
X1378175Y370716D01*
X1375291Y369943D01*
X1372574Y368374D01*
X1370356Y366156D01*
X1368787Y363439D01*
X1368014Y360555D01*
X1367618Y360507D01*
X1367162D01*
X1366766Y360555D01*
X1365993Y363439D01*
X1364424Y366156D01*
X1362206Y368374D01*
X1359489Y369943D01*
X1356605Y370716D01*
X1356557Y371112D01*
Y371568D01*
X1356605Y371964D01*
X1359489Y372737D01*
X1362206Y374306D01*
X1364424Y376524D01*
X1365993Y379241D01*
X1366766Y382125D01*
X1367162Y382173D01*
X1367618D01*
X1368014Y382125D01*
D02*
G37*
G36*
X1393014D02*
X1393787Y379241D01*
X1395356Y376524D01*
X1397574Y374306D01*
X1400291Y372737D01*
X1403175Y371964D01*
X1403223Y371568D01*
Y371112D01*
X1403175Y370716D01*
X1400291Y369943D01*
X1397574Y368374D01*
X1395356Y366156D01*
X1393787Y363439D01*
X1393014Y360555D01*
X1392618Y360507D01*
X1392162D01*
X1391766Y360555D01*
X1390993Y363439D01*
X1389424Y366156D01*
X1387206Y368374D01*
X1384489Y369943D01*
X1381605Y370716D01*
X1381557Y371112D01*
Y371568D01*
X1381605Y371964D01*
X1384489Y372737D01*
X1387206Y374306D01*
X1389424Y376524D01*
X1390993Y379241D01*
X1391766Y382125D01*
X1392162Y382173D01*
X1392618D01*
X1393014Y382125D01*
D02*
G37*
G36*
X1343014D02*
X1343787Y379241D01*
X1345356Y376524D01*
X1347574Y374306D01*
X1350291Y372737D01*
X1353175Y371964D01*
X1353223Y371568D01*
Y371112D01*
X1353175Y370716D01*
X1350291Y369943D01*
X1347574Y368374D01*
X1345356Y366156D01*
X1343787Y363439D01*
X1343014Y360555D01*
X1342618Y360507D01*
X1342162D01*
X1341766Y360555D01*
X1340993Y363439D01*
X1339424Y366156D01*
X1337206Y368374D01*
X1334489Y369943D01*
X1331605Y370716D01*
X1331557Y371112D01*
Y371568D01*
X1331605Y371964D01*
X1334489Y372737D01*
X1337206Y374306D01*
X1339424Y376524D01*
X1340993Y379241D01*
X1341766Y382125D01*
X1342162Y382173D01*
X1342618D01*
X1343014Y382125D01*
D02*
G37*
G36*
X1371824Y218565D02*
X1372597Y215681D01*
X1374166Y212964D01*
X1376384Y210746D01*
X1379101Y209177D01*
X1381985Y208404D01*
X1382033Y208008D01*
Y207552D01*
X1381985Y207156D01*
X1379101Y206383D01*
X1376384Y204814D01*
X1374166Y202596D01*
X1372597Y199879D01*
X1371824Y196995D01*
X1371428Y196947D01*
X1370972D01*
X1370576Y196995D01*
X1369803Y199879D01*
X1368234Y202596D01*
X1366016Y204814D01*
X1363299Y206383D01*
X1360415Y207156D01*
X1360367Y207552D01*
Y208008D01*
X1360415Y208404D01*
X1363299Y209177D01*
X1366016Y210746D01*
X1368234Y212964D01*
X1369803Y215681D01*
X1370576Y218565D01*
X1370972Y218613D01*
X1371428D01*
X1371824Y218565D01*
D02*
G37*
G36*
X1346824D02*
X1347597Y215681D01*
X1349166Y212964D01*
X1351384Y210746D01*
X1354101Y209177D01*
X1356985Y208404D01*
X1357033Y208008D01*
Y207552D01*
X1356985Y207156D01*
X1354101Y206383D01*
X1351384Y204814D01*
X1349166Y202596D01*
X1347597Y199879D01*
X1346824Y196995D01*
X1346428Y196947D01*
X1345972D01*
X1345576Y196995D01*
X1344803Y199879D01*
X1343234Y202596D01*
X1341016Y204814D01*
X1338299Y206383D01*
X1335415Y207156D01*
X1335367Y207552D01*
Y208008D01*
X1335415Y208404D01*
X1338299Y209177D01*
X1341016Y210746D01*
X1343234Y212964D01*
X1344803Y215681D01*
X1345576Y218565D01*
X1345972Y218613D01*
X1346428D01*
X1346824Y218565D01*
D02*
G37*
G36*
X1321824D02*
X1322597Y215681D01*
X1324166Y212964D01*
X1326384Y210746D01*
X1329101Y209177D01*
X1331985Y208404D01*
X1332033Y208008D01*
Y207552D01*
X1331985Y207156D01*
X1329101Y206383D01*
X1326384Y204814D01*
X1324166Y202596D01*
X1322597Y199879D01*
X1321824Y196995D01*
X1321428Y196947D01*
X1320972D01*
X1320576Y196995D01*
X1319803Y199879D01*
X1318234Y202596D01*
X1316016Y204814D01*
X1313299Y206383D01*
X1310415Y207156D01*
X1310367Y207552D01*
Y208008D01*
X1310415Y208404D01*
X1313299Y209177D01*
X1316016Y210746D01*
X1318234Y212964D01*
X1319803Y215681D01*
X1320576Y218565D01*
X1320972Y218613D01*
X1321428D01*
X1321824Y218565D01*
D02*
G37*
G36*
X1296824D02*
X1297597Y215681D01*
X1299166Y212964D01*
X1301384Y210746D01*
X1304101Y209177D01*
X1306985Y208404D01*
X1307033Y208008D01*
Y207552D01*
X1306985Y207156D01*
X1304101Y206383D01*
X1301384Y204814D01*
X1299166Y202596D01*
X1297597Y199879D01*
X1296824Y196995D01*
X1296428Y196947D01*
X1295972D01*
X1295576Y196995D01*
X1294803Y199879D01*
X1293234Y202596D01*
X1291016Y204814D01*
X1288299Y206383D01*
X1285415Y207156D01*
X1285367Y207552D01*
Y208008D01*
X1285415Y208404D01*
X1288299Y209177D01*
X1291016Y210746D01*
X1293234Y212964D01*
X1294803Y215681D01*
X1295576Y218565D01*
X1295972Y218613D01*
X1296428D01*
X1296824Y218565D01*
D02*
G37*
G36*
X1273522Y228748D02*
X1273813Y228227D01*
X1274025Y227353D01*
X1272597Y224879D01*
X1271785Y221849D01*
Y218711D01*
X1272597Y215681D01*
X1272845Y215251D01*
X1229045Y171450D01*
X1217795D01*
X1217309Y172623D01*
X1273448Y228763D01*
X1273522Y228748D01*
D02*
G37*
G36*
X1156970Y129668D02*
Y123935D01*
X1155264Y122229D01*
X939146D01*
X937570Y121916D01*
X936234Y121023D01*
X924957Y109746D01*
X924125Y108500D01*
X923325Y107700D01*
X917720D01*
X916670Y107700D01*
X915400Y107700D01*
X905020D01*
X903970Y107700D01*
X902700Y107700D01*
X892320D01*
X891270Y107700D01*
X890000Y107700D01*
X879620D01*
X878570Y107700D01*
X877300Y107700D01*
X866920D01*
X865870Y107700D01*
X864600Y107700D01*
X854220D01*
X853170Y107700D01*
X851900Y107700D01*
X841520D01*
X840470Y107700D01*
Y107700D01*
X840250D01*
Y107700D01*
X833595D01*
X832795Y108500D01*
X831963Y109746D01*
X813651Y128057D01*
X814137Y129231D01*
X1153160D01*
X1154736Y129544D01*
X1155700Y130188D01*
X1156970Y129668D01*
D02*
G37*
G36*
X791393Y116531D02*
X790747Y115885D01*
X789980Y114032D01*
Y112028D01*
X790747Y110175D01*
X791791Y109131D01*
Y107700D01*
X789670D01*
Y107700D01*
X789450D01*
Y107700D01*
X778020D01*
X776970Y107700D01*
X775700Y107700D01*
X764270D01*
Y85620D01*
X776236Y85620D01*
X777072Y84981D01*
X777280Y84570D01*
Y82817D01*
X777430Y82455D01*
X776724Y81399D01*
X755650D01*
Y117801D01*
X790867D01*
X791393Y116531D01*
D02*
G37*
G36*
X1156970Y100779D02*
X941850D01*
Y107700D01*
X936221D01*
X935735Y108873D01*
X940853Y113991D01*
X1156970D01*
Y100779D01*
D02*
G37*
G36*
Y36830D02*
Y35079D01*
X1156287Y31644D01*
X1154946Y28408D01*
X1153001Y25496D01*
X1150524Y23019D01*
X1147612Y21074D01*
X1144376Y19733D01*
X1140941Y19050D01*
X781050D01*
X778548Y19050D01*
X773641Y20026D01*
X769019Y21941D01*
X764858Y24720D01*
X761320Y28258D01*
X758541Y32419D01*
X756626Y37041D01*
X755650Y41948D01*
Y44450D01*
Y73161D01*
X832543D01*
X834120Y73474D01*
X835456Y74367D01*
X844663Y83574D01*
X845495Y84820D01*
X846295Y85620D01*
X851900D01*
X852950Y85620D01*
X854220Y85620D01*
X864600D01*
X865650Y85620D01*
X866920Y85620D01*
X877300D01*
X878350Y85620D01*
X879620Y85620D01*
X890000D01*
X891050Y85620D01*
X892320Y85620D01*
X902700D01*
X903750Y85620D01*
X905020Y85620D01*
X915400D01*
X916450Y85620D01*
X917720Y85620D01*
X928100D01*
X929150Y85620D01*
Y85620D01*
X929370D01*
Y85620D01*
X941850D01*
Y92541D01*
X1156970D01*
Y36830D01*
D02*
G37*
G36*
X833885Y84447D02*
X830837Y81399D01*
X787915D01*
X787210Y82455D01*
X787360Y82817D01*
Y84823D01*
X787893Y85620D01*
X789450D01*
Y85620D01*
X789670D01*
Y85620D01*
X802150D01*
Y85620D01*
X802370D01*
Y85620D01*
X814850D01*
X814850Y85620D01*
X815070D01*
Y85620D01*
X816120Y85620D01*
X827550D01*
X827550Y85620D01*
X827770D01*
Y85620D01*
X828820Y85620D01*
X833399D01*
X833885Y84447D01*
D02*
G37*
%LPC*%
G36*
X193905Y433041D02*
X187655D01*
X185445Y432601D01*
X183571Y431349D01*
X182319Y429475D01*
X181879Y427265D01*
Y416015D01*
X182319Y413805D01*
X183571Y411931D01*
X185445Y410679D01*
X185641Y410640D01*
Y402160D01*
X185445Y402121D01*
X183571Y400869D01*
X182319Y398995D01*
X181879Y396785D01*
Y385535D01*
X182319Y383325D01*
X183571Y381451D01*
X185445Y380199D01*
X185641Y380160D01*
Y371680D01*
X185445Y371641D01*
X183571Y370389D01*
X182319Y368515D01*
X181879Y366305D01*
Y355055D01*
X182319Y352845D01*
X183571Y350971D01*
X185445Y349719D01*
X187655Y349279D01*
X193905D01*
X196115Y349719D01*
X197989Y350971D01*
X199241Y352845D01*
X199681Y355055D01*
Y366305D01*
X199241Y368515D01*
X197989Y370389D01*
X196115Y371641D01*
X195919Y371680D01*
Y380160D01*
X196115Y380199D01*
X197989Y381451D01*
X199241Y383325D01*
X199681Y385535D01*
Y396785D01*
X199241Y398995D01*
X197989Y400869D01*
X196115Y402121D01*
X195919Y402160D01*
Y410640D01*
X196115Y410679D01*
X197989Y411931D01*
X199241Y413805D01*
X199681Y416015D01*
Y427265D01*
X199241Y429475D01*
X197989Y431349D01*
X196115Y432601D01*
X193905Y433041D01*
D02*
G37*
G36*
X336270Y382670D02*
X319690D01*
Y364090D01*
X324371D01*
Y355750D01*
X321190D01*
Y337670D01*
X324371D01*
Y331870D01*
X319690D01*
Y313290D01*
X330445D01*
X336385Y307350D01*
X337721Y306457D01*
X339297Y306143D01*
X342049D01*
X342585Y305607D01*
X344437Y304840D01*
X346442D01*
X348295Y305607D01*
X349713Y307025D01*
X350480Y308878D01*
Y310882D01*
X349713Y312735D01*
X348295Y314153D01*
X346442Y314920D01*
X344437D01*
X343138Y314382D01*
X341003D01*
X336270Y319115D01*
Y331870D01*
X331589D01*
Y337670D01*
X335270D01*
Y355750D01*
X331589D01*
Y364090D01*
X336270D01*
Y382670D01*
D02*
G37*
G36*
X337540Y298850D02*
X320960D01*
Y280270D01*
X325641D01*
Y272180D01*
X320960D01*
Y253600D01*
X325641D01*
Y245260D01*
X322460D01*
Y227180D01*
X332102D01*
X332500Y227101D01*
X332794D01*
X335477Y224417D01*
X336814Y223524D01*
X338390Y223211D01*
X343702D01*
X343855Y223057D01*
X345708Y222290D01*
X347713D01*
X349565Y223057D01*
X350983Y224475D01*
X351750Y226327D01*
Y228333D01*
X350983Y230185D01*
X349565Y231603D01*
X347713Y232370D01*
X345708D01*
X343855Y231603D01*
X343702Y231449D01*
X340096D01*
X337413Y234133D01*
X336540Y234716D01*
Y245260D01*
X332859D01*
Y253600D01*
X337540D01*
Y272180D01*
X332859D01*
Y280270D01*
X337540D01*
Y298850D01*
D02*
G37*
G36*
X693600Y334950D02*
X671520D01*
Y323520D01*
X671520Y322470D01*
X671520Y321200D01*
Y310820D01*
X671520Y309770D01*
X671520Y308500D01*
Y298120D01*
X671520Y297070D01*
X671520Y295800D01*
Y285420D01*
X671520Y284370D01*
X671520Y283100D01*
Y272720D01*
X671520Y271670D01*
X671520Y270400D01*
Y260020D01*
X671520Y258970D01*
X671520Y257700D01*
Y247320D01*
X671520Y246270D01*
X671520Y245000D01*
Y234620D01*
X671520Y233570D01*
X671520Y232300D01*
Y220870D01*
X693600D01*
Y232300D01*
X693600Y233350D01*
X693600Y234620D01*
Y245000D01*
X693600Y246050D01*
X693600Y247320D01*
Y257700D01*
X693600Y258750D01*
X693600Y260020D01*
Y270400D01*
X693600Y271450D01*
X693600Y272720D01*
Y283100D01*
X693600Y284150D01*
X693600Y285420D01*
Y295800D01*
X693600Y296850D01*
X693600Y298120D01*
Y308500D01*
X693600Y309550D01*
X693600Y310820D01*
Y321200D01*
X693600Y322250D01*
X693600Y323520D01*
Y334950D01*
D02*
G37*
G36*
X505770Y223920D02*
X489190D01*
Y211440D01*
X489178Y211432D01*
X487095Y209349D01*
X486118D01*
X485455Y210013D01*
X483602Y210780D01*
X481598D01*
X479745Y210013D01*
X478327Y208595D01*
X477560Y206742D01*
Y204737D01*
X478327Y202885D01*
X479745Y201467D01*
X481598Y200700D01*
X483602D01*
X485455Y201467D01*
X486118Y202131D01*
X488590D01*
X489971Y202405D01*
X491142Y203188D01*
X493294Y205340D01*
X505770D01*
Y223920D01*
D02*
G37*
G36*
X993600Y334950D02*
X971520D01*
Y323520D01*
X971520Y322470D01*
X971520Y321122D01*
X970622Y320224D01*
X961954D01*
X961705Y320473D01*
X959853Y321240D01*
X957848D01*
X955995Y320473D01*
X954577Y319055D01*
X953810Y317202D01*
Y315198D01*
X954577Y313345D01*
X955995Y311927D01*
X957848Y311160D01*
X959853D01*
X961705Y311927D01*
X961764Y311986D01*
X970622D01*
X971520Y311088D01*
X971520Y309770D01*
X971520Y308422D01*
X970622Y307524D01*
X950524D01*
X950275Y307773D01*
X948422Y308540D01*
X946417D01*
X944565Y307773D01*
X943147Y306355D01*
X942380Y304503D01*
Y302498D01*
X943147Y300645D01*
X944565Y299227D01*
X946417Y298460D01*
X948422D01*
X950275Y299227D01*
X950333Y299286D01*
X970622D01*
X971520Y298388D01*
X971520Y297070D01*
X971520Y295722D01*
X970622Y294824D01*
X961954D01*
X961705Y295073D01*
X959853Y295840D01*
X957848D01*
X955995Y295073D01*
X954577Y293655D01*
X953810Y291803D01*
Y289797D01*
X954577Y287945D01*
X955995Y286527D01*
X957848Y285760D01*
X959853D01*
X961705Y286527D01*
X961764Y286586D01*
X970622D01*
X971520Y285688D01*
X971520Y284370D01*
X971520Y283022D01*
X970622Y282124D01*
X947983D01*
X947735Y282373D01*
X945882Y283140D01*
X943877D01*
X942025Y282373D01*
X940607Y280955D01*
X939840Y279102D01*
Y277097D01*
X940607Y275245D01*
X942025Y273827D01*
X943877Y273060D01*
X945882D01*
X947735Y273827D01*
X947794Y273886D01*
X970622D01*
X971520Y272988D01*
X971520Y271670D01*
X971520Y270322D01*
X970622Y269424D01*
X960684D01*
X960435Y269673D01*
X958583Y270440D01*
X956578D01*
X954725Y269673D01*
X953307Y268255D01*
X952540Y266402D01*
Y264398D01*
X953307Y262545D01*
X954725Y261127D01*
X956578Y260360D01*
X958583D01*
X960435Y261127D01*
X960493Y261186D01*
X970622D01*
X971520Y260288D01*
X971520Y258970D01*
X971520Y257622D01*
X970622Y256724D01*
X946713D01*
X946465Y256973D01*
X944613Y257740D01*
X942607D01*
X940755Y256973D01*
X939337Y255555D01*
X938570Y253703D01*
Y251698D01*
X939337Y249845D01*
X940755Y248427D01*
X942607Y247660D01*
X944613D01*
X946465Y248427D01*
X946524Y248486D01*
X970622D01*
X971520Y247588D01*
X971520Y246270D01*
X971520Y245000D01*
Y234620D01*
X971520Y233570D01*
X971520Y232300D01*
Y221920D01*
X971520Y220870D01*
X971520Y219522D01*
X970622Y218624D01*
X964493D01*
X964245Y218873D01*
X962393Y219640D01*
X960387D01*
X958535Y218873D01*
X957117Y217455D01*
X956350Y215602D01*
Y213598D01*
X957117Y211745D01*
X958535Y210327D01*
X960387Y209560D01*
X962393D01*
X964245Y210327D01*
X964304Y210386D01*
X970622D01*
X971520Y209488D01*
X971520Y208170D01*
X971520Y206822D01*
X970622Y205924D01*
X950524D01*
X950275Y206173D01*
X948422Y206940D01*
X946417D01*
X944565Y206173D01*
X943147Y204755D01*
X942380Y202903D01*
Y200898D01*
X943147Y199045D01*
X944565Y197627D01*
X946417Y196860D01*
X948422D01*
X950275Y197627D01*
X950333Y197686D01*
X970622D01*
X971520Y196788D01*
X971520Y195470D01*
X971520Y194122D01*
X970622Y193224D01*
X960566D01*
X958990Y192911D01*
X957654Y192018D01*
X955251Y189615D01*
X954493D01*
X952641Y188848D01*
X951223Y187430D01*
X950455Y185578D01*
Y183573D01*
X951223Y181721D01*
X952641Y180303D01*
X954493Y179536D01*
X956498D01*
X958351Y180303D01*
X959768Y181721D01*
X960306Y183020D01*
X962272Y184986D01*
X970622D01*
X971520Y184088D01*
X971520Y182770D01*
X971520Y181500D01*
Y171120D01*
X971520Y170070D01*
X971520Y168800D01*
Y157370D01*
X993600D01*
Y168800D01*
X993600Y169850D01*
X993600Y171120D01*
Y181500D01*
X993600Y182550D01*
X993600Y183820D01*
Y194200D01*
X993600Y195250D01*
X993600Y196520D01*
Y206900D01*
X993600Y207950D01*
X993600Y209220D01*
Y219600D01*
X993600Y220650D01*
X993600Y221920D01*
Y232300D01*
X993600Y233350D01*
X993600Y234620D01*
Y245000D01*
X993600Y246050D01*
X993600Y247320D01*
Y257700D01*
X993600Y258750D01*
X993600Y260020D01*
Y270400D01*
X993600Y271450D01*
X993600Y272720D01*
Y283100D01*
X993600Y284150D01*
X993600Y285420D01*
Y295800D01*
X993600Y296850D01*
X993600Y298120D01*
Y308500D01*
X993600Y309550D01*
X993600Y310820D01*
Y321200D01*
X993600Y322250D01*
X993600Y323520D01*
Y334950D01*
D02*
G37*
G36*
X1034600Y322250D02*
X1012520D01*
Y310820D01*
X1012520Y309770D01*
X1012520Y308500D01*
Y298120D01*
X1012520Y297070D01*
X1012520Y295800D01*
Y285420D01*
X1012520Y284370D01*
X1012520Y283100D01*
Y272720D01*
X1012520Y271670D01*
X1012520Y270400D01*
Y260020D01*
X1012520Y258970D01*
X1012520Y257700D01*
Y247320D01*
X1012520Y246270D01*
X1012520Y245000D01*
Y234620D01*
X1012520Y233570D01*
X1012520Y232300D01*
Y221920D01*
X1012520Y220870D01*
X1012520Y219600D01*
Y209220D01*
X1012520Y208170D01*
X1012520Y206900D01*
Y196520D01*
X1012520Y195470D01*
X1012520Y194200D01*
Y183820D01*
X1012520Y182770D01*
X1012520Y181500D01*
Y171120D01*
X1012520Y170070D01*
X1012520Y168800D01*
Y157370D01*
X1034600D01*
Y168800D01*
X1034600Y169850D01*
X1034600Y171120D01*
X1034600Y182973D01*
X1035498Y183871D01*
X1046260D01*
Y183867D01*
X1048312Y184275D01*
X1049330Y184955D01*
X1049335Y184957D01*
X1049338Y184961D01*
X1050052Y185438D01*
X1050529Y186152D01*
X1050753Y186375D01*
X1050874Y186667D01*
X1051215Y187178D01*
X1051335Y187780D01*
X1051520Y188228D01*
X1051623Y189230D01*
X1051619D01*
X1051520Y189726D01*
Y190233D01*
X1051326Y190700D01*
X1051228Y191196D01*
X1050946Y191617D01*
X1050753Y192085D01*
X1050395Y192443D01*
X1050114Y192864D01*
X1049693Y193145D01*
X1049335Y193503D01*
X1048867Y193696D01*
X1048447Y193978D01*
X1047950Y194076D01*
X1047483Y194270D01*
X1047445D01*
X1046834Y194298D01*
X1046570Y194351D01*
X1046480Y194369D01*
X1046260Y194549D01*
X1046260Y194585D01*
D01*
X1045823Y194409D01*
X1045208Y194211D01*
X1045133Y194195D01*
X1044463Y194164D01*
X1043817Y194149D01*
X1035498D01*
X1034600Y195047D01*
X1034600Y196520D01*
Y206900D01*
X1034600Y207950D01*
X1034600Y209220D01*
Y219600D01*
X1034600Y220650D01*
X1034600Y221920D01*
Y232300D01*
X1034600Y233350D01*
X1034600Y234620D01*
Y245000D01*
X1034600Y246050D01*
X1034600Y247320D01*
Y257700D01*
X1034600Y258750D01*
X1034600Y260020D01*
Y270400D01*
X1034600Y271450D01*
X1034600Y272720D01*
Y283100D01*
X1034600Y284150D01*
X1034600Y285420D01*
Y295800D01*
X1034600Y296850D01*
X1034600Y298120D01*
Y308500D01*
X1034600Y309550D01*
X1034600Y310820D01*
Y322250D01*
D02*
G37*
G36*
X935990Y74996D02*
X934987Y74890D01*
X934794Y74810D01*
X934554Y74711D01*
X933875Y74576D01*
X933299Y74191D01*
X933135Y74123D01*
X933009Y73997D01*
X932082Y73378D01*
X930884Y71585D01*
X930464Y69470D01*
X930471D01*
Y67598D01*
X929573Y66700D01*
X928100Y66700D01*
X917720D01*
X916670Y66700D01*
X915400Y66700D01*
X905020D01*
X903970Y66700D01*
X902700Y66700D01*
X892320D01*
X891270Y66700D01*
X890000Y66700D01*
X879620D01*
X878570Y66700D01*
X877300Y66700D01*
X866920D01*
X865870Y66700D01*
X864600Y66700D01*
X854220D01*
X853170Y66700D01*
X851900Y66700D01*
X841520D01*
X840470Y66700D01*
X839200Y66700D01*
X828820D01*
X827770Y66700D01*
X826500Y66700D01*
X816120D01*
X815070Y66700D01*
X813800Y66700D01*
X803420D01*
X802370Y66700D01*
X801100Y66700D01*
X790720D01*
X789670Y66700D01*
X788400Y66700D01*
X776970D01*
Y44620D01*
X788400D01*
X789450Y44620D01*
X790720Y44620D01*
X801100D01*
X802150Y44620D01*
X803420Y44620D01*
X813800D01*
X814850Y44620D01*
X816120Y44620D01*
X826500D01*
X827550Y44620D01*
X828820Y44620D01*
X839200D01*
X840250Y44620D01*
X841520Y44620D01*
X851900D01*
X852950Y44620D01*
X854220Y44620D01*
X864600D01*
X865650Y44620D01*
X866920Y44620D01*
X877300D01*
X878350Y44620D01*
X879620Y44620D01*
X890000D01*
X891050Y44620D01*
X892320Y44620D01*
X902700D01*
X903750Y44620D01*
X905020Y44620D01*
X915400D01*
X916450Y44620D01*
X917720Y44620D01*
X928100D01*
X929150Y44620D01*
X930420Y44620D01*
X941850D01*
Y66700D01*
X940749D01*
Y67940D01*
X940829Y68342D01*
X940851Y68416D01*
X941030Y68847D01*
X941171Y69470D01*
X941129Y69850D01*
X941030Y70346D01*
Y70852D01*
X940836Y71320D01*
X940738Y71817D01*
X940456Y72237D01*
X940263Y72705D01*
X939905Y73063D01*
X939624Y73484D01*
X939203Y73765D01*
X938845Y74123D01*
X938377Y74316D01*
X937956Y74598D01*
X937460Y74696D01*
X936992Y74890D01*
X936486D01*
X935990Y74989D01*
Y74996D01*
D02*
G37*
G36*
X770510Y60799D02*
X768543Y60408D01*
X766876Y59294D01*
X765762Y57627D01*
X765371Y55660D01*
Y41020D01*
X765762Y39053D01*
X766876Y37386D01*
X768543Y36272D01*
X770510Y35881D01*
X772477Y36272D01*
X774144Y37386D01*
X775258Y39053D01*
X775649Y41020D01*
Y55660D01*
X775258Y57627D01*
X774144Y59294D01*
X772477Y60408D01*
X770510Y60799D01*
D02*
G37*
%LPD*%
D11*
X329540Y151130D02*
Y205450D01*
X821310Y96660D02*
X822960Y98310D01*
X327980Y322580D02*
Y373380D01*
X328020Y100330D02*
Y121920D01*
X328790Y122690D01*
X429620Y35560D02*
Y93980D01*
X306662Y127318D02*
X309520Y124460D01*
X491730Y208880D02*
X492730D01*
X482600Y205740D02*
X488590D01*
X497480Y213630D02*
Y214630D01*
X492730Y208880D02*
X497480Y213630D01*
X488590Y205740D02*
X491730Y208880D01*
X328020Y99330D02*
X340970Y86380D01*
X328020Y99330D02*
Y100330D01*
X340970Y76200D02*
Y86380D01*
X329250Y205740D02*
X329540Y205450D01*
X329250Y262890D02*
Y289560D01*
Y236470D02*
Y262890D01*
Y236470D02*
X329500Y236220D01*
X490750Y309000D02*
Y310000D01*
X479052Y304250D02*
X486000D01*
X476250Y302260D02*
X477062D01*
X486000Y304250D02*
X490750Y309000D01*
X477062Y302260D02*
X479052Y304250D01*
X490750Y339000D02*
Y340000D01*
X476824Y328234D02*
X479984D01*
X490750Y339000D01*
X476250Y327660D02*
X476824Y328234D01*
X486510Y365760D02*
X490750Y370000D01*
X480060Y365760D02*
X486510D01*
X411120Y92980D02*
Y93980D01*
X481952Y250000D02*
X490750D01*
X479602Y247650D02*
X481952Y250000D01*
X478790Y247650D02*
X479602D01*
X477520Y274320D02*
X486000D01*
X490750Y279070D02*
Y280000D01*
X486000Y274320D02*
X490750Y279070D01*
D12*
X733733Y270170D02*
X734160D01*
X736100Y272110D01*
X723560Y265210D02*
X725760Y267410D01*
X730973D01*
X733733Y270170D01*
X736100Y272110D02*
Y334083D01*
X723560Y252510D02*
X725760Y254710D01*
X741640Y262850D02*
Y336378D01*
X725760Y254710D02*
X733500D01*
X741640Y262850D01*
X723560Y239810D02*
X725760Y242010D01*
X732230D01*
X747180Y256960D01*
Y338673D01*
X725760Y229310D02*
X732230D01*
X723560Y227110D02*
X725760Y229310D01*
X732230D02*
X752720Y249800D01*
Y340968D01*
X758260Y242640D02*
Y347910D01*
X725760Y216610D02*
X732230D01*
X723560Y214410D02*
X725760Y216610D01*
X732230D02*
X758260Y242640D01*
X935610Y96660D02*
X1160080D01*
X1283700Y220280D01*
X1156970Y118110D02*
X1272555Y233695D01*
X939146Y118110D02*
X1156970D01*
X868717Y348440D02*
X1257055D01*
X861557Y342900D02*
X1254760D01*
X366270Y112400D02*
X568330D01*
X577850Y121920D02*
X801263D01*
X568330Y112400D02*
X577850Y121920D01*
X329540Y149130D02*
X366270Y112400D01*
X782703Y84203D02*
Y96153D01*
X783210Y96660D01*
X782320Y83820D02*
X782703Y84203D01*
X832543Y77280D02*
X841750Y86487D01*
X577151Y77280D02*
X832543D01*
X548211Y106220D02*
X577151Y77280D01*
X795020Y112489D02*
Y113030D01*
X795910Y96660D02*
Y111599D01*
X795020Y112489D02*
X795910Y111599D01*
X756920Y143320D02*
Y158829D01*
X752044Y163705D02*
X756920Y158829D01*
X551520Y127810D02*
X808073D01*
X834010Y91860D02*
Y96660D01*
X517500Y163830D02*
Y213110D01*
X515980Y214630D02*
X516100Y214750D01*
X801263Y121920D02*
X816350Y106833D01*
X334500Y231220D02*
X338390Y227330D01*
X346710D01*
X329500Y234220D02*
Y236220D01*
Y234220D02*
X332500Y231220D01*
X334500D01*
X339297Y310263D02*
X345057D01*
X345440Y309880D01*
X327980Y321580D02*
Y322580D01*
Y321580D02*
X339297Y310263D01*
X345260Y106220D02*
X548211D01*
X517500Y161830D02*
X551520Y127810D01*
X328790Y122690D02*
X345260Y106220D01*
X509250Y250362D02*
Y251000D01*
X429500Y123440D02*
Y148590D01*
X429250Y123190D02*
X429500Y123440D01*
X138520Y194400D02*
X208190D01*
X236220Y129540D02*
Y166370D01*
X208190Y194400D02*
X236220Y166370D01*
X301370Y64390D02*
X382530D01*
X236220Y129540D02*
X301370Y64390D01*
X114000Y159720D02*
Y169880D01*
X138520Y194400D01*
X81500Y127220D02*
X114000Y159720D01*
X81500Y124790D02*
Y127220D01*
X382530Y64390D02*
X411120Y92980D01*
X328020Y123460D02*
X328790Y122690D01*
X328020Y123460D02*
Y124460D01*
X841750Y86487D02*
Y86900D01*
X846710Y91860D01*
Y96660D01*
X816350Y106420D02*
Y106833D01*
X329540Y149130D02*
Y151130D01*
X821310Y96660D02*
Y101460D01*
X816350Y106420D02*
X821310Y101460D01*
X808073Y127810D02*
X829050Y106833D01*
X517500Y161830D02*
Y163830D01*
X829050Y106420D02*
Y106833D01*
Y106420D02*
X834010Y101460D01*
Y96660D02*
Y101460D01*
X228600Y200660D02*
X301942Y127318D01*
X132370Y200660D02*
X228600D01*
X301942Y127318D02*
X306662D01*
X429500Y201930D02*
X436880D01*
X450850Y215900D02*
Y238760D01*
X436880Y201930D02*
X450850Y215900D01*
X444500Y148590D02*
X459740Y163830D01*
Y214630D01*
X429500Y148590D02*
X444500D01*
X459740Y214630D02*
X481697Y236587D01*
X429500Y176780D02*
Y201930D01*
X450850Y238760D02*
X478677Y266587D01*
X515980Y214630D02*
X517500Y213110D01*
X81500Y199790D02*
X100150Y218440D01*
X298050D02*
X310750Y205740D01*
X100150Y218440D02*
X298050D01*
X81500Y149790D02*
X132370Y200660D01*
X243840Y243840D02*
X289560Y289560D01*
X100550Y243840D02*
X243840D01*
X289560Y289560D02*
X310750D01*
X81500Y249790D02*
X236690D01*
X309480Y322580D01*
X81500Y224790D02*
X100550Y243840D01*
X478677Y266587D02*
X496837D01*
X439420Y254000D02*
X482600Y297180D01*
X497430D01*
X429500Y254000D02*
X439420D01*
X429500Y356870D02*
X497120D01*
X509250Y369000D01*
X478790Y389890D02*
X481640D01*
X490750Y399000D02*
Y400000D01*
X481640Y389890D02*
X490750Y399000D01*
X481697Y236587D02*
X496837D01*
X497430Y297180D02*
X509250Y309000D01*
X429500Y306070D02*
X449580D01*
X464300Y320790D02*
X491040D01*
X449580Y306070D02*
X464300Y320790D01*
X509250Y369000D02*
Y370000D01*
X434500Y411400D02*
X437120Y414020D01*
X496230D01*
X429500Y406400D02*
Y408400D01*
X432500Y411400D01*
X434500D01*
X496230Y414020D02*
X509250Y401000D01*
Y400000D02*
Y401000D01*
Y339000D02*
Y340000D01*
X491040Y320790D02*
X509250Y339000D01*
Y309000D02*
Y310000D01*
Y279000D02*
Y280000D01*
X496837Y266587D02*
X509250Y279000D01*
X496837Y236587D02*
X509250Y249000D01*
Y250000D01*
X429250Y176530D02*
X429500Y176780D01*
X429250Y253750D02*
X429500Y254000D01*
X429250Y229870D02*
Y253750D01*
Y281940D02*
X429500Y282190D01*
Y306070D01*
X429250Y332740D02*
X429500Y332990D01*
Y356870D01*
X429250Y381000D02*
X429500Y381250D01*
Y406400D01*
X424360Y128440D02*
X425360D01*
X509250Y250000D02*
Y250362D01*
Y370000D02*
Y371000D01*
X622300Y359410D02*
X710773D01*
X513500Y254612D02*
X517502D01*
X509250Y250362D02*
X513500Y254612D01*
X517502D02*
X622300Y359410D01*
X710773D02*
X736100Y334083D01*
X518760Y280000D02*
X607060Y368300D01*
X709718D02*
X741640Y336378D01*
X607060Y368300D02*
X709718D01*
X708663Y377190D02*
X747180Y338673D01*
X520820Y310000D02*
X588010Y377190D01*
X708663D01*
X563880Y387350D02*
X706338D01*
X752720Y340968D01*
X517743Y341213D02*
X563880Y387350D01*
X711860Y402590D02*
X763800Y350650D01*
X509250Y400000D02*
X511840Y402590D01*
X711860D01*
X513500Y375250D02*
X522570D01*
X543560Y396240D02*
X709930D01*
X522570Y375250D02*
X543560Y396240D01*
X509250Y340000D02*
X510463Y341213D01*
X517743D01*
X509250Y310000D02*
X520820D01*
X509250Y280000D02*
X518760D01*
X509250Y371000D02*
X513500Y375250D01*
X709930Y396240D02*
X758260Y347910D01*
X763800Y236737D02*
Y350650D01*
X733733Y206670D02*
X763800Y236737D01*
X733320Y206670D02*
X733733D01*
X728360Y201710D02*
X733320Y206670D01*
X723560Y201710D02*
X728360D01*
X735907Y133350D02*
X1153160D01*
X1182370Y162560D01*
X723655Y163705D02*
X752044D01*
X1254760Y342900D02*
X1358700Y238960D01*
X1263505Y341990D02*
X1383700Y221795D01*
X1358700Y220280D02*
Y238960D01*
X1383700Y220280D02*
Y221795D01*
X705647Y163610D02*
X735907Y133350D01*
X682560Y163610D02*
X705647D01*
X1272555Y233695D02*
X1295285D01*
X1308700Y220280D01*
X851670Y365487D02*
X868717Y348440D01*
X838970Y365487D02*
X861557Y342900D01*
X1257055Y348440D02*
X1263505Y341990D01*
X838970Y365487D02*
Y365900D01*
X834010Y370860D02*
X838970Y365900D01*
X834010Y370860D02*
Y375660D01*
X851670Y365487D02*
Y365900D01*
X846710Y370860D02*
X851670Y365900D01*
X846710Y370860D02*
Y375660D01*
X960566Y189105D02*
X982465D01*
X955496Y184576D02*
X956037D01*
X960566Y189105D01*
X982465D02*
X982560Y189010D01*
X927870Y106833D02*
X939146Y118110D01*
X927870Y106420D02*
Y106833D01*
X922910Y101460D02*
X927870Y106420D01*
X922910Y96660D02*
Y101460D01*
X682465Y176405D02*
X682560Y176310D01*
X723560Y163610D02*
X723655Y163705D01*
X947420Y201900D02*
X947515Y201805D01*
X947420Y303500D02*
X947515Y303405D01*
X958850Y290800D02*
X958945Y290705D01*
X958850Y316200D02*
X958945Y316105D01*
X982465Y303405D02*
X982560Y303310D01*
X958945Y316105D02*
X982465D01*
Y290705D02*
X982560Y290610D01*
X982465Y316105D02*
X982560Y316010D01*
X947515Y303405D02*
X982465D01*
X958945Y290705D02*
X982465D01*
X961485Y214505D02*
X982465D01*
X947515Y201805D02*
X982465D01*
X982560Y201710D01*
X961390Y214600D02*
X961485Y214505D01*
X982465D02*
X982560Y214410D01*
X944975Y278005D02*
X982465D01*
Y252605D02*
X982560Y252510D01*
X982465Y278005D02*
X982560Y277910D01*
X957675Y265305D02*
X982465D01*
X957580Y265400D02*
X957675Y265305D01*
X982465D02*
X982560Y265210D01*
X943705Y252605D02*
X982465D01*
X723560Y201710D02*
X723655Y201805D01*
X660400Y176500D02*
X660495Y176405D01*
X682465D01*
X943610Y252700D02*
X943705Y252605D01*
X944880Y278100D02*
X944975Y278005D01*
D13*
X327980Y322580D02*
D03*
X309480D02*
D03*
X327980Y373380D02*
D03*
X309480D02*
D03*
X329250Y289560D02*
D03*
X310750D02*
D03*
X329250Y262890D02*
D03*
X310750D02*
D03*
X309520Y100330D02*
D03*
X328020D02*
D03*
X310790Y177800D02*
D03*
X329290D02*
D03*
X498750Y190500D02*
D03*
X517250D02*
D03*
X329250Y205740D02*
D03*
X310750D02*
D03*
X515980Y214630D02*
D03*
X497480D02*
D03*
X328020Y124460D02*
D03*
X309520D02*
D03*
X429620Y35560D02*
D03*
X411120D02*
D03*
X429250Y123190D02*
D03*
X410750D02*
D03*
X429250Y176530D02*
D03*
X410750D02*
D03*
X429250Y229870D02*
D03*
X410750D02*
D03*
X429250Y281940D02*
D03*
X410750D02*
D03*
X429250Y332740D02*
D03*
X410750D02*
D03*
X429250Y381000D02*
D03*
X410750D02*
D03*
X411120Y93980D02*
D03*
X429620D02*
D03*
X490750Y340000D02*
D03*
X509250D02*
D03*
X490750Y370000D02*
D03*
X509250D02*
D03*
X490750Y280000D02*
D03*
X509250D02*
D03*
X490750Y310000D02*
D03*
X509250D02*
D03*
X490750Y250000D02*
D03*
X509250D02*
D03*
X490750Y400000D02*
D03*
X509250D02*
D03*
D14*
X328230Y346710D02*
D03*
X309230D02*
D03*
X329500Y236220D02*
D03*
X310500D02*
D03*
X340970Y74930D02*
D03*
X321970D02*
D03*
X329540Y151130D02*
D03*
X310540D02*
D03*
X517500Y163830D02*
D03*
X498500D02*
D03*
X429870Y63500D02*
D03*
X410870D02*
D03*
X429500Y148590D02*
D03*
X410500D02*
D03*
X429500Y201930D02*
D03*
X410500D02*
D03*
X429500Y254000D02*
D03*
X410500D02*
D03*
X429500Y306070D02*
D03*
X410500D02*
D03*
X429500Y356870D02*
D03*
X410500D02*
D03*
X429500Y406400D02*
D03*
X410500D02*
D03*
D15*
X872110Y96660D02*
D03*
X859410D02*
D03*
X872110Y55660D02*
D03*
X859410D02*
D03*
X846710Y96660D02*
D03*
Y55660D02*
D03*
X808610Y96660D02*
D03*
Y55660D02*
D03*
X770510Y96660D02*
D03*
Y55660D02*
D03*
X783210D02*
D03*
X795910D02*
D03*
X783210Y96660D02*
D03*
X795910D02*
D03*
X821310Y55660D02*
D03*
X834010D02*
D03*
X821310Y96660D02*
D03*
X834010D02*
D03*
X884810Y55660D02*
D03*
X897510D02*
D03*
X910210D02*
D03*
X922910D02*
D03*
X935610D02*
D03*
X884810Y96660D02*
D03*
X897510D02*
D03*
X910210D02*
D03*
X922910D02*
D03*
X935610D02*
D03*
X872110Y416660D02*
D03*
X859410D02*
D03*
X872110Y375660D02*
D03*
X859410D02*
D03*
X846710Y416660D02*
D03*
Y375660D02*
D03*
X808610Y416660D02*
D03*
Y375660D02*
D03*
X770510Y416660D02*
D03*
Y375660D02*
D03*
X783210D02*
D03*
X795910D02*
D03*
X783210Y416660D02*
D03*
X795910D02*
D03*
X821310Y375660D02*
D03*
X834010D02*
D03*
X821310Y416660D02*
D03*
X834010D02*
D03*
X884810Y375660D02*
D03*
X897510D02*
D03*
X910210D02*
D03*
X922910D02*
D03*
X935610D02*
D03*
X884810Y416660D02*
D03*
X897510D02*
D03*
X910210D02*
D03*
X922910D02*
D03*
X935610D02*
D03*
D16*
X682560Y265210D02*
D03*
Y252510D02*
D03*
X723560Y265210D02*
D03*
Y252510D02*
D03*
X682560Y239810D02*
D03*
X723560D02*
D03*
X682560Y201710D02*
D03*
X723560D02*
D03*
X682560Y163610D02*
D03*
X723560D02*
D03*
Y176310D02*
D03*
Y189010D02*
D03*
X682560Y176310D02*
D03*
Y189010D02*
D03*
X723560Y214410D02*
D03*
Y227110D02*
D03*
X682560Y214410D02*
D03*
Y227110D02*
D03*
X723560Y277910D02*
D03*
Y290610D02*
D03*
Y303310D02*
D03*
Y316010D02*
D03*
Y328710D02*
D03*
X682560Y277910D02*
D03*
Y290610D02*
D03*
Y303310D02*
D03*
Y316010D02*
D03*
Y328710D02*
D03*
X1023560Y227110D02*
D03*
Y239810D02*
D03*
X982560Y227110D02*
D03*
Y239810D02*
D03*
X1023560Y252510D02*
D03*
X982560D02*
D03*
X1023560Y290610D02*
D03*
X982560D02*
D03*
X1023560Y328710D02*
D03*
X982560D02*
D03*
Y316010D02*
D03*
Y303310D02*
D03*
X1023560Y316010D02*
D03*
Y303310D02*
D03*
X982560Y277910D02*
D03*
Y265210D02*
D03*
X1023560Y277910D02*
D03*
Y265210D02*
D03*
X982560Y214410D02*
D03*
Y201710D02*
D03*
Y189010D02*
D03*
Y176310D02*
D03*
Y163610D02*
D03*
X1023560Y214410D02*
D03*
Y201710D02*
D03*
Y189010D02*
D03*
Y176310D02*
D03*
Y163610D02*
D03*
D17*
X177090Y119380D02*
D03*
X148590D02*
D03*
X178080Y181610D02*
D03*
X149580D02*
D03*
X178080Y152400D02*
D03*
X149580D02*
D03*
X162280Y421640D02*
D03*
X190780D02*
D03*
X162280Y391160D02*
D03*
X190780D02*
D03*
X162280Y360680D02*
D03*
X190780D02*
D03*
D29*
X699550Y201710D02*
G03*
X699770Y201930I0J220D01*
G01*
X935990Y69850D02*
G03*
X935610Y69470I0J-380D01*
G01*
X1046260Y189010D02*
G03*
X1046480Y189230I0J220D01*
G01*
X1279890Y383840D02*
G03*
X1271300Y392430I-8590J0D01*
G01*
X821310Y416660D02*
G03*
X845540Y392430I24230J0D01*
G01*
X177090Y119380D02*
G03*
X177800Y120090I0J710D01*
G01*
X774700Y396240D02*
G03*
X783210Y404750I0J8510D01*
G01*
X191770Y416560D02*
G03*
X190780Y415570I0J-990D01*
G01*
X910590Y416560D02*
Y416660D01*
X922910D02*
X935610D01*
X910590D02*
X922910D01*
X682560Y201710D02*
X699550D01*
X770510Y41020D02*
Y55660D01*
X682560Y189010D02*
Y201710D01*
X935610Y55660D02*
Y69470D01*
X1023560Y189010D02*
X1046260D01*
X845540Y392430D02*
X1271300D01*
X808610Y416660D02*
X821310D01*
X177800Y120090D02*
Y182880D01*
X783210Y404750D02*
Y416660D01*
X795910D02*
X808610D01*
X783210D02*
X795910D01*
X190780Y391160D02*
Y415570D01*
Y360680D02*
Y391160D01*
X159342Y363618D02*
X162280Y360680D01*
X139700Y391160D02*
Y407006D01*
X159342Y363618D02*
Y371518D01*
X139700Y391160D02*
X159342Y371518D01*
X112366Y434340D02*
X139700Y407006D01*
X118110Y441960D02*
X158916Y401154D01*
Y394524D02*
X162280Y391160D01*
X158916Y394524D02*
Y401154D01*
X98120Y434340D02*
X112366D01*
X82550Y418770D02*
X98120Y434340D01*
X85354Y441960D02*
X118110D01*
X68135Y424741D02*
X85354Y441960D01*
X159062Y424858D02*
X162280Y421640D01*
X124460Y452120D02*
X151722Y424858D01*
X84851Y452120D02*
X124460D01*
X151722Y424858D02*
X159062D01*
X60595Y427864D02*
X84851Y452120D01*
X60595Y390725D02*
X82550Y368770D01*
X60595Y390725D02*
Y427864D01*
X68135Y408185D02*
Y424741D01*
Y408185D02*
X82550Y393770D01*
X42085Y115395D02*
X54645Y102835D01*
X42085Y115395D02*
Y135375D01*
X54645Y102835D02*
X105375D01*
X48215Y95295D02*
X120695D01*
X34545Y108965D02*
Y152835D01*
Y108965D02*
X48215Y95295D01*
X116843Y129543D02*
Y146053D01*
X149580Y178790D02*
Y181610D01*
X116843Y146053D02*
X149580Y178790D01*
X97675Y110375D02*
X116843Y129543D01*
X70915Y110375D02*
X97675D01*
X105375Y102835D02*
X146216Y143676D01*
Y149036D02*
X149580Y152400D01*
X146216Y143676D02*
Y149036D01*
X148590Y118099D02*
Y119380D01*
X139797Y114397D02*
X144888D01*
X120695Y95295D02*
X139797Y114397D01*
X144888D02*
X148590Y118099D01*
X34545Y152835D02*
X56500Y174790D01*
X42085Y135375D02*
X56500Y149790D01*
Y124790D02*
X70915Y110375D01*
X190780Y421640D02*
Y423802D01*
D30*
X82550Y418770D02*
D03*
Y393770D02*
D03*
Y368770D02*
D03*
Y343770D02*
D03*
Y318770D02*
D03*
Y293770D02*
D03*
X107550Y418770D02*
D03*
Y393770D02*
D03*
Y368770D02*
D03*
Y343770D02*
D03*
Y318770D02*
D03*
Y293770D02*
D03*
X1283700Y195280D02*
D03*
X1308700D02*
D03*
X1333700D02*
D03*
X1358700D02*
D03*
X1383700D02*
D03*
X1408700D02*
D03*
X1283700Y220280D02*
D03*
X1308700D02*
D03*
X1333700D02*
D03*
X1358700D02*
D03*
X1383700D02*
D03*
X1408700D02*
D03*
X1404890Y383840D02*
D03*
X1379890D02*
D03*
X1354890D02*
D03*
X1329890D02*
D03*
X1304890D02*
D03*
X1279890D02*
D03*
X1404890Y358840D02*
D03*
X1379890D02*
D03*
X1354890D02*
D03*
X1329890D02*
D03*
X1304890D02*
D03*
X1279890D02*
D03*
X56500Y249790D02*
D03*
Y224790D02*
D03*
Y199790D02*
D03*
Y174790D02*
D03*
Y149790D02*
D03*
Y124790D02*
D03*
X81500Y249790D02*
D03*
Y224790D02*
D03*
Y199790D02*
D03*
Y174790D02*
D03*
Y149790D02*
D03*
Y124790D02*
D03*
D31*
X69150Y356270D02*
D03*
X1346200Y233680D02*
D03*
X1342390Y345440D02*
D03*
X94900Y187290D02*
D03*
D32*
X1203060Y46160D02*
D03*
X553060Y496160D02*
D03*
X1203060D02*
D03*
X553060Y46160D02*
D03*
D33*
X50000Y50000D02*
D03*
X1450000Y500000D02*
D03*
Y50000D02*
D03*
X50000Y500000D02*
D03*
D34*
X13970Y196850D02*
D03*
X791210Y316230D02*
D03*
X699770Y201930D02*
D03*
X935990Y69850D02*
D03*
X1046480Y189230D02*
D03*
X185340Y135000D02*
D03*
X177800Y182880D02*
D03*
X185340Y315000D02*
D03*
X202500Y270000D02*
D03*
X225000Y315000D02*
D03*
X247500Y270000D02*
D03*
X270510Y308610D02*
D03*
X292500Y270000D02*
D03*
X315000Y225000D02*
D03*
X382500Y270000D02*
D03*
X391160Y265430D02*
D03*
X427500Y270000D02*
D03*
X540000Y315000D02*
D03*
X466090Y424100D02*
D03*
X396240D02*
D03*
X180000Y405000D02*
D03*
X225000D02*
D03*
X697500Y270000D02*
D03*
Y180000D02*
D03*
X675000Y135000D02*
D03*
X630000Y315000D02*
D03*
X652500Y270000D02*
D03*
X630000Y225000D02*
D03*
X652500Y180000D02*
D03*
X630000Y135000D02*
D03*
X607500Y270000D02*
D03*
X585000Y225000D02*
D03*
X607500Y180000D02*
D03*
X562500Y270000D02*
D03*
X540000Y225000D02*
D03*
X562500Y180000D02*
D03*
X495000Y135000D02*
D03*
X450000Y405000D02*
D03*
X472500Y180000D02*
D03*
X450000Y135000D02*
D03*
X472500Y90000D02*
D03*
X450000Y45000D02*
D03*
X405000Y135000D02*
D03*
X360000Y405000D02*
D03*
Y135000D02*
D03*
X382500Y90000D02*
D03*
X360000Y45000D02*
D03*
X315000Y405000D02*
D03*
X270000D02*
D03*
Y135000D02*
D03*
X292500Y90000D02*
D03*
X225000Y135000D02*
D03*
X247500Y90000D02*
D03*
X202500D02*
D03*
X157500Y270000D02*
D03*
Y90000D02*
D03*
X135000Y45000D02*
D03*
X112500Y270000D02*
D03*
X45000Y405000D02*
D03*
Y315000D02*
D03*
X67500Y270000D02*
D03*
X495300Y384810D02*
D03*
X458470Y364490D02*
D03*
X651510Y222250D02*
D03*
X462280Y328930D02*
D03*
X463550Y299720D02*
D03*
X468630Y270510D02*
D03*
X506730Y232410D02*
D03*
X468630Y201930D02*
D03*
X382270Y81280D02*
D03*
X281940Y133350D02*
D03*
X295910Y191770D02*
D03*
X782320Y83820D02*
D03*
X795020Y113030D02*
D03*
X756920Y143320D02*
D03*
X346710Y227330D02*
D03*
X345440Y309880D02*
D03*
X482600Y205740D02*
D03*
X476250Y302260D02*
D03*
Y327660D02*
D03*
X480060Y365760D02*
D03*
X478790Y247650D02*
D03*
X477520Y274320D02*
D03*
X478790Y389890D02*
D03*
X1182370Y162560D02*
D03*
X955496Y184576D02*
D03*
X958850Y316200D02*
D03*
Y290800D02*
D03*
X943610Y252700D02*
D03*
X947420Y303500D02*
D03*
X660400Y176500D02*
D03*
X947420Y201900D02*
D03*
X944880Y278100D02*
D03*
X961390Y214600D02*
D03*
X957580Y265400D02*
D03*
D35*
X770510Y41020D02*
D03*
X774700Y396240D02*
D03*
X191770Y416560D02*
D03*
X910590D02*
D03*
X1203060Y73660D02*
D03*
X1223060Y66160D02*
D03*
X1230560Y46160D02*
D03*
X1223060Y26160D02*
D03*
X1203060Y18660D02*
D03*
X1183060Y26160D02*
D03*
X1175560Y46160D02*
D03*
X1183060Y66160D02*
D03*
X52070Y79570D02*
D03*
X72070Y72070D02*
D03*
X79570Y52070D02*
D03*
X72070Y32070D02*
D03*
X52070Y24570D02*
D03*
X32070Y32070D02*
D03*
X24570Y52070D02*
D03*
X32070Y72070D02*
D03*
X553060Y523660D02*
D03*
X573060Y516160D02*
D03*
X580560Y496160D02*
D03*
X573060Y476160D02*
D03*
X553060Y468660D02*
D03*
X533060Y476160D02*
D03*
X525560Y496160D02*
D03*
X533060Y516160D02*
D03*
X1203060Y523660D02*
D03*
X1223060Y516160D02*
D03*
X1230560Y496160D02*
D03*
X1223060Y476160D02*
D03*
X1203060Y468660D02*
D03*
X1183060Y476160D02*
D03*
X1175560Y496160D02*
D03*
X1183060Y516160D02*
D03*
X553060Y73660D02*
D03*
X573060Y66160D02*
D03*
X580560Y46160D02*
D03*
X573060Y26160D02*
D03*
X553060Y18660D02*
D03*
X533060Y26160D02*
D03*
X525560Y46160D02*
D03*
X533060Y66160D02*
D03*
X1450000Y527500D02*
D03*
X1470000Y520000D02*
D03*
X1477500Y500000D02*
D03*
X1470000Y480000D02*
D03*
X1450000Y472500D02*
D03*
X1430000Y480000D02*
D03*
X1422500Y500000D02*
D03*
X1430000Y520000D02*
D03*
X1450000Y77500D02*
D03*
X1470000Y70000D02*
D03*
X1477500Y50000D02*
D03*
X1470000Y30000D02*
D03*
X1450000Y22500D02*
D03*
X1430000Y30000D02*
D03*
X1422500Y50000D02*
D03*
X1430000Y70000D02*
D03*
X50000Y527500D02*
D03*
X70000Y520000D02*
D03*
X77500Y500000D02*
D03*
X70000Y480000D02*
D03*
X50000Y472500D02*
D03*
X30000Y480000D02*
D03*
X22500Y500000D02*
D03*
X30000Y520000D02*
D03*
M02*
