G04*
G04 #@! TF.GenerationSoftware,Altium Limited,Altium Designer,24.0.1 (36)*
G04*
G04 Layer_Physical_Order=2*
G04 Layer_Color=36540*
%FSLAX44Y44*%
%MOMM*%
G71*
G04*
G04 #@! TF.SameCoordinates,E53704A2-476C-4EC1-AB42-F80F1AB54CDF*
G04*
G04*
G04 #@! TF.FilePolarity,Positive*
G04*
G01*
G75*
%ADD29C,0.5000*%
%ADD31C,1.8750*%
%ADD32C,0.6750*%
%ADD33C,7.0000*%
%ADD34C,8.0000*%
%ADD35C,0.5000*%
%ADD36C,0.7000*%
G36*
X1450000Y550000D02*
X1453277D01*
X1459775Y549144D01*
X1466106Y547448D01*
X1472162Y544940D01*
X1477838Y541663D01*
X1483038Y537673D01*
X1487673Y533038D01*
X1491663Y527838D01*
X1494940Y522162D01*
X1497448Y516106D01*
X1499144Y509775D01*
X1500000Y503277D01*
Y500000D01*
X1500000Y500000D01*
X1500000Y500000D01*
X1500000Y50000D01*
Y46723D01*
X1499144Y40224D01*
X1497448Y33893D01*
X1494940Y27838D01*
X1491663Y22162D01*
X1487673Y16962D01*
X1483038Y12327D01*
X1477838Y8337D01*
X1472162Y5060D01*
X1466106Y2552D01*
X1459775Y856D01*
X1453277Y0D01*
X1450000Y0D01*
X50000Y0D01*
X46723D01*
X40224Y856D01*
X33893Y2552D01*
X27838Y5060D01*
X22162Y8337D01*
X16962Y12327D01*
X12327Y16962D01*
X8337Y22162D01*
X5060Y27838D01*
X2552Y33893D01*
X856Y40224D01*
X0Y46723D01*
X0Y50000D01*
X0Y500000D01*
Y503277D01*
X856Y509775D01*
X2552Y516106D01*
X5060Y522162D01*
X8337Y527838D01*
X12327Y533038D01*
X16962Y537673D01*
X22162Y541663D01*
X27838Y544940D01*
X33893Y547448D01*
X40224Y549144D01*
X46723Y550000D01*
X50000D01*
X50000Y550000D01*
X1450000Y550000D01*
D02*
G37*
%LPC*%
G36*
X109119Y430685D02*
X105981D01*
X102951Y429873D01*
X100234Y428304D01*
X98016Y426086D01*
X96447Y423369D01*
X95674Y420485D01*
X95278Y420437D01*
X94822D01*
X94426Y420485D01*
X93653Y423369D01*
X92084Y426086D01*
X89866Y428304D01*
X87149Y429873D01*
X84119Y430685D01*
X80981D01*
X77951Y429873D01*
X75234Y428304D01*
X73016Y426086D01*
X71447Y423369D01*
X70635Y420339D01*
Y417201D01*
X71447Y414171D01*
X73016Y411454D01*
X75234Y409236D01*
X77951Y407667D01*
X80835Y406894D01*
X80883Y406498D01*
D01*
Y406042D01*
X80835Y405646D01*
X77951Y404873D01*
X75234Y403304D01*
X73016Y401086D01*
X71447Y398369D01*
X70635Y395339D01*
Y392201D01*
X71447Y389171D01*
X73016Y386454D01*
X75234Y384236D01*
X77951Y382667D01*
X80835Y381894D01*
X80883Y381498D01*
D01*
Y381042D01*
X80835Y380646D01*
X77951Y379873D01*
X75234Y378304D01*
X73016Y376086D01*
X71447Y373369D01*
X70635Y370339D01*
Y367201D01*
X71018Y365772D01*
X69961Y364810D01*
X68026D01*
X66399Y364374D01*
X65365Y363946D01*
X63906Y363104D01*
X62316Y361514D01*
X61474Y360055D01*
X61046Y359021D01*
X60610Y357394D01*
Y355146D01*
X61046Y353519D01*
X61474Y352485D01*
X62316Y351026D01*
X63906Y349436D01*
X65365Y348594D01*
X66399Y348166D01*
X68026Y347730D01*
X70274D01*
X71901Y348166D01*
X72935Y348594D01*
X74394Y349436D01*
X75984Y351026D01*
X76826Y352485D01*
X77254Y353519D01*
X77690Y355146D01*
Y356422D01*
D01*
X78959Y357397D01*
X78960Y357397D01*
D01*
X80981Y356855D01*
X84119D01*
X87149Y357667D01*
X89866Y359236D01*
X92084Y361454D01*
X93653Y364171D01*
X94426Y367055D01*
X94822Y367103D01*
X95278D01*
X95674Y367055D01*
X96447Y364171D01*
X98016Y361454D01*
X100234Y359236D01*
X102951Y357667D01*
X105835Y356894D01*
X105883Y356498D01*
Y356042D01*
X105835Y355646D01*
X102951Y354873D01*
X100234Y353304D01*
X98016Y351086D01*
X96447Y348369D01*
X95635Y345339D01*
Y342201D01*
X96447Y339171D01*
X98016Y336454D01*
X100234Y334236D01*
X102951Y332667D01*
X105835Y331894D01*
X105883Y331498D01*
D01*
Y331042D01*
X105835Y330646D01*
X102951Y329873D01*
X100234Y328304D01*
X98016Y326086D01*
X96447Y323369D01*
X95635Y320339D01*
Y317201D01*
X96447Y314171D01*
X98016Y311454D01*
X100234Y309236D01*
X102951Y307667D01*
X105835Y306894D01*
X105883Y306498D01*
Y306042D01*
X105835Y305646D01*
X102951Y304873D01*
X100234Y303304D01*
X98016Y301086D01*
X96447Y298369D01*
X95635Y295339D01*
Y292201D01*
X96447Y289171D01*
X98016Y286454D01*
X100234Y284236D01*
X102951Y282667D01*
X105981Y281855D01*
X109119D01*
X112149Y282667D01*
X114866Y284236D01*
X117084Y286454D01*
X118653Y289171D01*
X119465Y292201D01*
Y295339D01*
X118653Y298369D01*
X117084Y301086D01*
X114866Y303304D01*
X112149Y304873D01*
X109265Y305646D01*
X109217Y306042D01*
Y306498D01*
X109265Y306894D01*
X112149Y307667D01*
X114866Y309236D01*
X117084Y311454D01*
X118653Y314171D01*
X119465Y317201D01*
Y320339D01*
X118653Y323369D01*
X117084Y326086D01*
X114866Y328304D01*
X112149Y329873D01*
X109265Y330646D01*
D01*
X109217Y331042D01*
Y331498D01*
X109265Y331894D01*
X112149Y332667D01*
X114866Y334236D01*
X117084Y336454D01*
X118653Y339171D01*
X119465Y342201D01*
Y345339D01*
X118653Y348369D01*
X117084Y351086D01*
X114866Y353304D01*
X112149Y354873D01*
X109265Y355646D01*
X109217Y356042D01*
Y356498D01*
D01*
X109265Y356894D01*
X112149Y357667D01*
X114866Y359236D01*
X117084Y361454D01*
X118653Y364171D01*
X119465Y367201D01*
Y370339D01*
X118653Y373369D01*
X117084Y376086D01*
X114866Y378304D01*
X112149Y379873D01*
X109265Y380646D01*
X109217Y381042D01*
D01*
Y381498D01*
D01*
X109265Y381894D01*
X112149Y382667D01*
X114866Y384236D01*
X117084Y386454D01*
X118653Y389171D01*
X119465Y392201D01*
Y395339D01*
X118653Y398369D01*
X117084Y401086D01*
X114866Y403304D01*
X112149Y404873D01*
X109265Y405646D01*
X109217Y406042D01*
Y406498D01*
X109265Y406894D01*
X112149Y407667D01*
X114866Y409236D01*
X117084Y411454D01*
X118653Y414171D01*
X119465Y417201D01*
Y420339D01*
X118653Y423369D01*
X117084Y426086D01*
X114866Y428304D01*
X112149Y429873D01*
X109119Y430685D01*
D02*
G37*
G36*
X911791Y422600D02*
X909389D01*
X907169Y421680D01*
X905470Y419981D01*
X904550Y417761D01*
Y415359D01*
X905470Y413139D01*
X907169Y411440D01*
X909389Y410520D01*
X911791D01*
X914011Y411440D01*
X915711Y413139D01*
X916630Y415359D01*
Y417761D01*
X915711Y419981D01*
X914011Y421680D01*
X911791Y422600D01*
D02*
G37*
G36*
X192971D02*
X190569D01*
X188349Y421680D01*
X186649Y419981D01*
X185730Y417761D01*
Y415359D01*
X186649Y413139D01*
X188349Y411440D01*
X190569Y410520D01*
X192971D01*
X195191Y411440D01*
X196891Y413139D01*
X197810Y415359D01*
Y417761D01*
X196891Y419981D01*
X195191Y421680D01*
X192971Y422600D01*
D02*
G37*
G36*
X775901Y402280D02*
X773499D01*
X771279Y401361D01*
X769579Y399661D01*
X768660Y397441D01*
Y395039D01*
X769579Y392819D01*
X771279Y391119D01*
X773499Y390200D01*
X775901D01*
X778121Y391119D01*
X779820Y392819D01*
X780740Y395039D01*
Y397441D01*
X779820Y399661D01*
X778121Y401361D01*
X775901Y402280D01*
D02*
G37*
G36*
X1331459Y395755D02*
X1328321D01*
X1325291Y394943D01*
X1322574Y393374D01*
X1320356Y391156D01*
X1318787Y388439D01*
X1318014Y385555D01*
X1317618Y385507D01*
X1317162D01*
X1316766Y385555D01*
X1315993Y388439D01*
X1314424Y391156D01*
X1312206Y393374D01*
X1309489Y394943D01*
X1306459Y395755D01*
X1303321D01*
X1300291Y394943D01*
X1297574Y393374D01*
X1295356Y391156D01*
X1293787Y388439D01*
X1293014Y385555D01*
X1292618Y385507D01*
X1292162D01*
X1291766Y385555D01*
X1290993Y388439D01*
X1289424Y391156D01*
X1287206Y393374D01*
X1284489Y394943D01*
X1281459Y395755D01*
X1278321D01*
X1275291Y394943D01*
X1272574Y393374D01*
X1270356Y391156D01*
X1268787Y388439D01*
X1267975Y385409D01*
Y382271D01*
X1268787Y379241D01*
X1270356Y376524D01*
X1272574Y374306D01*
X1275291Y372737D01*
X1278175Y371964D01*
X1278223Y371568D01*
Y371112D01*
X1278175Y370716D01*
X1275291Y369943D01*
X1272574Y368374D01*
X1270356Y366156D01*
X1268787Y363439D01*
X1267975Y360409D01*
Y357271D01*
X1268787Y354241D01*
X1270356Y351524D01*
X1272574Y349306D01*
X1275291Y347737D01*
X1278321Y346925D01*
X1281459D01*
X1284489Y347737D01*
X1287206Y349306D01*
X1289424Y351524D01*
X1290993Y354241D01*
X1291766Y357125D01*
X1292162Y357173D01*
X1292618D01*
X1293014Y357125D01*
X1293787Y354241D01*
X1295356Y351524D01*
X1297574Y349306D01*
X1300291Y347737D01*
X1303321Y346925D01*
X1306459D01*
X1309489Y347737D01*
X1312206Y349306D01*
X1314424Y351524D01*
X1315993Y354241D01*
X1316766Y357125D01*
X1317162Y357173D01*
X1317618D01*
X1318014Y357125D01*
X1318787Y354241D01*
X1320356Y351524D01*
X1322574Y349306D01*
X1325291Y347737D01*
X1328321Y346925D01*
X1331459D01*
X1332620Y347236D01*
X1333850Y346251D01*
Y343741D01*
X1335150Y340602D01*
X1337552Y338200D01*
X1340691Y336900D01*
X1344089D01*
X1347227Y338200D01*
X1349630Y340602D01*
X1350930Y343741D01*
Y346251D01*
X1352160Y347236D01*
X1353321Y346925D01*
X1356459D01*
X1359489Y347737D01*
X1362206Y349306D01*
X1364424Y351524D01*
X1365993Y354241D01*
X1366766Y357125D01*
X1367162Y357173D01*
X1367618D01*
X1368014Y357125D01*
X1368787Y354241D01*
X1370356Y351524D01*
X1372574Y349306D01*
X1375291Y347737D01*
X1378321Y346925D01*
X1381459D01*
X1384489Y347737D01*
X1387206Y349306D01*
X1389424Y351524D01*
X1390993Y354241D01*
X1391766Y357125D01*
X1392162Y357173D01*
X1392618D01*
X1393014Y357125D01*
X1393787Y354241D01*
X1395356Y351524D01*
X1397574Y349306D01*
X1400291Y347737D01*
X1403321Y346925D01*
X1406459D01*
X1409489Y347737D01*
X1412206Y349306D01*
X1414424Y351524D01*
X1415993Y354241D01*
X1416805Y357271D01*
Y360409D01*
X1415993Y363439D01*
X1414424Y366156D01*
X1412206Y368374D01*
X1409489Y369943D01*
X1406459Y370755D01*
X1403321D01*
X1400291Y369943D01*
X1397574Y368374D01*
X1395356Y366156D01*
X1393787Y363439D01*
X1393014Y360555D01*
X1392618Y360507D01*
X1392162D01*
X1391766Y360555D01*
X1390993Y363439D01*
X1389424Y366156D01*
X1387206Y368374D01*
X1384489Y369943D01*
X1381459Y370755D01*
X1378321D01*
X1375291Y369943D01*
X1372574Y368374D01*
X1370356Y366156D01*
X1368787Y363439D01*
X1368014Y360555D01*
X1367618Y360507D01*
X1367162D01*
X1366766Y360555D01*
X1365993Y363439D01*
X1364424Y366156D01*
X1362206Y368374D01*
X1359489Y369943D01*
X1356459Y370755D01*
X1353321D01*
X1350291Y369943D01*
X1347574Y368374D01*
X1345356Y366156D01*
X1343787Y363439D01*
X1343014Y360555D01*
X1342618Y360507D01*
X1342162D01*
X1341766Y360555D01*
X1340993Y363439D01*
X1339424Y366156D01*
X1337206Y368374D01*
X1334489Y369943D01*
X1331605Y370716D01*
X1331557Y371112D01*
Y371568D01*
X1331605Y371964D01*
X1334489Y372737D01*
X1337206Y374306D01*
X1339424Y376524D01*
X1340993Y379241D01*
X1341805Y382271D01*
Y385409D01*
X1340993Y388439D01*
X1339424Y391156D01*
X1337206Y393374D01*
X1334489Y394943D01*
X1331459Y395755D01*
D02*
G37*
G36*
X479793Y394930D02*
X477788D01*
X475935Y394163D01*
X474517Y392745D01*
X473750Y390892D01*
Y388887D01*
X474517Y387035D01*
X475935Y385617D01*
X477788Y384850D01*
X479793D01*
X481645Y385617D01*
X483063Y387035D01*
X483830Y388887D01*
Y390892D01*
X483063Y392745D01*
X481645Y394163D01*
X479793Y394930D01*
D02*
G37*
G36*
X481063Y370800D02*
X479058D01*
X477205Y370033D01*
X475787Y368615D01*
X475020Y366763D01*
Y364757D01*
X475787Y362905D01*
X477205Y361487D01*
X479058Y360720D01*
X481063D01*
X482915Y361487D01*
X484333Y362905D01*
X485100Y364757D01*
Y366763D01*
X484333Y368615D01*
X482915Y370033D01*
X481063Y370800D01*
D02*
G37*
G36*
X477253Y332700D02*
X475247D01*
X473395Y331933D01*
X471977Y330515D01*
X471210Y328662D01*
Y326657D01*
X471977Y324805D01*
X473395Y323387D01*
X475247Y322620D01*
X477253D01*
X479105Y323387D01*
X480523Y324805D01*
X481290Y326657D01*
Y328662D01*
X480523Y330515D01*
X479105Y331933D01*
X477253Y332700D01*
D02*
G37*
G36*
X792213Y321270D02*
X790208D01*
X788355Y320503D01*
X786937Y319085D01*
X786170Y317232D01*
Y315228D01*
X786937Y313375D01*
X788355Y311957D01*
X790208Y311190D01*
X792213D01*
X794065Y311957D01*
X795483Y313375D01*
X796250Y315228D01*
Y317232D01*
X795483Y319085D01*
X794065Y320503D01*
X792213Y321270D01*
D02*
G37*
G36*
X959853Y321240D02*
X957848D01*
X955995Y320473D01*
X954577Y319055D01*
X953810Y317202D01*
Y315198D01*
X954577Y313345D01*
X955995Y311927D01*
X957848Y311160D01*
X959853D01*
X961705Y311927D01*
X963123Y313345D01*
X963890Y315198D01*
Y317202D01*
X963123Y319055D01*
X961705Y320473D01*
X959853Y321240D01*
D02*
G37*
G36*
X346442Y314920D02*
X344437D01*
X342585Y314153D01*
X341167Y312735D01*
X340400Y310882D01*
Y308878D01*
X341167Y307025D01*
X342585Y305607D01*
X344437Y304840D01*
X346442D01*
X348295Y305607D01*
X349713Y307025D01*
X350480Y308878D01*
Y310882D01*
X349713Y312735D01*
X348295Y314153D01*
X346442Y314920D01*
D02*
G37*
G36*
X948422Y308540D02*
X946417D01*
X944565Y307773D01*
X943147Y306355D01*
X942380Y304503D01*
Y302498D01*
X943147Y300645D01*
X944565Y299227D01*
X946417Y298460D01*
X948422D01*
X950275Y299227D01*
X951693Y300645D01*
X952460Y302498D01*
Y304503D01*
X951693Y306355D01*
X950275Y307773D01*
X948422Y308540D01*
D02*
G37*
G36*
X477253Y307300D02*
X475247D01*
X473395Y306533D01*
X471977Y305115D01*
X471210Y303263D01*
Y301257D01*
X471977Y299405D01*
X473395Y297987D01*
X475247Y297220D01*
X477253D01*
X479105Y297987D01*
X480523Y299405D01*
X481290Y301257D01*
Y303263D01*
X480523Y305115D01*
X479105Y306533D01*
X477253Y307300D01*
D02*
G37*
G36*
X959853Y295840D02*
X957848D01*
X955995Y295073D01*
X954577Y293655D01*
X953810Y291803D01*
Y289797D01*
X954577Y287945D01*
X955995Y286527D01*
X957848Y285760D01*
X959853D01*
X961705Y286527D01*
X963123Y287945D01*
X963890Y289797D01*
Y291803D01*
X963123Y293655D01*
X961705Y295073D01*
X959853Y295840D01*
D02*
G37*
G36*
X945882Y283140D02*
X943877D01*
X942025Y282373D01*
X940607Y280955D01*
X939840Y279102D01*
Y277097D01*
X940607Y275245D01*
X942025Y273827D01*
X943877Y273060D01*
X945882D01*
X947735Y273827D01*
X949153Y275245D01*
X949920Y277097D01*
Y279102D01*
X949153Y280955D01*
X947735Y282373D01*
X945882Y283140D01*
D02*
G37*
G36*
X478522Y279360D02*
X476517D01*
X474665Y278593D01*
X473247Y277175D01*
X472480Y275322D01*
Y273318D01*
X473247Y271465D01*
X474665Y270047D01*
X476517Y269280D01*
X478522D01*
X480375Y270047D01*
X481793Y271465D01*
X482560Y273318D01*
Y275322D01*
X481793Y277175D01*
X480375Y278593D01*
X478522Y279360D01*
D02*
G37*
G36*
X958583Y270440D02*
X956578D01*
X954725Y269673D01*
X953307Y268255D01*
X952540Y266402D01*
Y264398D01*
X953307Y262545D01*
X954725Y261127D01*
X956578Y260360D01*
X958583D01*
X960435Y261127D01*
X961853Y262545D01*
X962620Y264398D01*
Y266402D01*
X961853Y268255D01*
X960435Y269673D01*
X958583Y270440D01*
D02*
G37*
G36*
X944613Y257740D02*
X942607D01*
X940755Y256973D01*
X939337Y255555D01*
X938570Y253703D01*
Y251698D01*
X939337Y249845D01*
X940755Y248427D01*
X942607Y247660D01*
X944613D01*
X946465Y248427D01*
X947883Y249845D01*
X948650Y251698D01*
Y253703D01*
X947883Y255555D01*
X946465Y256973D01*
X944613Y257740D01*
D02*
G37*
G36*
X479793Y252690D02*
X477788D01*
X475935Y251923D01*
X474517Y250505D01*
X473750Y248652D01*
Y246647D01*
X474517Y244795D01*
X475935Y243377D01*
X477788Y242610D01*
X479793D01*
X481645Y243377D01*
X483063Y244795D01*
X483830Y246647D01*
Y248652D01*
X483063Y250505D01*
X481645Y251923D01*
X479793Y252690D01*
D02*
G37*
G36*
X347713Y232370D02*
X345708D01*
X343855Y231603D01*
X342437Y230185D01*
X341670Y228333D01*
Y226327D01*
X342437Y224475D01*
X343855Y223057D01*
X345708Y222290D01*
X347713D01*
X349565Y223057D01*
X350983Y224475D01*
X351750Y226327D01*
Y228333D01*
X350983Y230185D01*
X349565Y231603D01*
X347713Y232370D01*
D02*
G37*
G36*
X962393Y219640D02*
X960387D01*
X958535Y218873D01*
X957117Y217455D01*
X956350Y215602D01*
Y213598D01*
X957117Y211745D01*
X958535Y210327D01*
X960387Y209560D01*
X962393D01*
X964245Y210327D01*
X965663Y211745D01*
X966430Y213598D01*
Y215602D01*
X965663Y217455D01*
X964245Y218873D01*
X962393Y219640D01*
D02*
G37*
G36*
X483602Y210780D02*
X481598D01*
X479745Y210013D01*
X478327Y208595D01*
X477560Y206742D01*
Y204737D01*
X478327Y202885D01*
X479745Y201467D01*
X481598Y200700D01*
X483602D01*
X485455Y201467D01*
X486873Y202885D01*
X487640Y204737D01*
Y206742D01*
X486873Y208595D01*
X485455Y210013D01*
X483602Y210780D01*
D02*
G37*
G36*
X1347899Y242220D02*
X1344501D01*
X1341362Y240920D01*
X1338960Y238517D01*
X1337660Y235379D01*
Y231981D01*
X1338960Y228843D01*
X1341362Y226440D01*
X1344501Y225140D01*
X1346352D01*
X1347327Y223870D01*
X1346785Y221849D01*
Y218711D01*
X1347597Y215681D01*
X1349166Y212964D01*
X1351384Y210746D01*
X1354101Y209177D01*
X1356985Y208404D01*
X1357033Y208008D01*
Y207552D01*
X1356985Y207156D01*
X1354101Y206383D01*
X1351384Y204814D01*
X1349166Y202596D01*
X1347597Y199879D01*
X1346824Y196995D01*
X1346428Y196947D01*
X1345972D01*
X1345576Y196995D01*
X1344803Y199879D01*
X1343234Y202596D01*
X1341016Y204814D01*
X1338299Y206383D01*
X1335269Y207195D01*
X1332131D01*
X1329101Y206383D01*
X1326384Y204814D01*
X1324166Y202596D01*
X1322597Y199879D01*
X1321824Y196995D01*
X1321428Y196947D01*
X1320972D01*
X1320576Y196995D01*
X1319803Y199879D01*
X1318234Y202596D01*
X1316016Y204814D01*
X1313299Y206383D01*
X1310415Y207156D01*
X1310367Y207552D01*
Y208008D01*
X1310415Y208404D01*
X1313299Y209177D01*
X1316016Y210746D01*
X1318234Y212964D01*
X1319803Y215681D01*
X1320615Y218711D01*
Y221849D01*
X1319803Y224879D01*
X1318234Y227596D01*
X1316016Y229814D01*
X1313299Y231383D01*
X1310269Y232195D01*
X1307131D01*
X1304101Y231383D01*
X1301384Y229814D01*
X1299166Y227596D01*
X1297597Y224879D01*
X1296824Y221995D01*
X1296428Y221947D01*
X1295972D01*
X1295576Y221995D01*
X1294803Y224879D01*
X1293234Y227596D01*
X1291016Y229814D01*
X1288299Y231383D01*
X1285269Y232195D01*
X1282131D01*
X1279101Y231383D01*
X1276384Y229814D01*
X1274166Y227596D01*
X1272597Y224879D01*
X1271785Y221849D01*
Y218711D01*
X1272597Y215681D01*
X1274166Y212964D01*
X1276384Y210746D01*
X1279101Y209177D01*
X1281985Y208404D01*
X1282033Y208008D01*
Y207552D01*
X1281985Y207156D01*
X1279101Y206383D01*
X1276384Y204814D01*
X1274166Y202596D01*
X1272597Y199879D01*
X1271785Y196849D01*
Y193711D01*
X1272597Y190681D01*
X1274166Y187964D01*
X1276384Y185746D01*
X1279101Y184177D01*
X1282131Y183365D01*
X1285269D01*
X1288299Y184177D01*
X1291016Y185746D01*
X1293234Y187964D01*
X1294803Y190681D01*
X1295576Y193565D01*
X1295972Y193613D01*
X1296428D01*
X1296824Y193565D01*
X1297597Y190681D01*
X1299166Y187964D01*
X1301384Y185746D01*
X1304101Y184177D01*
X1307131Y183365D01*
X1310269D01*
X1313299Y184177D01*
X1316016Y185746D01*
X1318234Y187964D01*
X1319803Y190681D01*
X1320576Y193565D01*
X1320972Y193613D01*
X1321428D01*
X1321824Y193565D01*
X1322597Y190681D01*
X1324166Y187964D01*
X1326384Y185746D01*
X1329101Y184177D01*
X1332131Y183365D01*
X1335269D01*
X1338299Y184177D01*
X1341016Y185746D01*
X1343234Y187964D01*
X1344803Y190681D01*
X1345576Y193565D01*
X1345972Y193613D01*
X1346428D01*
X1346824Y193565D01*
X1347597Y190681D01*
X1349166Y187964D01*
X1351384Y185746D01*
X1354101Y184177D01*
X1357131Y183365D01*
X1360269D01*
X1363299Y184177D01*
X1366016Y185746D01*
X1368234Y187964D01*
X1369803Y190681D01*
X1370576Y193565D01*
X1370972Y193613D01*
X1371428D01*
X1371824Y193565D01*
X1372597Y190681D01*
X1374166Y187964D01*
X1376384Y185746D01*
X1379101Y184177D01*
X1382131Y183365D01*
X1385269D01*
X1388299Y184177D01*
X1391016Y185746D01*
X1393234Y187964D01*
X1394803Y190681D01*
X1395576Y193565D01*
X1395972Y193613D01*
X1396428D01*
X1396824Y193565D01*
X1397597Y190681D01*
X1399166Y187964D01*
X1401384Y185746D01*
X1404101Y184177D01*
X1407131Y183365D01*
X1410269D01*
X1413299Y184177D01*
X1416016Y185746D01*
X1418234Y187964D01*
X1419803Y190681D01*
X1420615Y193711D01*
Y196849D01*
X1419803Y199879D01*
X1418234Y202596D01*
X1416016Y204814D01*
X1413299Y206383D01*
X1410415Y207156D01*
X1410367Y207552D01*
Y208008D01*
X1410415Y208404D01*
X1413299Y209177D01*
X1416016Y210746D01*
X1418234Y212964D01*
X1419803Y215681D01*
X1420615Y218711D01*
Y221849D01*
X1419803Y224879D01*
X1418234Y227596D01*
X1416016Y229814D01*
X1413299Y231383D01*
X1410269Y232195D01*
X1407131D01*
X1404101Y231383D01*
X1401384Y229814D01*
X1399166Y227596D01*
X1397597Y224879D01*
X1396824Y221995D01*
X1396428Y221947D01*
X1395972D01*
X1395576Y221995D01*
X1394803Y224879D01*
X1393234Y227596D01*
X1391016Y229814D01*
X1388299Y231383D01*
X1385269Y232195D01*
X1382131D01*
X1379101Y231383D01*
X1376384Y229814D01*
X1374166Y227596D01*
X1372597Y224879D01*
X1371824Y221995D01*
X1371428Y221947D01*
X1370972D01*
X1370576Y221995D01*
X1369803Y224879D01*
X1368234Y227596D01*
X1366016Y229814D01*
X1363299Y231383D01*
X1360269Y232195D01*
X1357131D01*
X1355970Y231884D01*
X1354740Y232869D01*
Y235379D01*
X1353440Y238517D01*
X1351037Y240920D01*
X1347899Y242220D01*
D02*
G37*
G36*
X700772Y206970D02*
X698767D01*
X696915Y206203D01*
X695497Y204785D01*
X694730Y202932D01*
Y200928D01*
X695497Y199075D01*
X696915Y197657D01*
X698767Y196890D01*
X700772D01*
X702625Y197657D01*
X704043Y199075D01*
X704810Y200928D01*
Y202932D01*
X704043Y204785D01*
X702625Y206203D01*
X700772Y206970D01*
D02*
G37*
G36*
X948422Y206940D02*
X946417D01*
X944565Y206173D01*
X943147Y204755D01*
X942380Y202903D01*
Y200898D01*
X943147Y199045D01*
X944565Y197627D01*
X946417Y196860D01*
X948422D01*
X950275Y197627D01*
X951693Y199045D01*
X952460Y200898D01*
Y202903D01*
X951693Y204755D01*
X950275Y206173D01*
X948422Y206940D01*
D02*
G37*
G36*
X56500Y204929D02*
X54534Y204538D01*
X52866Y203424D01*
X52814Y203345D01*
X51752Y201756D01*
X51716Y201634D01*
X51593Y201598D01*
X49926Y200484D01*
X48812Y198817D01*
X48421Y196850D01*
X48812Y194883D01*
X49926Y193216D01*
X51593Y192102D01*
X53560Y191711D01*
Y191654D01*
X56674Y192273D01*
X59313Y194037D01*
X61077Y196676D01*
X61696Y199790D01*
X61639D01*
X61248Y201756D01*
X60134Y203424D01*
X58467Y204538D01*
X56500Y204929D01*
D02*
G37*
G36*
X956498Y189615D02*
X954493D01*
X952641Y188848D01*
X951223Y187430D01*
X950455Y185578D01*
Y183573D01*
X951223Y181721D01*
X952641Y180303D01*
X954493Y179536D01*
X956498D01*
X958351Y180303D01*
X959768Y181721D01*
X960536Y183573D01*
Y185578D01*
X959768Y187430D01*
X958351Y188848D01*
X956498Y189615D01*
D02*
G37*
G36*
X178803Y187920D02*
X176798D01*
X174945Y187153D01*
X173527Y185735D01*
X172760Y183883D01*
Y181877D01*
X173527Y180025D01*
X174945Y178607D01*
X176798Y177840D01*
X178803D01*
X180655Y178607D01*
X182073Y180025D01*
X182840Y181877D01*
Y183883D01*
X182073Y185735D01*
X180655Y187153D01*
X178803Y187920D01*
D02*
G37*
G36*
X83069Y261705D02*
X79931D01*
X76901Y260893D01*
X74184Y259324D01*
X71966Y257106D01*
X70397Y254389D01*
X69585Y251359D01*
Y248221D01*
X70397Y245191D01*
X71966Y242474D01*
X74184Y240256D01*
X76901Y238687D01*
X79785Y237914D01*
X79833Y237518D01*
Y237062D01*
X79785Y236666D01*
X76901Y235893D01*
X74184Y234324D01*
X71966Y232106D01*
X70397Y229389D01*
X69585Y226359D01*
Y223221D01*
X70397Y220191D01*
X71966Y217474D01*
X74184Y215256D01*
X76901Y213687D01*
X79785Y212914D01*
X79833Y212518D01*
D01*
Y212062D01*
X79785Y211666D01*
X76901Y210893D01*
X74184Y209324D01*
X71966Y207106D01*
X70397Y204389D01*
X69585Y201359D01*
Y198221D01*
X70397Y195191D01*
X71966Y192474D01*
X74184Y190256D01*
X76901Y188687D01*
X79785Y187914D01*
X79833Y187518D01*
D01*
D01*
Y187062D01*
X79785Y186666D01*
X76901Y185893D01*
X74184Y184324D01*
X71966Y182106D01*
X70397Y179389D01*
X69624Y176505D01*
X69228Y176457D01*
X68772D01*
X68376Y176505D01*
X67603Y179389D01*
X66034Y182106D01*
X63816Y184324D01*
X61099Y185893D01*
X59604Y186294D01*
D01*
X58069Y186705D01*
X54931D01*
X51901Y185893D01*
X49184Y184324D01*
X46966Y182106D01*
X45397Y179389D01*
X44585Y176359D01*
Y173221D01*
X45397Y170191D01*
X46966Y167474D01*
X49184Y165256D01*
X51901Y163687D01*
X54785Y162914D01*
X54833Y162518D01*
Y162062D01*
X54785Y161666D01*
X51901Y160893D01*
X49184Y159324D01*
X46966Y157106D01*
X45397Y154389D01*
X44585Y151359D01*
Y148221D01*
X45397Y145191D01*
X46966Y142474D01*
X49184Y140256D01*
X51901Y138687D01*
X54785Y137914D01*
X54833Y137518D01*
Y137062D01*
X54785Y136666D01*
X51901Y135893D01*
X49184Y134324D01*
X46966Y132106D01*
X45397Y129389D01*
X44585Y126359D01*
Y123221D01*
X45397Y120191D01*
X46966Y117474D01*
X49184Y115256D01*
X51901Y113687D01*
X54931Y112875D01*
X58069D01*
X61099Y113687D01*
X63816Y115256D01*
X66034Y117474D01*
X67603Y120191D01*
X68376Y123075D01*
X68772Y123123D01*
X69228D01*
X69624Y123075D01*
X70397Y120191D01*
X71966Y117474D01*
X74184Y115256D01*
X76901Y113687D01*
X79931Y112875D01*
X83069D01*
X86099Y113687D01*
X88816Y115256D01*
X91034Y117474D01*
X92603Y120191D01*
X93415Y123221D01*
Y126359D01*
X92603Y129389D01*
X91034Y132106D01*
X88816Y134324D01*
X86099Y135893D01*
X83215Y136666D01*
X83167Y137062D01*
Y137518D01*
X83215Y137914D01*
X86099Y138687D01*
X88816Y140256D01*
X91034Y142474D01*
X92603Y145191D01*
X93415Y148221D01*
Y151359D01*
X92603Y154389D01*
X91034Y157106D01*
X88816Y159324D01*
X86099Y160893D01*
X83215Y161666D01*
X83167Y162062D01*
D01*
Y162518D01*
X83215Y162914D01*
X86099Y163687D01*
X88816Y165256D01*
X91034Y167474D01*
X92603Y170191D01*
X93415Y173221D01*
Y176359D01*
X93032Y177788D01*
X94089Y178750D01*
X96024D01*
X97651Y179186D01*
X98685Y179614D01*
X100144Y180456D01*
X101734Y182046D01*
X102576Y183505D01*
X103004Y184539D01*
X103440Y186166D01*
Y188414D01*
X103004Y190041D01*
X102576Y191075D01*
X101734Y192534D01*
X100144Y194124D01*
X98685Y194966D01*
X97651Y195394D01*
X96024Y195830D01*
X94089D01*
X93032Y196792D01*
X93415Y198221D01*
Y201359D01*
X92603Y204389D01*
X91034Y207106D01*
X88816Y209324D01*
X86099Y210893D01*
X83215Y211666D01*
X83167Y212062D01*
Y212518D01*
X83215Y212914D01*
X86099Y213687D01*
X88816Y215256D01*
X91034Y217474D01*
X92603Y220191D01*
X93415Y223221D01*
Y226359D01*
X92603Y229389D01*
X91034Y232106D01*
X88816Y234324D01*
X86099Y235893D01*
X83215Y236666D01*
X83167Y237062D01*
Y237518D01*
D01*
X83215Y237914D01*
X86099Y238687D01*
X88816Y240256D01*
X91034Y242474D01*
X92603Y245191D01*
X93415Y248221D01*
Y251359D01*
X92603Y254389D01*
X91034Y257106D01*
X88816Y259324D01*
X86099Y260893D01*
X83069Y261705D01*
D02*
G37*
G36*
X661403Y181540D02*
X659398D01*
X657545Y180773D01*
X656127Y179355D01*
X655360Y177502D01*
Y175497D01*
X656127Y173645D01*
X657545Y172227D01*
X659398Y171460D01*
X661403D01*
X663255Y172227D01*
X664673Y173645D01*
X665440Y175497D01*
Y177502D01*
X664673Y179355D01*
X663255Y180773D01*
X661403Y181540D01*
D02*
G37*
G36*
X1183372Y167600D02*
X1181367D01*
X1179515Y166833D01*
X1178097Y165415D01*
X1177330Y163563D01*
Y161558D01*
X1178097Y159705D01*
X1179515Y158287D01*
X1181367Y157520D01*
X1183372D01*
X1185225Y158287D01*
X1186643Y159705D01*
X1187410Y161558D01*
Y163563D01*
X1186643Y165415D01*
X1185225Y166833D01*
X1183372Y167600D01*
D02*
G37*
G36*
X757923Y148360D02*
X755918D01*
X754065Y147593D01*
X752647Y146175D01*
X751880Y144323D01*
Y142317D01*
X752647Y140465D01*
X754065Y139047D01*
X755918Y138280D01*
X757923D01*
X759775Y139047D01*
X761193Y140465D01*
X761960Y142317D01*
Y144323D01*
X761193Y146175D01*
X759775Y147593D01*
X757923Y148360D01*
D02*
G37*
G36*
X796022Y118070D02*
X794017D01*
X792165Y117303D01*
X790747Y115885D01*
X789980Y114032D01*
Y112028D01*
X790747Y110175D01*
X792165Y108757D01*
X794017Y107990D01*
X796022D01*
X797875Y108757D01*
X799293Y110175D01*
X800060Y112028D01*
Y114032D01*
X799293Y115885D01*
X797875Y117303D01*
X796022Y118070D01*
D02*
G37*
G36*
X783323Y88860D02*
X781318D01*
X779465Y88093D01*
X778047Y86675D01*
X777280Y84823D01*
Y82817D01*
X778047Y80965D01*
X779465Y79547D01*
X781318Y78780D01*
X783323D01*
X785175Y79547D01*
X786593Y80965D01*
X787360Y82817D01*
Y84823D01*
X786593Y86675D01*
X785175Y88093D01*
X783323Y88860D01*
D02*
G37*
G36*
X771711Y47060D02*
X769309D01*
X767089Y46140D01*
X765389Y44441D01*
X764470Y42221D01*
Y39819D01*
X765389Y37599D01*
X767089Y35900D01*
X769309Y34980D01*
X771711D01*
X773931Y35900D01*
X775630Y37599D01*
X776550Y39819D01*
Y42221D01*
X775630Y44441D01*
X773931Y46140D01*
X771711Y47060D01*
D02*
G37*
%LPD*%
G36*
X95674Y417055D02*
X96447Y414171D01*
X98016Y411454D01*
X100234Y409236D01*
X102951Y407667D01*
X105835Y406894D01*
X105883Y406498D01*
Y406042D01*
X105835Y405646D01*
X102951Y404873D01*
X100234Y403304D01*
X98016Y401086D01*
X96447Y398369D01*
X95674Y395485D01*
X95278Y395437D01*
X94822D01*
D01*
X94426Y395485D01*
X93653Y398369D01*
X92084Y401086D01*
X89866Y403304D01*
X87149Y404873D01*
X84265Y405646D01*
X84217Y406042D01*
D01*
Y406498D01*
D01*
X84265Y406894D01*
X87149Y407667D01*
X89866Y409236D01*
X92084Y411454D01*
X93653Y414171D01*
X94426Y417055D01*
X94822Y417103D01*
X95278D01*
X95674Y417055D01*
D02*
G37*
G36*
Y392055D02*
X96447Y389171D01*
X98016Y386454D01*
X100234Y384236D01*
X102951Y382667D01*
X105835Y381894D01*
X105883Y381498D01*
Y381042D01*
D01*
X105835Y380646D01*
X102951Y379873D01*
X100234Y378304D01*
X98016Y376086D01*
X96447Y373369D01*
X95674Y370485D01*
X95278Y370437D01*
X95010D01*
X94822D01*
D01*
D01*
X94426Y370485D01*
X93653Y373369D01*
X92084Y376086D01*
X89866Y378304D01*
X87149Y379873D01*
X84265Y380646D01*
X84217Y381042D01*
Y381498D01*
X84265Y381894D01*
X87149Y382667D01*
X89866Y384236D01*
X92084Y386454D01*
X93653Y389171D01*
X94426Y392055D01*
X94822Y392103D01*
X95278D01*
X95674Y392055D01*
D02*
G37*
G36*
X1318014Y382125D02*
X1318787Y379241D01*
X1320356Y376524D01*
X1322574Y374306D01*
X1325291Y372737D01*
X1328175Y371964D01*
X1328223Y371568D01*
Y371112D01*
X1328175Y370716D01*
X1325291Y369943D01*
X1322574Y368374D01*
X1320356Y366156D01*
X1318787Y363439D01*
X1318014Y360555D01*
X1317618Y360507D01*
X1317162D01*
X1316766Y360555D01*
X1315993Y363439D01*
X1314424Y366156D01*
X1312206Y368374D01*
X1309489Y369943D01*
X1306605Y370716D01*
X1306557Y371112D01*
Y371568D01*
X1306605Y371964D01*
X1309489Y372737D01*
X1312206Y374306D01*
X1314424Y376524D01*
X1315993Y379241D01*
X1316766Y382125D01*
X1317162Y382173D01*
X1317618D01*
X1318014Y382125D01*
D02*
G37*
G36*
X1293014D02*
X1293787Y379241D01*
X1295356Y376524D01*
X1297574Y374306D01*
X1300291Y372737D01*
X1303175Y371964D01*
X1303223Y371568D01*
Y371112D01*
X1303175Y370716D01*
X1300291Y369943D01*
X1297574Y368374D01*
X1295356Y366156D01*
X1293787Y363439D01*
X1293014Y360555D01*
X1292618Y360507D01*
X1292162D01*
X1291766Y360555D01*
X1290993Y363439D01*
X1289424Y366156D01*
X1287206Y368374D01*
X1284489Y369943D01*
X1281605Y370716D01*
X1281557Y371112D01*
Y371568D01*
X1281605Y371964D01*
X1284489Y372737D01*
X1287206Y374306D01*
X1289424Y376524D01*
X1290993Y379241D01*
X1291766Y382125D01*
X1292162Y382173D01*
X1292618D01*
X1293014Y382125D01*
D02*
G37*
G36*
X1396824Y218565D02*
X1397597Y215681D01*
X1399166Y212964D01*
X1401384Y210746D01*
X1404101Y209177D01*
X1406985Y208404D01*
X1407033Y208008D01*
Y207552D01*
X1406985Y207156D01*
X1404101Y206383D01*
X1401384Y204814D01*
X1399166Y202596D01*
X1397597Y199879D01*
X1396824Y196995D01*
X1396428Y196947D01*
X1395972D01*
X1395576Y196995D01*
X1394803Y199879D01*
X1393234Y202596D01*
X1391016Y204814D01*
X1388299Y206383D01*
X1385415Y207156D01*
X1385367Y207552D01*
Y208008D01*
X1385415Y208404D01*
X1388299Y209177D01*
X1391016Y210746D01*
X1393234Y212964D01*
X1394803Y215681D01*
X1395576Y218565D01*
X1395972Y218613D01*
X1396428D01*
X1396824Y218565D01*
D02*
G37*
G36*
X1371824D02*
X1372597Y215681D01*
X1374166Y212964D01*
X1376384Y210746D01*
X1379101Y209177D01*
X1381985Y208404D01*
X1382033Y208008D01*
Y207552D01*
X1381985Y207156D01*
X1379101Y206383D01*
X1376384Y204814D01*
X1374166Y202596D01*
X1372597Y199879D01*
X1371824Y196995D01*
X1371428Y196947D01*
X1370972D01*
X1370576Y196995D01*
X1369803Y199879D01*
X1368234Y202596D01*
X1366016Y204814D01*
X1363299Y206383D01*
X1360415Y207156D01*
X1360367Y207552D01*
Y208008D01*
X1360415Y208404D01*
X1363299Y209177D01*
X1366016Y210746D01*
X1368234Y212964D01*
X1369803Y215681D01*
X1370576Y218565D01*
X1370972Y218613D01*
X1371428D01*
X1371824Y218565D01*
D02*
G37*
G36*
X1296824D02*
X1297597Y215681D01*
X1299166Y212964D01*
X1301384Y210746D01*
X1304101Y209177D01*
X1306985Y208404D01*
X1307033Y208008D01*
Y207552D01*
X1306985Y207156D01*
X1304101Y206383D01*
X1301384Y204814D01*
X1299166Y202596D01*
X1297597Y199879D01*
X1296824Y196995D01*
X1296428Y196947D01*
X1295972D01*
X1295576Y196995D01*
X1294803Y199879D01*
X1293234Y202596D01*
X1291016Y204814D01*
X1288299Y206383D01*
X1285415Y207156D01*
X1285367Y207552D01*
Y208008D01*
X1285415Y208404D01*
X1288299Y209177D01*
X1291016Y210746D01*
X1293234Y212964D01*
X1294803Y215681D01*
X1295576Y218565D01*
X1295972Y218613D01*
X1296428D01*
X1296824Y218565D01*
D02*
G37*
G36*
X69624Y173075D02*
X70397Y170191D01*
X71966Y167474D01*
X74184Y165256D01*
X76901Y163687D01*
X79785Y162914D01*
X79833Y162518D01*
Y162062D01*
X79785Y161666D01*
X76901Y160893D01*
X74184Y159324D01*
X71966Y157106D01*
X70397Y154389D01*
X69624Y151505D01*
X69228Y151457D01*
X68772D01*
X68376Y151505D01*
X67603Y154389D01*
X66034Y157106D01*
X63816Y159324D01*
X61099Y160893D01*
X58215Y161666D01*
X58167Y162062D01*
Y162518D01*
X58215Y162914D01*
X61099Y163687D01*
X63816Y165256D01*
X66034Y167474D01*
X67603Y170191D01*
X68376Y173075D01*
X68772Y173123D01*
X69228D01*
X69624Y173075D01*
D02*
G37*
G36*
Y148075D02*
X70397Y145191D01*
X71966Y142474D01*
X74184Y140256D01*
X76901Y138687D01*
X79785Y137914D01*
X79833Y137518D01*
Y137062D01*
X79785Y136666D01*
X76901Y135893D01*
X74184Y134324D01*
X71966Y132106D01*
X70397Y129389D01*
X69624Y126505D01*
X69228Y126457D01*
X68772D01*
D01*
X68376Y126505D01*
X67603Y129389D01*
X66034Y132106D01*
X63816Y134324D01*
X61099Y135893D01*
X58215Y136666D01*
X58167Y137062D01*
Y137518D01*
X58215Y137914D01*
X61099Y138687D01*
X63816Y140256D01*
X66034Y142474D01*
X67603Y145191D01*
X68376Y148075D01*
D01*
X68772Y148123D01*
X69228D01*
D01*
X69624Y148075D01*
D02*
G37*
D29*
X53560Y196850D02*
G03*
X56500Y199790I0J2940D01*
G01*
D31*
X82550Y418770D02*
D03*
Y393770D02*
D03*
Y368770D02*
D03*
Y343770D02*
D03*
Y318770D02*
D03*
Y293770D02*
D03*
X107550Y418770D02*
D03*
Y393770D02*
D03*
Y368770D02*
D03*
Y343770D02*
D03*
Y318770D02*
D03*
Y293770D02*
D03*
X1283700Y195280D02*
D03*
X1308700D02*
D03*
X1333700D02*
D03*
X1358700D02*
D03*
X1383700D02*
D03*
X1408700D02*
D03*
X1283700Y220280D02*
D03*
X1308700D02*
D03*
X1333700D02*
D03*
X1358700D02*
D03*
X1383700D02*
D03*
X1408700D02*
D03*
X1404890Y383840D02*
D03*
X1379890D02*
D03*
X1354890D02*
D03*
X1329890D02*
D03*
X1304890D02*
D03*
X1279890D02*
D03*
X1404890Y358840D02*
D03*
X1379890D02*
D03*
X1354890D02*
D03*
X1329890D02*
D03*
X1304890D02*
D03*
X1279890D02*
D03*
X56500Y249790D02*
D03*
Y224790D02*
D03*
Y199790D02*
D03*
Y174790D02*
D03*
Y149790D02*
D03*
Y124790D02*
D03*
X81500Y249790D02*
D03*
Y224790D02*
D03*
Y199790D02*
D03*
Y174790D02*
D03*
Y149790D02*
D03*
Y124790D02*
D03*
D32*
X69150Y356270D02*
D03*
X1346200Y233680D02*
D03*
X1342390Y345440D02*
D03*
X94900Y187290D02*
D03*
D33*
X1203060Y46160D02*
D03*
X553060Y496160D02*
D03*
X1203060D02*
D03*
X553060Y46160D02*
D03*
D34*
X50000Y50000D02*
D03*
X1450000Y500000D02*
D03*
Y50000D02*
D03*
X50000Y500000D02*
D03*
D35*
X659100Y302230D02*
D03*
X599100D02*
D03*
X629100Y242230D02*
D03*
X569100D02*
D03*
X479100Y182230D02*
D03*
X509100Y122230D02*
D03*
X449100D02*
D03*
X419100Y62230D02*
D03*
X359100Y302230D02*
D03*
X389100Y242230D02*
D03*
Y122230D02*
D03*
X239100Y302230D02*
D03*
X269100Y242230D02*
D03*
Y122230D02*
D03*
X209100D02*
D03*
X59100Y302230D02*
D03*
X1046480Y189230D02*
D03*
X935990Y69850D02*
D03*
X795020Y113030D02*
D03*
X630000Y136540D02*
D03*
X675000D02*
D03*
X472500Y90000D02*
D03*
X247500Y270000D02*
D03*
X791210Y316230D02*
D03*
X699770Y201930D02*
D03*
X185340Y135000D02*
D03*
X177800Y182880D02*
D03*
X185340Y315000D02*
D03*
X202500Y270000D02*
D03*
X225000Y315000D02*
D03*
X270510Y308610D02*
D03*
X292500Y270000D02*
D03*
X315000Y225000D02*
D03*
X382500Y270000D02*
D03*
X391160Y265430D02*
D03*
X427500Y270000D02*
D03*
X540000Y315000D02*
D03*
X466090Y424100D02*
D03*
X396240D02*
D03*
X180000Y405000D02*
D03*
X225000D02*
D03*
X697500Y270000D02*
D03*
Y180000D02*
D03*
X630000Y315000D02*
D03*
X652500Y270000D02*
D03*
X630000Y225000D02*
D03*
X652500Y180000D02*
D03*
X607500Y270000D02*
D03*
X585000Y225000D02*
D03*
X607500Y180000D02*
D03*
X562500Y270000D02*
D03*
X540000Y225000D02*
D03*
X562500Y180000D02*
D03*
X495000Y135000D02*
D03*
X450000Y405000D02*
D03*
X472500Y180000D02*
D03*
X450000Y135000D02*
D03*
Y45000D02*
D03*
X405000Y135000D02*
D03*
X360000Y405000D02*
D03*
Y135000D02*
D03*
X382500Y90000D02*
D03*
X360000Y45000D02*
D03*
X315000Y405000D02*
D03*
X270000D02*
D03*
Y135000D02*
D03*
X292500Y90000D02*
D03*
X225000Y135000D02*
D03*
X247500Y90000D02*
D03*
X202500D02*
D03*
X157500Y270000D02*
D03*
Y90000D02*
D03*
X135000Y45000D02*
D03*
X112500Y270000D02*
D03*
X45000Y405000D02*
D03*
Y315000D02*
D03*
X67500Y270000D02*
D03*
X495300Y384810D02*
D03*
X458470Y364490D02*
D03*
X651510Y222250D02*
D03*
X462280Y328930D02*
D03*
X463550Y299720D02*
D03*
X468630Y270510D02*
D03*
X506730Y232410D02*
D03*
X468630Y201930D02*
D03*
X281940Y133350D02*
D03*
X295910Y191770D02*
D03*
X782320Y83820D02*
D03*
X756920Y143320D02*
D03*
X346710Y227330D02*
D03*
X345440Y309880D02*
D03*
X482600Y205740D02*
D03*
X476250Y302260D02*
D03*
Y327660D02*
D03*
X480060Y365760D02*
D03*
X478790Y247650D02*
D03*
X477520Y274320D02*
D03*
X478790Y389890D02*
D03*
X1182370Y162560D02*
D03*
X955496Y184576D02*
D03*
X958850Y316200D02*
D03*
Y290800D02*
D03*
X943610Y252700D02*
D03*
X947420Y303500D02*
D03*
X660400Y176500D02*
D03*
X947420Y201900D02*
D03*
X944880Y278100D02*
D03*
X961390Y214600D02*
D03*
X957580Y265400D02*
D03*
D36*
X770510Y41020D02*
D03*
X774700Y396240D02*
D03*
X191770Y416560D02*
D03*
X910590D02*
D03*
X1203060Y73660D02*
D03*
X1223060Y66160D02*
D03*
X1230560Y46160D02*
D03*
X1223060Y26160D02*
D03*
X1203060Y18660D02*
D03*
X1183060Y26160D02*
D03*
X1175560Y46160D02*
D03*
X1183060Y66160D02*
D03*
X52070Y79570D02*
D03*
X72070Y72070D02*
D03*
X79570Y52070D02*
D03*
X72070Y32070D02*
D03*
X52070Y24570D02*
D03*
X32070Y32070D02*
D03*
X24570Y52070D02*
D03*
X32070Y72070D02*
D03*
X553060Y523660D02*
D03*
X573060Y516160D02*
D03*
X580560Y496160D02*
D03*
X573060Y476160D02*
D03*
X553060Y468660D02*
D03*
X533060Y476160D02*
D03*
X525560Y496160D02*
D03*
X533060Y516160D02*
D03*
X1203060Y523660D02*
D03*
X1223060Y516160D02*
D03*
X1230560Y496160D02*
D03*
X1223060Y476160D02*
D03*
X1203060Y468660D02*
D03*
X1183060Y476160D02*
D03*
X1175560Y496160D02*
D03*
X1183060Y516160D02*
D03*
X553060Y73660D02*
D03*
X573060Y66160D02*
D03*
X580560Y46160D02*
D03*
X573060Y26160D02*
D03*
X553060Y18660D02*
D03*
X533060Y26160D02*
D03*
X525560Y46160D02*
D03*
X533060Y66160D02*
D03*
X1450000Y527500D02*
D03*
X1470000Y520000D02*
D03*
X1477500Y500000D02*
D03*
X1470000Y480000D02*
D03*
X1450000Y472500D02*
D03*
X1430000Y480000D02*
D03*
X1422500Y500000D02*
D03*
X1430000Y520000D02*
D03*
X1450000Y77500D02*
D03*
X1470000Y70000D02*
D03*
X1477500Y50000D02*
D03*
X1470000Y30000D02*
D03*
X1450000Y22500D02*
D03*
X1430000Y30000D02*
D03*
X1422500Y50000D02*
D03*
X1430000Y70000D02*
D03*
X50000Y527500D02*
D03*
X70000Y520000D02*
D03*
X77500Y500000D02*
D03*
X70000Y480000D02*
D03*
X50000Y472500D02*
D03*
X30000Y480000D02*
D03*
X22500Y500000D02*
D03*
X30000Y520000D02*
D03*
M02*
