G04*
G04 #@! TF.GenerationSoftware,Altium Limited,Altium Designer,24.0.1 (36)*
G04*
G04 Layer_Physical_Order=2*
G04 Layer_Color=36540*
%FSLAX44Y44*%
%MOMM*%
G71*
G04*
G04 #@! TF.SameCoordinates,529E54BD-66BB-4446-AAE8-26BA04382348*
G04*
G04*
G04 #@! TF.FilePolarity,Positive*
G04*
G01*
G75*
%ADD29C,0.5000*%
%ADD31C,1.8750*%
%ADD32C,0.6750*%
%ADD33C,7.0000*%
%ADD34C,8.0000*%
%ADD35C,0.5000*%
%ADD36C,0.7000*%
G36*
X1450000Y550000D02*
X1453277D01*
X1459775Y549144D01*
X1466106Y547448D01*
X1472162Y544940D01*
X1477838Y541663D01*
X1483038Y537673D01*
X1487673Y533038D01*
X1491663Y527838D01*
X1494940Y522162D01*
X1497448Y516106D01*
X1499144Y509775D01*
X1500000Y503277D01*
Y500000D01*
X1500000Y500000D01*
X1500000Y500000D01*
X1500000Y50000D01*
Y46723D01*
X1499144Y40224D01*
X1497448Y33893D01*
X1494940Y27838D01*
X1491663Y22162D01*
X1487673Y16962D01*
X1483038Y12327D01*
X1477838Y8337D01*
X1472162Y5060D01*
X1466106Y2552D01*
X1459775Y856D01*
X1453277Y0D01*
X1450000Y0D01*
X50000Y0D01*
X46723D01*
X40224Y856D01*
X33893Y2552D01*
X27838Y5060D01*
X22162Y8337D01*
X16962Y12327D01*
X12327Y16962D01*
X8337Y22162D01*
X5060Y27838D01*
X2552Y33893D01*
X856Y40224D01*
X0Y46723D01*
X0Y50000D01*
X0Y500000D01*
Y503277D01*
X856Y509775D01*
X2552Y516106D01*
X5060Y522162D01*
X8337Y527838D01*
X12327Y533038D01*
X16962Y537673D01*
X22162Y541663D01*
X27838Y544940D01*
X33893Y547448D01*
X40224Y549144D01*
X46723Y550000D01*
X50000D01*
X50000Y550000D01*
X1450000Y550000D01*
D02*
G37*
%LPC*%
G36*
X731373Y447087D02*
X696730Y447024D01*
X327203Y446346D01*
X41117Y445821D01*
X41117Y445821D01*
X41116Y445821D01*
X41090Y445821D01*
X41090Y445821D01*
X40890Y445820D01*
X40750Y445792D01*
X40740Y445793D01*
X40725Y445787D01*
X40724Y445787D01*
X40703Y445787D01*
X40620Y445770D01*
X40587Y445770D01*
X40587Y445770D01*
X40586Y445770D01*
X40583D01*
X40539Y445777D01*
X40510Y445770D01*
X40385Y445770D01*
X40303Y445753D01*
X40302Y445753D01*
X40300Y445752D01*
X40220Y445736D01*
X40200Y445728D01*
X40139Y445728D01*
X40134Y445727D01*
X39988Y445666D01*
X39827Y445644D01*
X39814Y445640D01*
X39811Y445638D01*
X39804Y445637D01*
X39791Y445629D01*
X39780Y445628D01*
X39718Y445590D01*
X39712Y445589D01*
X39678Y445566D01*
X39557Y445536D01*
X39557Y445536D01*
X39462Y445466D01*
X39346Y445427D01*
X39333Y445419D01*
X39294Y445385D01*
X39293Y445385D01*
X39292Y445384D01*
X39290Y445384D01*
X39290Y445384D01*
X39289Y445383D01*
X39235Y445351D01*
X39202Y445337D01*
X39189Y445325D01*
X39186Y445323D01*
X39186Y445322D01*
X39161Y445308D01*
X39032Y445194D01*
X39023Y445191D01*
X39000Y445178D01*
X38972Y445152D01*
X38971Y445152D01*
X38956Y445146D01*
X38946Y445137D01*
X38931Y445128D01*
X38930Y445128D01*
X38917Y445120D01*
X38902Y445107D01*
X38804Y445051D01*
X38803Y445051D01*
X38786Y445029D01*
X38782Y445027D01*
X38780Y445023D01*
X38730Y444994D01*
X38635Y444909D01*
X38615Y444897D01*
X38597Y444881D01*
X38595Y444879D01*
X38594Y444878D01*
X38587Y444872D01*
X38586Y444871D01*
X36610Y443128D01*
X17482Y426250D01*
X17384Y426122D01*
X17383Y426121D01*
X17353Y426082D01*
X17304Y426049D01*
X17267Y426012D01*
X17185Y425890D01*
X17042Y425747D01*
X16982Y425657D01*
X16925Y425520D01*
X16910Y425500D01*
X16870Y425447D01*
X16870Y425447D01*
X16771Y425317D01*
X16760Y425294D01*
X16758Y425286D01*
X16755Y425283D01*
X16739Y425222D01*
X16705Y425172D01*
X16703Y425162D01*
X16694Y425148D01*
X16688Y425133D01*
X16638Y424885D01*
X16574Y424753D01*
X16546Y424648D01*
X16534Y424456D01*
X16476Y424272D01*
X16476Y424272D01*
X16488Y424127D01*
X16460Y423985D01*
Y202499D01*
Y202244D01*
X16510Y201994D01*
X16510Y201739D01*
X16535Y201680D01*
X16538Y201616D01*
X16538Y201616D01*
X16620Y201441D01*
X16657Y201253D01*
X16679Y201221D01*
X16679Y201221D01*
X16738Y201078D01*
X16858Y200898D01*
X16897Y200805D01*
X16918Y200774D01*
X16951Y200740D01*
X16969Y200702D01*
X17020Y200656D01*
X17299Y200238D01*
X17299Y200238D01*
X17299Y200238D01*
X17764Y199927D01*
X17835Y199856D01*
X17866Y199835D01*
X17959Y199797D01*
X18139Y199677D01*
X18282Y199617D01*
X18282Y199617D01*
X18314Y199596D01*
X18564Y199546D01*
X18800Y199449D01*
X19055Y199449D01*
X19305Y199399D01*
X44543D01*
X44712Y199433D01*
X44731Y199429D01*
X44777Y199438D01*
X44907Y199430D01*
X45069Y199451D01*
X45285Y199524D01*
X45376Y199536D01*
X45401Y199545D01*
X45447Y199571D01*
X45722Y199626D01*
X45864Y199721D01*
X46026Y199776D01*
X46280Y199999D01*
X46562Y200187D01*
X46657Y200329D01*
X46785Y200442D01*
X46910Y200694D01*
X46947Y200732D01*
X46962Y200754D01*
X46997Y200838D01*
X47123Y201028D01*
X47186Y201179D01*
X47211Y201306D01*
X47232Y201348D01*
X47234Y201367D01*
X47310Y201522D01*
X47810Y203389D01*
X49038Y205516D01*
X50774Y207252D01*
X52901Y208480D01*
X55272Y209115D01*
X57728D01*
X60099Y208480D01*
X62226Y207252D01*
X63962Y205516D01*
X65190Y203389D01*
X65574Y201956D01*
X65576Y201951D01*
X65577Y201945D01*
X65798Y201501D01*
X66021Y201050D01*
X66025Y201046D01*
X66028Y201041D01*
X66404Y200714D01*
X66502Y200628D01*
X66635Y200288D01*
X66664Y199597D01*
X66586Y199113D01*
X66579Y199097D01*
X66570Y199090D01*
X66319Y198810D01*
X66295Y198769D01*
X66259Y198739D01*
X66168Y198631D01*
X66108Y198519D01*
X66098Y198511D01*
X66087Y198491D01*
X66066Y198472D01*
X66034Y198431D01*
X65960Y198281D01*
X65837Y198120D01*
X65798Y198041D01*
X65723Y197903D01*
X65663Y197710D01*
X65616Y197623D01*
X65601Y197574D01*
X65598Y197545D01*
X65587Y197525D01*
X65587Y197520D01*
X65497Y197338D01*
X65190Y196191D01*
X63962Y194064D01*
X62226Y192328D01*
X60100Y191100D01*
X58666Y190716D01*
X58661Y190714D01*
X58655Y190713D01*
X58211Y190492D01*
X57760Y190269D01*
X57756Y190265D01*
X57751Y190262D01*
X57424Y189886D01*
X57338Y189788D01*
X57000Y189655D01*
X56306Y189626D01*
X55823Y189704D01*
X55807Y189711D01*
X55800Y189720D01*
X55519Y189971D01*
X55479Y189995D01*
X55449Y190032D01*
X55341Y190121D01*
X55229Y190182D01*
X55221Y190192D01*
X55201Y190203D01*
X55183Y190224D01*
X55142Y190256D01*
X54998Y191356D01*
X55052Y191648D01*
X55229Y191986D01*
X56674Y192273D01*
X59313Y194037D01*
X61077Y196676D01*
X61696Y199790D01*
X61639D01*
X61248Y201756D01*
X60134Y203424D01*
X58467Y204538D01*
X56500Y204929D01*
X54534Y204538D01*
X52866Y203424D01*
X52814Y203345D01*
X51752Y201756D01*
X51716Y201634D01*
X51593Y201598D01*
X49926Y200484D01*
X48812Y198817D01*
X48421Y196850D01*
X48710Y195401D01*
X47873Y194376D01*
X47732Y194300D01*
X47728Y194301D01*
X19305D01*
X19055Y194251D01*
X18800Y194251D01*
X18741Y194227D01*
X18677Y194224D01*
X18677Y194224D01*
X18503Y194141D01*
X18314Y194104D01*
X18282Y194083D01*
X18282Y194083D01*
X18139Y194023D01*
X17959Y193903D01*
X17866Y193865D01*
X17835Y193844D01*
X17801Y193810D01*
X17763Y193792D01*
X17717Y193742D01*
X17299Y193462D01*
X17299Y193462D01*
X17299Y193462D01*
X16989Y192997D01*
X16918Y192926D01*
X16897Y192895D01*
X16858Y192802D01*
X16738Y192622D01*
X16679Y192479D01*
X16679Y192479D01*
X16657Y192447D01*
X16608Y192197D01*
X16510Y191961D01*
X16510Y191706D01*
X16460Y191456D01*
Y100456D01*
X16504Y100236D01*
X16504Y100235D01*
X16506Y100222D01*
X16504Y100208D01*
X16504Y100181D01*
X16516Y100128D01*
X16521Y99900D01*
X16564Y99704D01*
X16564Y99704D01*
X16603Y99507D01*
X16690Y99297D01*
X16701Y99244D01*
X16711Y99219D01*
X16719Y99207D01*
X16722Y99194D01*
X16722Y99193D01*
X16771Y98973D01*
X17168Y98065D01*
X17288Y97893D01*
X17366Y97698D01*
X17390Y97661D01*
X17582Y97463D01*
X17735Y97234D01*
X17930Y97104D01*
X18094Y96935D01*
X18347Y96826D01*
X18576Y96673D01*
X18583Y96670D01*
X18813Y96625D01*
X19021Y96535D01*
X19274Y96531D01*
X19291Y96524D01*
X19310Y96520D01*
X19340D01*
X19572Y96474D01*
X19797D01*
X19815Y96470D01*
X80207D01*
X121870Y54807D01*
Y19176D01*
X121914Y18956D01*
X121914Y18955D01*
X121916Y18942D01*
X121914Y18928D01*
X121914Y18901D01*
X121926Y18848D01*
X121931Y18620D01*
X121974Y18424D01*
X121974Y18424D01*
X122013Y18227D01*
X122100Y18017D01*
X122111Y17964D01*
X122121Y17939D01*
X122129Y17927D01*
X122132Y17914D01*
X122132Y17913D01*
X122181Y17693D01*
X122578Y16785D01*
X122698Y16613D01*
X122776Y16418D01*
X122800Y16381D01*
X122992Y16183D01*
X123145Y15954D01*
X123340Y15824D01*
X123504Y15655D01*
X123757Y15546D01*
X123986Y15393D01*
X123993Y15390D01*
X124223Y15345D01*
X124431Y15255D01*
X124684Y15251D01*
X124701Y15244D01*
X124720Y15240D01*
X124750D01*
X124982Y15194D01*
X125207D01*
X125225Y15190D01*
X439165D01*
X439353Y15228D01*
X439389D01*
X439451Y15240D01*
X439670D01*
X439858Y15277D01*
X440019Y15344D01*
X440271Y15382D01*
X440288Y15388D01*
X440294Y15392D01*
X440298Y15393D01*
X440337Y15416D01*
X440380Y15425D01*
X440385Y15428D01*
X440395Y15430D01*
X440407Y15435D01*
X440607Y15569D01*
X440612Y15570D01*
X440626Y15579D01*
X440783Y15636D01*
X440947Y15735D01*
X441049Y15828D01*
X441099Y15849D01*
X441114Y15859D01*
X441200Y15946D01*
X441352Y16037D01*
X441362Y16046D01*
X441385Y16078D01*
X441419Y16098D01*
X441517Y16187D01*
X441517Y16187D01*
X441517Y16187D01*
X484189Y55094D01*
X484222Y55139D01*
X484268Y55169D01*
X484271Y55173D01*
X484274Y55177D01*
X484278Y55180D01*
X484279Y55180D01*
X484357Y55298D01*
X484358Y55299D01*
X484359Y55300D01*
X484360Y55300D01*
X484379Y55319D01*
X484441Y55412D01*
X484596Y55567D01*
X484596Y55568D01*
X484600Y55571D01*
X484639Y55629D01*
X484639Y55630D01*
X484640Y55630D01*
X484665Y55669D01*
X484666Y55670D01*
X484668Y55672D01*
X484677Y55686D01*
X484680Y55689D01*
X484686Y55698D01*
X484689Y55704D01*
X484691Y55706D01*
X484691Y55707D01*
X484707Y55745D01*
X484763Y55873D01*
X484788Y55907D01*
X484793Y55928D01*
X484909Y56085D01*
X484913Y56101D01*
X484918Y56108D01*
X484928Y56130D01*
X484932Y56147D01*
X484940Y56159D01*
X484977Y56344D01*
X484982Y56354D01*
X484993Y56371D01*
X484995Y56382D01*
X485076Y56554D01*
X485076Y56556D01*
X485077Y56573D01*
X485079Y56577D01*
X485088Y56614D01*
X485093Y56623D01*
X485093Y56651D01*
X485094Y56653D01*
X485094Y56654D01*
X485094Y56655D01*
X485097Y56666D01*
X485097Y56667D01*
X485097Y56668D01*
X485114Y56735D01*
X485124Y56956D01*
X485151Y57066D01*
X485152Y57079D01*
X485152Y57080D01*
X485169Y57150D01*
X485169Y57151D01*
X485168Y57163D01*
X485187Y57242D01*
X485187Y57247D01*
X485178Y57304D01*
X485190Y57362D01*
Y85040D01*
X690015D01*
X690230Y84897D01*
X690230Y84897D01*
X690445Y84807D01*
X690600Y84776D01*
X690718Y84715D01*
X690846Y84677D01*
X690916Y84670D01*
X690943Y84659D01*
X690943Y84659D01*
X691042Y84659D01*
X691085Y84655D01*
X691089Y84654D01*
X691094Y84651D01*
X691095Y84651D01*
X691100Y84651D01*
X691200Y84621D01*
X691214Y84620D01*
X691216Y84620D01*
X691346Y84581D01*
X691578Y84560D01*
X691580Y84560D01*
X691804Y84540D01*
X691805Y84540D01*
X692023Y84520D01*
X692087Y84527D01*
X692088Y84526D01*
X692092Y84526D01*
X692171Y84534D01*
X692193Y84528D01*
X692314Y84543D01*
X692332Y84542D01*
X692333Y84542D01*
X692335Y84541D01*
X692415Y84526D01*
X692415D01*
X692415Y84526D01*
X692415D01*
X692445Y84531D01*
X692532Y84523D01*
X692554Y84526D01*
X692555Y84526D01*
X692557Y84526D01*
X692597Y84530D01*
X692604Y84532D01*
X692609Y84532D01*
X692624Y84533D01*
X692625Y84533D01*
X692626Y84533D01*
X692627Y84534D01*
X692640Y84535D01*
X692657Y84532D01*
X692685Y84539D01*
X692714Y84536D01*
X692717Y84536D01*
X692734Y84542D01*
X692774Y84543D01*
X692776Y84543D01*
X692780Y84543D01*
X692815Y84544D01*
X692817Y84545D01*
X692819Y84544D01*
X692837Y84545D01*
X693033Y84591D01*
X693043Y84591D01*
X693051Y84593D01*
X693252Y84593D01*
X693340Y84629D01*
X693413Y84634D01*
X693413Y84634D01*
X693539Y84697D01*
X693541Y84697D01*
X693569Y84710D01*
X693748Y84745D01*
X693820Y84775D01*
X693821Y84775D01*
X693821Y84775D01*
X693945Y84827D01*
X694148Y84963D01*
X694186Y84979D01*
X694193Y84983D01*
X694194Y84984D01*
X694196Y84985D01*
X694209Y84991D01*
X694242Y85015D01*
X694462Y85114D01*
X694635Y85239D01*
X694760Y85372D01*
X694785Y85389D01*
X694792Y85399D01*
X694970Y85518D01*
X706724Y97271D01*
X734261Y124808D01*
X734261Y124809D01*
X734441Y124989D01*
X734583Y125202D01*
X734584Y125203D01*
X734585Y125204D01*
X734585Y125205D01*
X734767Y125388D01*
X734769Y125391D01*
X734862Y125616D01*
X734998Y125818D01*
X734999Y125820D01*
X735001Y125826D01*
X735002Y125829D01*
X735006Y125848D01*
X735009Y125853D01*
X735010Y125855D01*
X735012Y125864D01*
X735017Y125871D01*
X735174Y126252D01*
X735176Y126259D01*
X735186Y126275D01*
X735233Y126518D01*
X735327Y126745D01*
X735328Y126998D01*
X735329Y127002D01*
X735331Y127009D01*
X735331Y127022D01*
X735332Y127032D01*
X735332Y127035D01*
X735377Y127268D01*
X735376Y127496D01*
X735378Y127506D01*
X735377Y127510D01*
X735380Y127524D01*
Y174363D01*
X735348Y174521D01*
Y174586D01*
X735330Y174679D01*
Y174868D01*
X735299Y175026D01*
X735247Y175150D01*
X735215Y175407D01*
X735179Y175515D01*
X735178Y175516D01*
X735178Y175517D01*
X735155Y175556D01*
X735151Y175577D01*
X735097Y175659D01*
X735079Y175690D01*
X735023Y175883D01*
X735023Y175884D01*
X734980Y175938D01*
X734980Y175939D01*
X734933Y175997D01*
X734830Y176126D01*
X734677Y176394D01*
X734641Y176436D01*
X734490Y176553D01*
X734393Y176674D01*
X734382Y176681D01*
X734345Y176725D01*
X733699Y177265D01*
X733558Y177342D01*
X733486Y177402D01*
X733403Y177447D01*
X733279Y177551D01*
X733139Y177628D01*
X733138Y177628D01*
X733138Y177628D01*
X733026Y177700D01*
X732876Y177759D01*
X732774Y177824D01*
X732686Y177859D01*
X732575Y177930D01*
X732385Y178005D01*
X732133Y178050D01*
X732086Y178069D01*
X732070Y178069D01*
X731843Y178152D01*
X731615Y178143D01*
X731390Y178184D01*
X731130Y178127D01*
X731116Y178129D01*
X731089Y178128D01*
X731062Y178122D01*
X730833Y178113D01*
X730612Y178060D01*
X730586Y178059D01*
X729540Y177808D01*
X725010Y177451D01*
X703043D01*
X703043Y177451D01*
X702479Y178295D01*
X702479Y178295D01*
X702337Y178507D01*
X702540Y178997D01*
Y181003D01*
X702435Y181257D01*
X702435Y181257D01*
X702337Y181493D01*
X703043Y182549D01*
X725170D01*
X725186Y182552D01*
X725279D01*
X725404Y182540D01*
X725530Y182552D01*
X725659Y182540D01*
X725787Y182552D01*
X725912Y182540D01*
X729390Y182882D01*
X729634Y182957D01*
X729888Y182981D01*
X733378Y184040D01*
X733499Y184105D01*
X733519Y184107D01*
X733562Y184130D01*
X733650Y184148D01*
X733758Y184193D01*
X733938Y184312D01*
X734065Y184365D01*
X734098Y184387D01*
X734160Y184450D01*
X734410Y184583D01*
X734491Y184683D01*
X734598Y184754D01*
X734810Y185070D01*
X735051Y185364D01*
X735088Y185487D01*
X735160Y185594D01*
X735215Y185872D01*
X735257Y185950D01*
X735268Y185988D01*
X735282Y186125D01*
X735344Y186331D01*
X735356Y186448D01*
X735347Y186537D01*
X735357Y186585D01*
X735353Y186605D01*
X735380Y186740D01*
Y443091D01*
X735379Y443095D01*
X735379Y443097D01*
X735379Y443110D01*
X735339Y443311D01*
X735340Y443313D01*
Y443313D01*
X735336Y443333D01*
X735340Y443358D01*
X735338Y443404D01*
X735330Y443439D01*
X735330Y443599D01*
X735329Y443600D01*
X735313Y443640D01*
X735311Y443698D01*
X735272Y443861D01*
Y443861D01*
X735245Y443996D01*
X735167Y444186D01*
X735155Y444243D01*
X735154Y444247D01*
X735153Y444254D01*
Y444273D01*
X735151Y444281D01*
X735144Y444299D01*
X735142Y444304D01*
X735125Y444346D01*
X735098Y444481D01*
X735028Y444650D01*
X735009Y444749D01*
X735007Y444753D01*
X735006Y444761D01*
X735005Y444763D01*
X734999Y444772D01*
X734998Y444775D01*
X734862Y444978D01*
X734766Y445211D01*
X734762Y445218D01*
X734582Y445399D01*
X734576Y445408D01*
X734574Y445412D01*
X734573Y445413D01*
X734571Y445416D01*
X734445Y445604D01*
X734443Y445606D01*
X734436Y445615D01*
X734262Y445790D01*
X734261Y445791D01*
X734256Y445796D01*
X734255Y445797D01*
X734253Y445800D01*
X734082Y445971D01*
X734080Y445972D01*
X734080Y445973D01*
X733932Y446120D01*
X733721Y446261D01*
X733689Y446293D01*
X733688Y446293D01*
X733688Y446294D01*
X733687Y446294D01*
X733670Y446301D01*
X733485Y446477D01*
X733415Y446521D01*
X733215Y446598D01*
X733091Y446681D01*
X733085Y446682D01*
X733019Y446726D01*
X732841Y446799D01*
X732840Y446799D01*
X732638Y446883D01*
X732636Y446884D01*
X732626Y446890D01*
X732378Y446939D01*
X732144Y447037D01*
X732138D01*
X732133Y447039D01*
X732131Y447039D01*
X731880Y447038D01*
X731634Y447087D01*
X731385Y447086D01*
X731383Y447087D01*
X731380D01*
X731380Y447087D01*
X731379D01*
X731376Y447086D01*
X731373Y447087D01*
D02*
G37*
G36*
X911791Y422600D02*
X909389D01*
X907169Y421680D01*
X905470Y419981D01*
X904550Y417761D01*
Y415359D01*
X905470Y413139D01*
X907169Y411440D01*
X909389Y410520D01*
X911791D01*
X914011Y411440D01*
X915711Y413139D01*
X916630Y415359D01*
Y417761D01*
X915711Y419981D01*
X914011Y421680D01*
X911791Y422600D01*
D02*
G37*
G36*
X775901Y402280D02*
X773499D01*
X771279Y401361D01*
X769579Y399661D01*
X768660Y397441D01*
Y395039D01*
X769579Y392819D01*
X771279Y391119D01*
X773499Y390200D01*
X775901D01*
X778121Y391119D01*
X779820Y392819D01*
X780740Y395039D01*
Y397441D01*
X779820Y399661D01*
X778121Y401361D01*
X775901Y402280D01*
D02*
G37*
G36*
X1331459Y395755D02*
X1328321D01*
X1325291Y394943D01*
X1322574Y393374D01*
X1320356Y391156D01*
X1318787Y388439D01*
X1318014Y385555D01*
X1317618Y385507D01*
X1317162D01*
X1316766Y385555D01*
X1315993Y388439D01*
X1314424Y391156D01*
X1312206Y393374D01*
X1309489Y394943D01*
X1306459Y395755D01*
X1303321D01*
X1300291Y394943D01*
X1297574Y393374D01*
X1295356Y391156D01*
X1293787Y388439D01*
X1293014Y385555D01*
X1292618Y385507D01*
X1292162D01*
X1291766Y385555D01*
X1290993Y388439D01*
X1289424Y391156D01*
X1287206Y393374D01*
X1284489Y394943D01*
X1281459Y395755D01*
X1278321D01*
X1275291Y394943D01*
X1272574Y393374D01*
X1270356Y391156D01*
X1268787Y388439D01*
X1267975Y385409D01*
Y382271D01*
X1268787Y379241D01*
X1270356Y376524D01*
X1272574Y374306D01*
X1275291Y372737D01*
X1278175Y371964D01*
X1278223Y371568D01*
Y371112D01*
X1278175Y370716D01*
X1275291Y369943D01*
X1272574Y368374D01*
X1270356Y366156D01*
X1268787Y363439D01*
X1267975Y360409D01*
Y357271D01*
X1268787Y354241D01*
X1270356Y351524D01*
X1272574Y349306D01*
X1275291Y347737D01*
X1278321Y346925D01*
X1281459D01*
X1284489Y347737D01*
X1287206Y349306D01*
X1289424Y351524D01*
X1290993Y354241D01*
X1291766Y357125D01*
X1292162Y357173D01*
X1292618D01*
X1293014Y357125D01*
X1293787Y354241D01*
X1295356Y351524D01*
X1297574Y349306D01*
X1300291Y347737D01*
X1303321Y346925D01*
X1306459D01*
X1309489Y347737D01*
X1312206Y349306D01*
X1314424Y351524D01*
X1315993Y354241D01*
X1316766Y357125D01*
X1317162Y357173D01*
X1317618D01*
X1318014Y357125D01*
X1318787Y354241D01*
X1320356Y351524D01*
X1322574Y349306D01*
X1325291Y347737D01*
X1328321Y346925D01*
X1331459D01*
X1332620Y347236D01*
X1333850Y346251D01*
Y343741D01*
X1335150Y340602D01*
X1337552Y338200D01*
X1340691Y336900D01*
X1344089D01*
X1347227Y338200D01*
X1349630Y340602D01*
X1350930Y343741D01*
Y346251D01*
X1352160Y347236D01*
X1353321Y346925D01*
X1356459D01*
X1359489Y347737D01*
X1362206Y349306D01*
X1364424Y351524D01*
X1365993Y354241D01*
X1366766Y357125D01*
X1367162Y357173D01*
X1367618D01*
X1368014Y357125D01*
X1368787Y354241D01*
X1370356Y351524D01*
X1372574Y349306D01*
X1375291Y347737D01*
X1378321Y346925D01*
X1381459D01*
X1384489Y347737D01*
X1387206Y349306D01*
X1389424Y351524D01*
X1390993Y354241D01*
X1391766Y357125D01*
X1392162Y357173D01*
X1392618D01*
X1393014Y357125D01*
X1393787Y354241D01*
X1395356Y351524D01*
X1397574Y349306D01*
X1400291Y347737D01*
X1403321Y346925D01*
X1406459D01*
X1409489Y347737D01*
X1412206Y349306D01*
X1414424Y351524D01*
X1415993Y354241D01*
X1416805Y357271D01*
Y360409D01*
X1415993Y363439D01*
X1414424Y366156D01*
X1412206Y368374D01*
X1409489Y369943D01*
X1406459Y370755D01*
X1403321D01*
X1400291Y369943D01*
X1397574Y368374D01*
X1395356Y366156D01*
X1393787Y363439D01*
X1393014Y360555D01*
X1392618Y360507D01*
X1392162D01*
X1391766Y360555D01*
X1390993Y363439D01*
X1389424Y366156D01*
X1387206Y368374D01*
X1384489Y369943D01*
X1381459Y370755D01*
X1378321D01*
X1375291Y369943D01*
X1372574Y368374D01*
X1370356Y366156D01*
X1368787Y363439D01*
X1368014Y360555D01*
X1367618Y360507D01*
X1367162D01*
X1366766Y360555D01*
X1365993Y363439D01*
X1364424Y366156D01*
X1362206Y368374D01*
X1359489Y369943D01*
X1356459Y370755D01*
X1353321D01*
X1350291Y369943D01*
X1347574Y368374D01*
X1345356Y366156D01*
X1343787Y363439D01*
X1343014Y360555D01*
X1342618Y360507D01*
X1342162D01*
X1341766Y360555D01*
X1340993Y363439D01*
X1339424Y366156D01*
X1337206Y368374D01*
X1334489Y369943D01*
X1331605Y370716D01*
X1331557Y371112D01*
Y371568D01*
X1331605Y371964D01*
X1334489Y372737D01*
X1337206Y374306D01*
X1339424Y376524D01*
X1340993Y379241D01*
X1341805Y382271D01*
Y385409D01*
X1340993Y388439D01*
X1339424Y391156D01*
X1337206Y393374D01*
X1334489Y394943D01*
X1331459Y395755D01*
D02*
G37*
G36*
X792213Y321270D02*
X790208D01*
X788355Y320503D01*
X786937Y319085D01*
X786170Y317232D01*
Y315228D01*
X786937Y313375D01*
X788355Y311957D01*
X790208Y311190D01*
X792213D01*
X794065Y311957D01*
X795483Y313375D01*
X796250Y315228D01*
Y317232D01*
X795483Y319085D01*
X794065Y320503D01*
X792213Y321270D01*
D02*
G37*
G36*
X959853Y321240D02*
X957848D01*
X955995Y320473D01*
X954577Y319055D01*
X953810Y317202D01*
Y315198D01*
X954577Y313345D01*
X955995Y311927D01*
X957848Y311160D01*
X959853D01*
X961705Y311927D01*
X963123Y313345D01*
X963890Y315198D01*
Y317202D01*
X963123Y319055D01*
X961705Y320473D01*
X959853Y321240D01*
D02*
G37*
G36*
X948422Y308540D02*
X946417D01*
X944565Y307773D01*
X943147Y306355D01*
X942380Y304503D01*
Y302498D01*
X943147Y300645D01*
X944565Y299227D01*
X946417Y298460D01*
X948422D01*
X950275Y299227D01*
X951693Y300645D01*
X952460Y302498D01*
Y304503D01*
X951693Y306355D01*
X950275Y307773D01*
X948422Y308540D01*
D02*
G37*
G36*
X959853Y295840D02*
X957848D01*
X955995Y295073D01*
X954577Y293655D01*
X953810Y291803D01*
Y289797D01*
X954577Y287945D01*
X955995Y286527D01*
X957848Y285760D01*
X959853D01*
X961705Y286527D01*
X963123Y287945D01*
X963890Y289797D01*
Y291803D01*
X963123Y293655D01*
X961705Y295073D01*
X959853Y295840D01*
D02*
G37*
G36*
X945882Y283140D02*
X943877D01*
X942025Y282373D01*
X940607Y280955D01*
X939840Y279102D01*
Y277097D01*
X940607Y275245D01*
X942025Y273827D01*
X943877Y273060D01*
X945882D01*
X947735Y273827D01*
X949153Y275245D01*
X949920Y277097D01*
Y279102D01*
X949153Y280955D01*
X947735Y282373D01*
X945882Y283140D01*
D02*
G37*
G36*
X958583Y270440D02*
X956578D01*
X954725Y269673D01*
X953307Y268255D01*
X952540Y266402D01*
Y264398D01*
X953307Y262545D01*
X954725Y261127D01*
X956578Y260360D01*
X958583D01*
X960435Y261127D01*
X961853Y262545D01*
X962620Y264398D01*
Y266402D01*
X961853Y268255D01*
X960435Y269673D01*
X958583Y270440D01*
D02*
G37*
G36*
X944613Y257740D02*
X942607D01*
X940755Y256973D01*
X939337Y255555D01*
X938570Y253703D01*
Y251698D01*
X939337Y249845D01*
X940755Y248427D01*
X942607Y247660D01*
X944613D01*
X946465Y248427D01*
X947883Y249845D01*
X948650Y251698D01*
Y253703D01*
X947883Y255555D01*
X946465Y256973D01*
X944613Y257740D01*
D02*
G37*
G36*
X962393Y219640D02*
X960387D01*
X958535Y218873D01*
X957117Y217455D01*
X956350Y215602D01*
Y213598D01*
X957117Y211745D01*
X958535Y210327D01*
X960387Y209560D01*
X962393D01*
X964245Y210327D01*
X965663Y211745D01*
X966430Y213598D01*
Y215602D01*
X965663Y217455D01*
X964245Y218873D01*
X962393Y219640D01*
D02*
G37*
G36*
X1347899Y242220D02*
X1344501D01*
X1341362Y240920D01*
X1338960Y238517D01*
X1337660Y235379D01*
Y231981D01*
X1338960Y228843D01*
X1341362Y226440D01*
X1344501Y225140D01*
X1346352D01*
X1347327Y223870D01*
X1346785Y221849D01*
Y218711D01*
X1347597Y215681D01*
X1349166Y212964D01*
X1351384Y210746D01*
X1354101Y209177D01*
X1356985Y208404D01*
X1357033Y208008D01*
Y207552D01*
X1356985Y207156D01*
X1354101Y206383D01*
X1351384Y204814D01*
X1349166Y202596D01*
X1347597Y199879D01*
X1346824Y196995D01*
X1346428Y196947D01*
X1345972D01*
X1345576Y196995D01*
X1344803Y199879D01*
X1343234Y202596D01*
X1341016Y204814D01*
X1338299Y206383D01*
X1335269Y207195D01*
X1332131D01*
X1329101Y206383D01*
X1326384Y204814D01*
X1324166Y202596D01*
X1322597Y199879D01*
X1321824Y196995D01*
X1321428Y196947D01*
X1320972D01*
X1320576Y196995D01*
X1319803Y199879D01*
X1318234Y202596D01*
X1316016Y204814D01*
X1313299Y206383D01*
X1310415Y207156D01*
X1310367Y207552D01*
Y208008D01*
X1310415Y208404D01*
X1313299Y209177D01*
X1316016Y210746D01*
X1318234Y212964D01*
X1319803Y215681D01*
X1320615Y218711D01*
Y221849D01*
X1319803Y224879D01*
X1318234Y227596D01*
X1316016Y229814D01*
X1313299Y231383D01*
X1310269Y232195D01*
X1307131D01*
X1304101Y231383D01*
X1301384Y229814D01*
X1299166Y227596D01*
X1297597Y224879D01*
X1296824Y221995D01*
X1296428Y221947D01*
X1295972D01*
X1295576Y221995D01*
X1294803Y224879D01*
X1293234Y227596D01*
X1291016Y229814D01*
X1288299Y231383D01*
X1285269Y232195D01*
X1282131D01*
X1279101Y231383D01*
X1276384Y229814D01*
X1274166Y227596D01*
X1272597Y224879D01*
X1271785Y221849D01*
Y218711D01*
X1272597Y215681D01*
X1274166Y212964D01*
X1276384Y210746D01*
X1279101Y209177D01*
X1281985Y208404D01*
X1282033Y208008D01*
Y207552D01*
X1281985Y207156D01*
X1279101Y206383D01*
X1276384Y204814D01*
X1274166Y202596D01*
X1272597Y199879D01*
X1271785Y196849D01*
Y193711D01*
X1272597Y190681D01*
X1274166Y187964D01*
X1276384Y185746D01*
X1279101Y184177D01*
X1282131Y183365D01*
X1285269D01*
X1288299Y184177D01*
X1291016Y185746D01*
X1293234Y187964D01*
X1294803Y190681D01*
X1295576Y193565D01*
X1295972Y193613D01*
X1296428D01*
X1296824Y193565D01*
X1297597Y190681D01*
X1299166Y187964D01*
X1301384Y185746D01*
X1304101Y184177D01*
X1307131Y183365D01*
X1310269D01*
X1313299Y184177D01*
X1316016Y185746D01*
X1318234Y187964D01*
X1319803Y190681D01*
X1320576Y193565D01*
X1320972Y193613D01*
X1321428D01*
X1321824Y193565D01*
X1322597Y190681D01*
X1324166Y187964D01*
X1326384Y185746D01*
X1329101Y184177D01*
X1332131Y183365D01*
X1335269D01*
X1338299Y184177D01*
X1341016Y185746D01*
X1343234Y187964D01*
X1344803Y190681D01*
X1345576Y193565D01*
X1345972Y193613D01*
X1346428D01*
X1346824Y193565D01*
X1347597Y190681D01*
X1349166Y187964D01*
X1351384Y185746D01*
X1354101Y184177D01*
X1357131Y183365D01*
X1360269D01*
X1363299Y184177D01*
X1366016Y185746D01*
X1368234Y187964D01*
X1369803Y190681D01*
X1370576Y193565D01*
X1370972Y193613D01*
X1371428D01*
X1371824Y193565D01*
X1372597Y190681D01*
X1374166Y187964D01*
X1376384Y185746D01*
X1379101Y184177D01*
X1382131Y183365D01*
X1385269D01*
X1388299Y184177D01*
X1391016Y185746D01*
X1393234Y187964D01*
X1394803Y190681D01*
X1395576Y193565D01*
X1395972Y193613D01*
X1396428D01*
X1396824Y193565D01*
X1397597Y190681D01*
X1399166Y187964D01*
X1401384Y185746D01*
X1404101Y184177D01*
X1407131Y183365D01*
X1410269D01*
X1413299Y184177D01*
X1416016Y185746D01*
X1418234Y187964D01*
X1419803Y190681D01*
X1420615Y193711D01*
Y196849D01*
X1419803Y199879D01*
X1418234Y202596D01*
X1416016Y204814D01*
X1413299Y206383D01*
X1410415Y207156D01*
X1410367Y207552D01*
Y208008D01*
X1410415Y208404D01*
X1413299Y209177D01*
X1416016Y210746D01*
X1418234Y212964D01*
X1419803Y215681D01*
X1420615Y218711D01*
Y221849D01*
X1419803Y224879D01*
X1418234Y227596D01*
X1416016Y229814D01*
X1413299Y231383D01*
X1410269Y232195D01*
X1407131D01*
X1404101Y231383D01*
X1401384Y229814D01*
X1399166Y227596D01*
X1397597Y224879D01*
X1396824Y221995D01*
X1396428Y221947D01*
X1395972D01*
X1395576Y221995D01*
X1394803Y224879D01*
X1393234Y227596D01*
X1391016Y229814D01*
X1388299Y231383D01*
X1385269Y232195D01*
X1382131D01*
X1379101Y231383D01*
X1376384Y229814D01*
X1374166Y227596D01*
X1372597Y224879D01*
X1371824Y221995D01*
X1371428Y221947D01*
X1370972D01*
X1370576Y221995D01*
X1369803Y224879D01*
X1368234Y227596D01*
X1366016Y229814D01*
X1363299Y231383D01*
X1360269Y232195D01*
X1357131D01*
X1355970Y231884D01*
X1354740Y232869D01*
Y235379D01*
X1353440Y238517D01*
X1351037Y240920D01*
X1347899Y242220D01*
D02*
G37*
G36*
X948422Y206940D02*
X946417D01*
X944565Y206173D01*
X943147Y204755D01*
X942380Y202903D01*
Y200898D01*
X943147Y199045D01*
X944565Y197627D01*
X946417Y196860D01*
X948422D01*
X950275Y197627D01*
X951693Y199045D01*
X952460Y200898D01*
Y202903D01*
X951693Y204755D01*
X950275Y206173D01*
X948422Y206940D01*
D02*
G37*
G36*
X956498Y189615D02*
X954493D01*
X952641Y188848D01*
X951223Y187430D01*
X950455Y185578D01*
Y183573D01*
X951223Y181721D01*
X952641Y180303D01*
X954493Y179536D01*
X956498D01*
X958351Y180303D01*
X959768Y181721D01*
X960536Y183573D01*
Y185578D01*
X959768Y187430D01*
X958351Y188848D01*
X956498Y189615D01*
D02*
G37*
G36*
X1183372Y167600D02*
X1181367D01*
X1179515Y166833D01*
X1178097Y165415D01*
X1177330Y163563D01*
Y161558D01*
X1178097Y159705D01*
X1179515Y158287D01*
X1181367Y157520D01*
X1183372D01*
X1185225Y158287D01*
X1186643Y159705D01*
X1187410Y161558D01*
Y163563D01*
X1186643Y165415D01*
X1185225Y166833D01*
X1183372Y167600D01*
D02*
G37*
G36*
X757923Y148360D02*
X755918D01*
X754065Y147593D01*
X752647Y146175D01*
X751880Y144323D01*
Y142317D01*
X752647Y140465D01*
X754065Y139047D01*
X755918Y138280D01*
X757923D01*
X759775Y139047D01*
X761193Y140465D01*
X761960Y142317D01*
Y144323D01*
X761193Y146175D01*
X759775Y147593D01*
X757923Y148360D01*
D02*
G37*
G36*
X796022Y118070D02*
X794017D01*
X792165Y117303D01*
X790747Y115885D01*
X789980Y114032D01*
Y112028D01*
X790747Y110175D01*
X792165Y108757D01*
X794017Y107990D01*
X796022D01*
X797875Y108757D01*
X799293Y110175D01*
X800060Y112028D01*
Y114032D01*
X799293Y115885D01*
X797875Y117303D01*
X796022Y118070D01*
D02*
G37*
G36*
X783323Y88860D02*
X781318D01*
X779465Y88093D01*
X778047Y86675D01*
X777280Y84823D01*
Y82817D01*
X778047Y80965D01*
X779465Y79547D01*
X781318Y78780D01*
X783323D01*
X785175Y79547D01*
X786593Y80965D01*
X787360Y82817D01*
Y84823D01*
X786593Y86675D01*
X785175Y88093D01*
X783323Y88860D01*
D02*
G37*
G36*
X771711Y47060D02*
X769309D01*
X767089Y46140D01*
X765389Y44441D01*
X764470Y42221D01*
Y39819D01*
X765389Y37599D01*
X767089Y35900D01*
X769309Y34980D01*
X771711D01*
X773931Y35900D01*
X775630Y37599D01*
X776550Y39819D01*
Y42221D01*
X775630Y44441D01*
X773931Y46140D01*
X771711Y47060D01*
D02*
G37*
%LPD*%
G36*
X731379Y444497D02*
X731380D01*
X731380Y444497D01*
X731383D01*
X731385Y444497D01*
X731637Y444497D01*
X731638Y444496D01*
X731649Y444490D01*
X731851Y444406D01*
X731853Y444406D01*
X731854Y444405D01*
X732032Y444331D01*
X732102Y444287D01*
X732250Y444140D01*
X732250Y444139D01*
X732251Y444139D01*
X732252Y444138D01*
X732252Y444138D01*
X732423Y443967D01*
X732425Y443965D01*
X732430Y443960D01*
X732430Y443959D01*
X732606Y443783D01*
X732610Y443777D01*
X732611Y443775D01*
X732613Y443767D01*
X732615Y443760D01*
Y443739D01*
X732627Y443681D01*
X732705Y443491D01*
Y443491D01*
X732732Y443355D01*
X732750Y443313D01*
Y443313D01*
X732751Y443268D01*
X732790Y443105D01*
X732790Y443092D01*
X732790Y443091D01*
Y186740D01*
X732779Y186702D01*
X732767Y186585D01*
X732659Y186540D01*
X732626Y186518D01*
X729136Y185460D01*
X725658Y185117D01*
X725533Y185130D01*
X725405Y185117D01*
X725279Y185142D01*
X725186D01*
X725170Y185139D01*
X703043D01*
X702792Y185089D01*
X702537D01*
X702302Y184991D01*
X702051Y184942D01*
X701839Y184800D01*
X701604Y184702D01*
X701423Y184522D01*
X701211Y184380D01*
X701070Y184168D01*
X700889Y183988D01*
X700184Y182932D01*
X700086Y182696D01*
X699944Y182484D01*
X699895Y182234D01*
X699797Y181998D01*
Y181743D01*
X699747Y181493D01*
X699797Y181243D01*
Y180988D01*
X699895Y180752D01*
X699944Y180502D01*
X699950Y180487D01*
Y179513D01*
X699944Y179498D01*
X699895Y179248D01*
X699797Y179012D01*
Y178757D01*
X699747Y178507D01*
X699797Y178257D01*
Y178002D01*
X699895Y177766D01*
X699944Y177516D01*
X700086Y177304D01*
X700184Y177068D01*
X700889Y176012D01*
X701070Y175832D01*
X701211Y175620D01*
X701423Y175478D01*
X701604Y175298D01*
X701839Y175200D01*
X702051Y175058D01*
X702302Y175009D01*
X702537Y174911D01*
X702792D01*
X703043Y174861D01*
X725010D01*
X725111Y174881D01*
X725213Y174869D01*
X729743Y175226D01*
X729940Y175281D01*
X730145Y175289D01*
X731190Y175540D01*
X731217Y175541D01*
X731438Y175595D01*
X731628Y175520D01*
X731740Y175448D01*
X731827Y175414D01*
X731898Y175354D01*
X732039Y175278D01*
X732686Y174737D01*
X732722Y174696D01*
X732723Y174694D01*
X732759Y174586D01*
Y174521D01*
X732790Y174363D01*
Y127524D01*
X732788Y127514D01*
X732788Y127500D01*
X732787Y127499D01*
X732786Y127492D01*
X732788Y127251D01*
X732782Y127243D01*
X732624Y126862D01*
X732622Y126852D01*
X732617Y126844D01*
X732616Y126842D01*
X732612Y126825D01*
X732611Y126823D01*
X732610Y126820D01*
X732430Y126641D01*
X732429Y126639D01*
X704892Y99102D01*
X693139Y87349D01*
X693127Y87344D01*
X692953Y87219D01*
X692756Y87138D01*
X692750Y87133D01*
X692732Y87133D01*
X692731Y87133D01*
X692603Y87128D01*
X692569Y87121D01*
X692569Y87121D01*
X692549Y87122D01*
X692548Y87122D01*
X692547Y87122D01*
X692546Y87123D01*
X692504Y87118D01*
X692471Y87117D01*
X692452Y87113D01*
X692449Y87112D01*
X692427Y87114D01*
X692427Y87114D01*
X692417Y87115D01*
X692416Y87115D01*
X692415Y87115D01*
X692415D01*
X692415Y87115D01*
X692415D01*
X692414Y87115D01*
X692414Y87115D01*
X692377Y87111D01*
X692377Y87111D01*
X692376Y87111D01*
X692335Y87107D01*
X692334Y87106D01*
X692333Y87106D01*
X692328Y87105D01*
X692323Y87105D01*
X692283Y87101D01*
X692282Y87101D01*
X692259Y87099D01*
X692040Y87119D01*
X692038Y87119D01*
X691814Y87139D01*
X691813Y87139D01*
X691580Y87161D01*
X691451Y87198D01*
X691451Y87199D01*
X691451D01*
X691451Y87199D01*
X691437Y87200D01*
X691221Y87289D01*
X690880Y87630D01*
X482600D01*
Y85040D01*
Y57362D01*
X482600Y57356D01*
X482583Y57290D01*
X482583Y57288D01*
X482583Y57287D01*
X482580Y57275D01*
X482579Y57269D01*
X482577Y57264D01*
X482576Y57261D01*
X482575Y57240D01*
X482565Y57196D01*
X482564Y57184D01*
X482564Y57182D01*
X482557Y57173D01*
X482547Y57150D01*
X482528Y57131D01*
X482528Y57130D01*
X482527Y57130D01*
X482526Y57129D01*
X482486Y57069D01*
X482447Y57011D01*
X482447Y57011D01*
X482447Y57011D01*
X482444Y57008D01*
X482444Y57008D01*
X439772Y18101D01*
X439771Y18100D01*
X439674Y18011D01*
X439659Y18001D01*
X439619Y17961D01*
X439608Y17952D01*
X439445Y17853D01*
X439418Y17828D01*
X439406Y17823D01*
X439389Y17817D01*
X439353D01*
X439165Y17780D01*
X125225D01*
X125207Y17784D01*
X124982D01*
X124975Y17787D01*
X124951Y17824D01*
X124553Y18732D01*
X124514Y18929D01*
X124504Y18954D01*
X124503Y18980D01*
X124460Y19176D01*
Y55880D01*
X81280Y99060D01*
X19815D01*
X19797Y99064D01*
X19572D01*
X19565Y99067D01*
X19540Y99104D01*
X19143Y100012D01*
X19104Y100209D01*
X19094Y100234D01*
X19093Y100260D01*
X19050Y100456D01*
Y191456D01*
X19071Y191488D01*
X19130Y191631D01*
X19273Y191690D01*
X19305Y191711D01*
X19305Y191711D01*
X47728D01*
X49184Y190256D01*
X51901Y188687D01*
X53377Y188291D01*
X53515Y188216D01*
X53565Y188201D01*
X53606Y188169D01*
X53685Y188131D01*
X53793Y188041D01*
X54073Y187790D01*
X54094Y187348D01*
X54024Y186695D01*
X53916Y186433D01*
X51901Y185893D01*
X49184Y184324D01*
X46966Y182106D01*
X45397Y179389D01*
X44585Y176359D01*
Y173221D01*
X45397Y170191D01*
X46966Y167474D01*
X49184Y165256D01*
X51901Y163687D01*
X54785Y162914D01*
X54833Y162518D01*
Y162062D01*
X54785Y161666D01*
X51901Y160893D01*
X49184Y159324D01*
X46966Y157106D01*
X45397Y154389D01*
X44585Y151359D01*
Y148221D01*
X45397Y145191D01*
X46966Y142474D01*
X49184Y140256D01*
X51901Y138687D01*
X54785Y137914D01*
X54833Y137518D01*
Y137062D01*
X54785Y136666D01*
X51901Y135893D01*
X49184Y134324D01*
X46966Y132106D01*
X45397Y129389D01*
X44585Y126359D01*
Y123221D01*
X45397Y120191D01*
X46966Y117474D01*
X49184Y115256D01*
X51901Y113687D01*
X54931Y112875D01*
X58069D01*
X61099Y113687D01*
X63816Y115256D01*
X66034Y117474D01*
X67603Y120191D01*
X68376Y123075D01*
X68772Y123123D01*
X69228D01*
X69624Y123075D01*
X70397Y120191D01*
X71966Y117474D01*
X74184Y115256D01*
X76901Y113687D01*
X79931Y112875D01*
X83069D01*
X86099Y113687D01*
X88816Y115256D01*
X91034Y117474D01*
X92603Y120191D01*
X93415Y123221D01*
Y126359D01*
X92603Y129389D01*
X91034Y132106D01*
X88816Y134324D01*
X86099Y135893D01*
X83215Y136666D01*
X83167Y137062D01*
Y137518D01*
X83215Y137914D01*
X86099Y138687D01*
X88816Y140256D01*
X91034Y142474D01*
X92603Y145191D01*
X93415Y148221D01*
Y151359D01*
X92603Y154389D01*
X91034Y157106D01*
X88816Y159324D01*
X86099Y160893D01*
X83215Y161666D01*
X83167Y162062D01*
Y162518D01*
X83215Y162914D01*
X86099Y163687D01*
X88816Y165256D01*
X91034Y167474D01*
X92603Y170191D01*
X93415Y173221D01*
Y176359D01*
X93032Y177788D01*
X94089Y178750D01*
X96024D01*
X98196Y179332D01*
X100144Y180456D01*
X101734Y182046D01*
X102858Y183994D01*
X103440Y186166D01*
Y188414D01*
X102858Y190586D01*
X101734Y192534D01*
X100144Y194124D01*
X98196Y195248D01*
X96024Y195830D01*
X94089D01*
X93032Y196792D01*
X93415Y198221D01*
Y201359D01*
X92603Y204389D01*
X91034Y207106D01*
X88816Y209324D01*
X86099Y210893D01*
X83215Y211666D01*
X83167Y212062D01*
Y212518D01*
X83215Y212914D01*
X86099Y213687D01*
X88816Y215256D01*
X91034Y217474D01*
X92603Y220191D01*
X93415Y223221D01*
Y226359D01*
X92603Y229389D01*
X91034Y232106D01*
X88816Y234324D01*
X86099Y235893D01*
X83215Y236666D01*
X83167Y237062D01*
Y237518D01*
X83215Y237914D01*
X86099Y238687D01*
X88816Y240256D01*
X91034Y242474D01*
X92603Y245191D01*
X93415Y248221D01*
Y251359D01*
X92603Y254389D01*
X91034Y257106D01*
X88816Y259324D01*
X86099Y260893D01*
X83069Y261705D01*
X79931D01*
X76901Y260893D01*
X74184Y259324D01*
X71966Y257106D01*
X70397Y254389D01*
X69585Y251359D01*
Y248221D01*
X70397Y245191D01*
X71966Y242474D01*
X74184Y240256D01*
X76901Y238687D01*
X79785Y237914D01*
X79833Y237518D01*
Y237062D01*
X79785Y236666D01*
X76901Y235893D01*
X74184Y234324D01*
X71966Y232106D01*
X70397Y229389D01*
X69585Y226359D01*
Y223221D01*
X70397Y220191D01*
X71966Y217474D01*
X74184Y215256D01*
X76901Y213687D01*
X79785Y212914D01*
X79833Y212518D01*
Y212062D01*
X79785Y211666D01*
X76901Y210893D01*
X74184Y209324D01*
X71966Y207106D01*
X70397Y204389D01*
X69996Y202894D01*
X68594Y202330D01*
X68075Y202627D01*
X67603Y204389D01*
X67432Y204684D01*
X67432Y204684D01*
X66034Y207106D01*
X63816Y209324D01*
X61099Y210893D01*
X58069Y211705D01*
X54931D01*
X51901Y210893D01*
X51606Y210723D01*
X51606Y210723D01*
X49184Y209324D01*
X46966Y207106D01*
X45397Y204389D01*
X44808Y202192D01*
X44794Y202170D01*
X44731Y202019D01*
X44569Y201997D01*
X44543Y201989D01*
X19305D01*
X19273Y202010D01*
X19130Y202069D01*
X19071Y202212D01*
X19050Y202244D01*
X19050Y202244D01*
Y202499D01*
Y423985D01*
X19050Y423986D01*
X19078Y424091D01*
X19081Y424144D01*
X19087Y424159D01*
X19098Y424181D01*
X19135Y424218D01*
X19196Y424309D01*
X38323Y441186D01*
X40300Y442930D01*
X40300Y442930D01*
X40308Y442937D01*
X40308Y442937D01*
X40326Y442953D01*
X40348Y442966D01*
X40463Y443069D01*
X40488Y443084D01*
X40489Y443085D01*
X40508Y443096D01*
X40509Y443096D01*
X40594Y443146D01*
X40595Y443147D01*
X40595Y443147D01*
X40631Y443178D01*
X40644Y443186D01*
X40647Y443188D01*
X40652Y443189D01*
X40652Y443189D01*
X40666Y443194D01*
X40694Y443193D01*
X40694Y443193D01*
X40706Y443197D01*
X40729Y443197D01*
X40771Y443206D01*
X40772Y443206D01*
X40895Y443230D01*
X41095Y443231D01*
X41095Y443231D01*
X41095D01*
X41095Y443231D01*
X41121Y443231D01*
X41122Y443231D01*
X327208Y443756D01*
X696734Y444434D01*
X731378Y444497D01*
X731379Y444497D01*
D02*
G37*
G36*
X69593Y197314D02*
X69857Y197206D01*
X70397Y195191D01*
X71966Y192474D01*
X74184Y190256D01*
X76901Y188687D01*
X79785Y187914D01*
X79833Y187518D01*
Y187062D01*
X79785Y186666D01*
X76901Y185893D01*
X74184Y184324D01*
X71966Y182106D01*
X70397Y179389D01*
X69624Y176505D01*
X69228Y176457D01*
X68772D01*
X68376Y176505D01*
X67603Y179389D01*
X66034Y182106D01*
X63816Y184324D01*
X61099Y185893D01*
X59604Y186294D01*
X59040Y187696D01*
X59337Y188215D01*
X61099Y188687D01*
X61394Y188857D01*
X61394Y188857D01*
X63816Y190256D01*
X66034Y192474D01*
X67603Y195191D01*
X67999Y196667D01*
X68074Y196805D01*
X68089Y196855D01*
X68120Y196896D01*
X68159Y196975D01*
X68250Y197083D01*
X68500Y197363D01*
X68942Y197384D01*
X69593Y197314D01*
D02*
G37*
G36*
X69624Y173075D02*
X70397Y170191D01*
X71966Y167474D01*
X74184Y165256D01*
X76901Y163687D01*
X79785Y162914D01*
X79833Y162518D01*
Y162062D01*
X79785Y161666D01*
X76901Y160893D01*
X74184Y159324D01*
X71966Y157106D01*
X70397Y154389D01*
X69624Y151505D01*
X69228Y151457D01*
X68772D01*
X68376Y151505D01*
X67603Y154389D01*
X66034Y157106D01*
X63816Y159324D01*
X61099Y160893D01*
X58215Y161666D01*
X58167Y162062D01*
Y162518D01*
X58215Y162914D01*
X61099Y163687D01*
X63816Y165256D01*
X66034Y167474D01*
X67603Y170191D01*
X68376Y173075D01*
X68772Y173123D01*
X69228D01*
X69624Y173075D01*
D02*
G37*
G36*
Y148075D02*
X70397Y145191D01*
X71966Y142474D01*
X74184Y140256D01*
X76901Y138687D01*
X79785Y137914D01*
X79833Y137518D01*
Y137062D01*
X79785Y136666D01*
X76901Y135893D01*
X74184Y134324D01*
X71966Y132106D01*
X70397Y129389D01*
X69624Y126505D01*
X69228Y126457D01*
X68772D01*
X68376Y126505D01*
X67603Y129389D01*
X66034Y132106D01*
X63816Y134324D01*
X61099Y135893D01*
X58215Y136666D01*
X58167Y137062D01*
Y137518D01*
X58215Y137914D01*
X61099Y138687D01*
X63816Y140256D01*
X66034Y142474D01*
X67603Y145191D01*
X68376Y148075D01*
X68772Y148123D01*
X69228D01*
X69624Y148075D01*
D02*
G37*
%LPC*%
G36*
X109119Y430685D02*
X105981D01*
X102951Y429873D01*
X100234Y428304D01*
X98016Y426086D01*
X96447Y423369D01*
X95674Y420485D01*
X95278Y420437D01*
X94822D01*
X94426Y420485D01*
X93653Y423369D01*
X92084Y426086D01*
X89866Y428304D01*
X87149Y429873D01*
X84119Y430685D01*
X80981D01*
X77951Y429873D01*
X75234Y428304D01*
X73016Y426086D01*
X71447Y423369D01*
X70635Y420339D01*
Y417201D01*
X71447Y414171D01*
X73016Y411454D01*
X75234Y409236D01*
X77951Y407667D01*
X80835Y406894D01*
X80883Y406498D01*
Y406042D01*
X80835Y405646D01*
X77951Y404873D01*
X75234Y403304D01*
X73016Y401086D01*
X71447Y398369D01*
X70635Y395339D01*
Y392201D01*
X71447Y389171D01*
X73016Y386454D01*
X75234Y384236D01*
X77951Y382667D01*
X80835Y381894D01*
X80883Y381498D01*
Y381042D01*
X80835Y380646D01*
X77951Y379873D01*
X75234Y378304D01*
X73016Y376086D01*
X71447Y373369D01*
X70635Y370339D01*
Y367201D01*
X71018Y365772D01*
X69961Y364810D01*
X68026D01*
X65854Y364228D01*
X63906Y363104D01*
X62316Y361514D01*
X61192Y359566D01*
X60610Y357394D01*
Y355146D01*
X61192Y352974D01*
X62316Y351026D01*
X63906Y349436D01*
X65854Y348312D01*
X68026Y347730D01*
X70274D01*
X72446Y348312D01*
X74394Y349436D01*
X75984Y351026D01*
X77108Y352974D01*
X77690Y355146D01*
Y356422D01*
X78959Y357397D01*
X80981Y356855D01*
X84119D01*
X87149Y357667D01*
X89866Y359236D01*
X92084Y361454D01*
X93653Y364171D01*
X94426Y367055D01*
X94822Y367103D01*
X95278D01*
X95674Y367055D01*
X96447Y364171D01*
X98016Y361454D01*
X100234Y359236D01*
X102951Y357667D01*
X105835Y356894D01*
X105883Y356498D01*
Y356042D01*
X105835Y355646D01*
X102951Y354873D01*
X100234Y353304D01*
X98016Y351086D01*
X96447Y348369D01*
X95635Y345339D01*
Y342201D01*
X96447Y339171D01*
X98016Y336454D01*
X100234Y334236D01*
X102951Y332667D01*
X105835Y331894D01*
X105883Y331498D01*
Y331042D01*
X105835Y330646D01*
X102951Y329873D01*
X100234Y328304D01*
X98016Y326086D01*
X96447Y323369D01*
X95635Y320339D01*
Y317201D01*
X96447Y314171D01*
X98016Y311454D01*
X100234Y309236D01*
X102951Y307667D01*
X105835Y306894D01*
X105883Y306498D01*
Y306042D01*
X105835Y305646D01*
X102951Y304873D01*
X100234Y303304D01*
X98016Y301086D01*
X96447Y298369D01*
X95635Y295339D01*
Y292201D01*
X96447Y289171D01*
X98016Y286454D01*
X100234Y284236D01*
X102951Y282667D01*
X105981Y281855D01*
X109119D01*
X112149Y282667D01*
X114866Y284236D01*
X117084Y286454D01*
X118653Y289171D01*
X119465Y292201D01*
Y295339D01*
X118653Y298369D01*
X117084Y301086D01*
X114866Y303304D01*
X112149Y304873D01*
X109265Y305646D01*
X109217Y306042D01*
Y306498D01*
X109265Y306894D01*
X112149Y307667D01*
X114866Y309236D01*
X117084Y311454D01*
X118653Y314171D01*
X119465Y317201D01*
Y320339D01*
X118653Y323369D01*
X117084Y326086D01*
X114866Y328304D01*
X112149Y329873D01*
X109265Y330646D01*
X109217Y331042D01*
Y331498D01*
X109265Y331894D01*
X112149Y332667D01*
X114866Y334236D01*
X117084Y336454D01*
X118653Y339171D01*
X119465Y342201D01*
Y345339D01*
X118653Y348369D01*
X117084Y351086D01*
X114866Y353304D01*
X112149Y354873D01*
X109265Y355646D01*
X109217Y356042D01*
Y356498D01*
X109265Y356894D01*
X112149Y357667D01*
X114866Y359236D01*
X117084Y361454D01*
X118653Y364171D01*
X119465Y367201D01*
Y370339D01*
X118653Y373369D01*
X117084Y376086D01*
X114866Y378304D01*
X112149Y379873D01*
X109265Y380646D01*
X109217Y381042D01*
Y381498D01*
X109265Y381894D01*
X112149Y382667D01*
X114866Y384236D01*
X117084Y386454D01*
X118653Y389171D01*
X119465Y392201D01*
Y395339D01*
X118653Y398369D01*
X117084Y401086D01*
X114866Y403304D01*
X112149Y404873D01*
X109265Y405646D01*
X109217Y406042D01*
Y406498D01*
X109265Y406894D01*
X112149Y407667D01*
X114866Y409236D01*
X117084Y411454D01*
X118653Y414171D01*
X119465Y417201D01*
Y420339D01*
X118653Y423369D01*
X117084Y426086D01*
X114866Y428304D01*
X112149Y429873D01*
X109119Y430685D01*
D02*
G37*
G36*
X192971Y422600D02*
X190569D01*
X188349Y421680D01*
X186649Y419981D01*
X185730Y417761D01*
Y415359D01*
X186649Y413139D01*
X188349Y411440D01*
X190569Y410520D01*
X192971D01*
X195191Y411440D01*
X196891Y413139D01*
X197810Y415359D01*
Y417761D01*
X196891Y419981D01*
X195191Y421680D01*
X192971Y422600D01*
D02*
G37*
G36*
X479793Y394930D02*
X477788D01*
X475935Y394163D01*
X474517Y392745D01*
X473750Y390892D01*
Y388887D01*
X474517Y387035D01*
X475935Y385617D01*
X477788Y384850D01*
X479793D01*
X481645Y385617D01*
X483063Y387035D01*
X483830Y388887D01*
Y390892D01*
X483063Y392745D01*
X481645Y394163D01*
X479793Y394930D01*
D02*
G37*
G36*
X481063Y370800D02*
X479058D01*
X477205Y370033D01*
X475787Y368615D01*
X475020Y366763D01*
Y364757D01*
X475787Y362905D01*
X477205Y361487D01*
X479058Y360720D01*
X481063D01*
X482915Y361487D01*
X484333Y362905D01*
X485100Y364757D01*
Y366763D01*
X484333Y368615D01*
X482915Y370033D01*
X481063Y370800D01*
D02*
G37*
G36*
X477253Y332700D02*
X475247D01*
X473395Y331933D01*
X471977Y330515D01*
X471210Y328662D01*
Y326657D01*
X471977Y324805D01*
X473395Y323387D01*
X475247Y322620D01*
X477253D01*
X479105Y323387D01*
X480523Y324805D01*
X481290Y326657D01*
Y328662D01*
X480523Y330515D01*
X479105Y331933D01*
X477253Y332700D01*
D02*
G37*
G36*
X346442Y314920D02*
X344437D01*
X342585Y314153D01*
X341167Y312735D01*
X340400Y310882D01*
Y308878D01*
X341167Y307025D01*
X342585Y305607D01*
X344437Y304840D01*
X346442D01*
X348295Y305607D01*
X349713Y307025D01*
X350480Y308878D01*
Y310882D01*
X349713Y312735D01*
X348295Y314153D01*
X346442Y314920D01*
D02*
G37*
G36*
X477253Y307300D02*
X475247D01*
X473395Y306533D01*
X471977Y305115D01*
X471210Y303263D01*
Y301257D01*
X471977Y299405D01*
X473395Y297987D01*
X475247Y297220D01*
X477253D01*
X479105Y297987D01*
X480523Y299405D01*
X481290Y301257D01*
Y303263D01*
X480523Y305115D01*
X479105Y306533D01*
X477253Y307300D01*
D02*
G37*
G36*
X478522Y279360D02*
X476517D01*
X474665Y278593D01*
X473247Y277175D01*
X472480Y275322D01*
Y273318D01*
X473247Y271465D01*
X474665Y270047D01*
X476517Y269280D01*
X478522D01*
X480375Y270047D01*
X481793Y271465D01*
X482560Y273318D01*
Y275322D01*
X481793Y277175D01*
X480375Y278593D01*
X478522Y279360D01*
D02*
G37*
G36*
X479793Y252690D02*
X477788D01*
X475935Y251923D01*
X474517Y250505D01*
X473750Y248652D01*
Y246647D01*
X474517Y244795D01*
X475935Y243377D01*
X477788Y242610D01*
X479793D01*
X481645Y243377D01*
X483063Y244795D01*
X483830Y246647D01*
Y248652D01*
X483063Y250505D01*
X481645Y251923D01*
X479793Y252690D01*
D02*
G37*
G36*
X347713Y232370D02*
X345708D01*
X343855Y231603D01*
X342437Y230185D01*
X341670Y228333D01*
Y226327D01*
X342437Y224475D01*
X343855Y223057D01*
X345708Y222290D01*
X347713D01*
X349565Y223057D01*
X350983Y224475D01*
X351750Y226327D01*
Y228333D01*
X350983Y230185D01*
X349565Y231603D01*
X347713Y232370D01*
D02*
G37*
G36*
X483602Y210780D02*
X481598D01*
X479745Y210013D01*
X478327Y208595D01*
X477560Y206742D01*
Y204737D01*
X478327Y202885D01*
X479745Y201467D01*
X481598Y200700D01*
X483602D01*
X485455Y201467D01*
X486873Y202885D01*
X487640Y204737D01*
Y206742D01*
X486873Y208595D01*
X485455Y210013D01*
X483602Y210780D01*
D02*
G37*
G36*
X700772Y206970D02*
X698767D01*
X696915Y206203D01*
X695497Y204785D01*
X694730Y202932D01*
Y200928D01*
X695497Y199075D01*
X696915Y197657D01*
X698767Y196890D01*
X700772D01*
X702625Y197657D01*
X704043Y199075D01*
X704810Y200928D01*
Y202932D01*
X704043Y204785D01*
X702625Y206203D01*
X700772Y206970D01*
D02*
G37*
G36*
X178803Y187920D02*
X176798D01*
X174945Y187153D01*
X173527Y185735D01*
X172760Y183883D01*
Y181877D01*
X173527Y180025D01*
X174945Y178607D01*
X176798Y177840D01*
X178803D01*
X180655Y178607D01*
X182073Y180025D01*
X182840Y181877D01*
Y183883D01*
X182073Y185735D01*
X180655Y187153D01*
X178803Y187920D01*
D02*
G37*
G36*
X661403Y181540D02*
X659398D01*
X657545Y180773D01*
X656127Y179355D01*
X655360Y177502D01*
Y175497D01*
X656127Y173645D01*
X657545Y172227D01*
X659398Y171460D01*
X661403D01*
X663255Y172227D01*
X664673Y173645D01*
X665440Y175497D01*
Y177502D01*
X664673Y179355D01*
X663255Y180773D01*
X661403Y181540D01*
D02*
G37*
%LPD*%
G36*
X95674Y417055D02*
X96447Y414171D01*
X98016Y411454D01*
X100234Y409236D01*
X102951Y407667D01*
X105835Y406894D01*
X105883Y406498D01*
Y406042D01*
X105835Y405646D01*
X102951Y404873D01*
X100234Y403304D01*
X98016Y401086D01*
X96447Y398369D01*
X95674Y395485D01*
X95278Y395437D01*
X94822D01*
X94426Y395485D01*
X93653Y398369D01*
X92084Y401086D01*
X89866Y403304D01*
X87149Y404873D01*
X84265Y405646D01*
X84217Y406042D01*
Y406498D01*
X84265Y406894D01*
X87149Y407667D01*
X89866Y409236D01*
X92084Y411454D01*
X93653Y414171D01*
X94426Y417055D01*
X94822Y417103D01*
X95278D01*
X95674Y417055D01*
D02*
G37*
G36*
Y392055D02*
X96447Y389171D01*
X98016Y386454D01*
X100234Y384236D01*
X102951Y382667D01*
X105835Y381894D01*
X105883Y381498D01*
Y381042D01*
X105835Y380646D01*
X102951Y379873D01*
X100234Y378304D01*
X98016Y376086D01*
X96447Y373369D01*
X95674Y370485D01*
X95278Y370437D01*
X94822D01*
X94426Y370485D01*
X93653Y373369D01*
X92084Y376086D01*
X89866Y378304D01*
X87149Y379873D01*
X84265Y380646D01*
X84217Y381042D01*
Y381498D01*
X84265Y381894D01*
X87149Y382667D01*
X89866Y384236D01*
X92084Y386454D01*
X93653Y389171D01*
X94426Y392055D01*
X94822Y392103D01*
X95278D01*
X95674Y392055D01*
D02*
G37*
G36*
X1318014Y382125D02*
X1318787Y379241D01*
X1320356Y376524D01*
X1322574Y374306D01*
X1325291Y372737D01*
X1328175Y371964D01*
X1328223Y371568D01*
Y371112D01*
X1328175Y370716D01*
X1325291Y369943D01*
X1322574Y368374D01*
X1320356Y366156D01*
X1318787Y363439D01*
X1318014Y360555D01*
X1317618Y360507D01*
X1317162D01*
X1316766Y360555D01*
X1315993Y363439D01*
X1314424Y366156D01*
X1312206Y368374D01*
X1309489Y369943D01*
X1306605Y370716D01*
X1306557Y371112D01*
Y371568D01*
X1306605Y371964D01*
X1309489Y372737D01*
X1312206Y374306D01*
X1314424Y376524D01*
X1315993Y379241D01*
X1316766Y382125D01*
X1317162Y382173D01*
X1317618D01*
X1318014Y382125D01*
D02*
G37*
G36*
X1293014D02*
X1293787Y379241D01*
X1295356Y376524D01*
X1297574Y374306D01*
X1300291Y372737D01*
X1303175Y371964D01*
X1303223Y371568D01*
Y371112D01*
X1303175Y370716D01*
X1300291Y369943D01*
X1297574Y368374D01*
X1295356Y366156D01*
X1293787Y363439D01*
X1293014Y360555D01*
X1292618Y360507D01*
X1292162D01*
X1291766Y360555D01*
X1290993Y363439D01*
X1289424Y366156D01*
X1287206Y368374D01*
X1284489Y369943D01*
X1281605Y370716D01*
X1281557Y371112D01*
Y371568D01*
X1281605Y371964D01*
X1284489Y372737D01*
X1287206Y374306D01*
X1289424Y376524D01*
X1290993Y379241D01*
X1291766Y382125D01*
X1292162Y382173D01*
X1292618D01*
X1293014Y382125D01*
D02*
G37*
G36*
X1396824Y218565D02*
X1397597Y215681D01*
X1399166Y212964D01*
X1401384Y210746D01*
X1404101Y209177D01*
X1406985Y208404D01*
X1407033Y208008D01*
Y207552D01*
X1406985Y207156D01*
X1404101Y206383D01*
X1401384Y204814D01*
X1399166Y202596D01*
X1397597Y199879D01*
X1396824Y196995D01*
X1396428Y196947D01*
X1395972D01*
X1395576Y196995D01*
X1394803Y199879D01*
X1393234Y202596D01*
X1391016Y204814D01*
X1388299Y206383D01*
X1385415Y207156D01*
X1385367Y207552D01*
Y208008D01*
X1385415Y208404D01*
X1388299Y209177D01*
X1391016Y210746D01*
X1393234Y212964D01*
X1394803Y215681D01*
X1395576Y218565D01*
X1395972Y218613D01*
X1396428D01*
X1396824Y218565D01*
D02*
G37*
G36*
X1371824D02*
X1372597Y215681D01*
X1374166Y212964D01*
X1376384Y210746D01*
X1379101Y209177D01*
X1381985Y208404D01*
X1382033Y208008D01*
Y207552D01*
X1381985Y207156D01*
X1379101Y206383D01*
X1376384Y204814D01*
X1374166Y202596D01*
X1372597Y199879D01*
X1371824Y196995D01*
X1371428Y196947D01*
X1370972D01*
X1370576Y196995D01*
X1369803Y199879D01*
X1368234Y202596D01*
X1366016Y204814D01*
X1363299Y206383D01*
X1360415Y207156D01*
X1360367Y207552D01*
Y208008D01*
X1360415Y208404D01*
X1363299Y209177D01*
X1366016Y210746D01*
X1368234Y212964D01*
X1369803Y215681D01*
X1370576Y218565D01*
X1370972Y218613D01*
X1371428D01*
X1371824Y218565D01*
D02*
G37*
G36*
X1296824D02*
X1297597Y215681D01*
X1299166Y212964D01*
X1301384Y210746D01*
X1304101Y209177D01*
X1306985Y208404D01*
X1307033Y208008D01*
Y207552D01*
X1306985Y207156D01*
X1304101Y206383D01*
X1301384Y204814D01*
X1299166Y202596D01*
X1297597Y199879D01*
X1296824Y196995D01*
X1296428Y196947D01*
X1295972D01*
X1295576Y196995D01*
X1294803Y199879D01*
X1293234Y202596D01*
X1291016Y204814D01*
X1288299Y206383D01*
X1285415Y207156D01*
X1285367Y207552D01*
Y208008D01*
X1285415Y208404D01*
X1288299Y209177D01*
X1291016Y210746D01*
X1293234Y212964D01*
X1294803Y215681D01*
X1295576Y218565D01*
X1295972Y218613D01*
X1296428D01*
X1296824Y218565D01*
D02*
G37*
D29*
X53560Y196850D02*
G03*
X56500Y199790I0J2940D01*
G01*
D31*
X82550Y418770D02*
D03*
Y393770D02*
D03*
Y368770D02*
D03*
Y343770D02*
D03*
Y318770D02*
D03*
Y293770D02*
D03*
X107550Y418770D02*
D03*
Y393770D02*
D03*
Y368770D02*
D03*
Y343770D02*
D03*
Y318770D02*
D03*
Y293770D02*
D03*
X1283700Y195280D02*
D03*
X1308700D02*
D03*
X1333700D02*
D03*
X1358700D02*
D03*
X1383700D02*
D03*
X1408700D02*
D03*
X1283700Y220280D02*
D03*
X1308700D02*
D03*
X1333700D02*
D03*
X1358700D02*
D03*
X1383700D02*
D03*
X1408700D02*
D03*
X1404890Y383840D02*
D03*
X1379890D02*
D03*
X1354890D02*
D03*
X1329890D02*
D03*
X1304890D02*
D03*
X1279890D02*
D03*
X1404890Y358840D02*
D03*
X1379890D02*
D03*
X1354890D02*
D03*
X1329890D02*
D03*
X1304890D02*
D03*
X1279890D02*
D03*
X56500Y249790D02*
D03*
Y224790D02*
D03*
Y199790D02*
D03*
Y174790D02*
D03*
Y149790D02*
D03*
Y124790D02*
D03*
X81500Y249790D02*
D03*
Y224790D02*
D03*
Y199790D02*
D03*
Y174790D02*
D03*
Y149790D02*
D03*
Y124790D02*
D03*
D32*
X69150Y356270D02*
D03*
X1346200Y233680D02*
D03*
X1342390Y345440D02*
D03*
X94900Y187290D02*
D03*
D33*
X1203060Y46160D02*
D03*
X553060Y496160D02*
D03*
X1203060D02*
D03*
X553060Y46160D02*
D03*
D34*
X50000Y50000D02*
D03*
X1450000Y500000D02*
D03*
Y50000D02*
D03*
X50000Y500000D02*
D03*
D35*
X247500Y270000D02*
D03*
X13970Y196850D02*
D03*
X791210Y316230D02*
D03*
X699770Y201930D02*
D03*
X935990Y69850D02*
D03*
X1046480Y189230D02*
D03*
X185340Y135000D02*
D03*
X177800Y182880D02*
D03*
X185340Y315000D02*
D03*
X202500Y270000D02*
D03*
X225000Y315000D02*
D03*
X270510Y308610D02*
D03*
X292500Y270000D02*
D03*
X315000Y225000D02*
D03*
X382500Y270000D02*
D03*
X391160Y265430D02*
D03*
X427500Y270000D02*
D03*
X540000Y315000D02*
D03*
X466090Y424100D02*
D03*
X396240D02*
D03*
X180000Y405000D02*
D03*
X225000D02*
D03*
X697500Y270000D02*
D03*
Y180000D02*
D03*
X675000Y135000D02*
D03*
X630000Y315000D02*
D03*
X652500Y270000D02*
D03*
X630000Y225000D02*
D03*
X652500Y180000D02*
D03*
X630000Y135000D02*
D03*
X607500Y270000D02*
D03*
X585000Y225000D02*
D03*
X607500Y180000D02*
D03*
X562500Y270000D02*
D03*
X540000Y225000D02*
D03*
X562500Y180000D02*
D03*
X495000Y135000D02*
D03*
X450000Y405000D02*
D03*
X472500Y180000D02*
D03*
X450000Y135000D02*
D03*
X472500Y90000D02*
D03*
X450000Y45000D02*
D03*
X405000Y135000D02*
D03*
X360000Y405000D02*
D03*
Y135000D02*
D03*
X382500Y90000D02*
D03*
X360000Y45000D02*
D03*
X315000Y405000D02*
D03*
X270000D02*
D03*
Y135000D02*
D03*
X292500Y90000D02*
D03*
X225000Y135000D02*
D03*
X247500Y90000D02*
D03*
X202500D02*
D03*
X157500Y270000D02*
D03*
Y90000D02*
D03*
X135000Y45000D02*
D03*
X112500Y270000D02*
D03*
X45000Y405000D02*
D03*
Y315000D02*
D03*
X67500Y270000D02*
D03*
X495300Y384810D02*
D03*
X458470Y364490D02*
D03*
X651510Y222250D02*
D03*
X462280Y328930D02*
D03*
X463550Y299720D02*
D03*
X468630Y270510D02*
D03*
X506730Y232410D02*
D03*
X468630Y201930D02*
D03*
X382270Y81280D02*
D03*
X281940Y133350D02*
D03*
X295910Y191770D02*
D03*
X782320Y83820D02*
D03*
X795020Y113030D02*
D03*
X756920Y143320D02*
D03*
X346710Y227330D02*
D03*
X345440Y309880D02*
D03*
X482600Y205740D02*
D03*
X476250Y302260D02*
D03*
Y327660D02*
D03*
X480060Y365760D02*
D03*
X478790Y247650D02*
D03*
X477520Y274320D02*
D03*
X478790Y389890D02*
D03*
X1182370Y162560D02*
D03*
X955496Y184576D02*
D03*
X958850Y316200D02*
D03*
Y290800D02*
D03*
X943610Y252700D02*
D03*
X947420Y303500D02*
D03*
X660400Y176500D02*
D03*
X947420Y201900D02*
D03*
X944880Y278100D02*
D03*
X961390Y214600D02*
D03*
X957580Y265400D02*
D03*
D36*
X770510Y41020D02*
D03*
X774700Y396240D02*
D03*
X191770Y416560D02*
D03*
X910590D02*
D03*
X1203060Y73660D02*
D03*
X1223060Y66160D02*
D03*
X1230560Y46160D02*
D03*
X1223060Y26160D02*
D03*
X1203060Y18660D02*
D03*
X1183060Y26160D02*
D03*
X1175560Y46160D02*
D03*
X1183060Y66160D02*
D03*
X52070Y79570D02*
D03*
X72070Y72070D02*
D03*
X79570Y52070D02*
D03*
X72070Y32070D02*
D03*
X52070Y24570D02*
D03*
X32070Y32070D02*
D03*
X24570Y52070D02*
D03*
X32070Y72070D02*
D03*
X553060Y523660D02*
D03*
X573060Y516160D02*
D03*
X580560Y496160D02*
D03*
X573060Y476160D02*
D03*
X553060Y468660D02*
D03*
X533060Y476160D02*
D03*
X525560Y496160D02*
D03*
X533060Y516160D02*
D03*
X1203060Y523660D02*
D03*
X1223060Y516160D02*
D03*
X1230560Y496160D02*
D03*
X1223060Y476160D02*
D03*
X1203060Y468660D02*
D03*
X1183060Y476160D02*
D03*
X1175560Y496160D02*
D03*
X1183060Y516160D02*
D03*
X553060Y73660D02*
D03*
X573060Y66160D02*
D03*
X580560Y46160D02*
D03*
X573060Y26160D02*
D03*
X553060Y18660D02*
D03*
X533060Y26160D02*
D03*
X525560Y46160D02*
D03*
X533060Y66160D02*
D03*
X1450000Y527500D02*
D03*
X1470000Y520000D02*
D03*
X1477500Y500000D02*
D03*
X1470000Y480000D02*
D03*
X1450000Y472500D02*
D03*
X1430000Y480000D02*
D03*
X1422500Y500000D02*
D03*
X1430000Y520000D02*
D03*
X1450000Y77500D02*
D03*
X1470000Y70000D02*
D03*
X1477500Y50000D02*
D03*
X1470000Y30000D02*
D03*
X1450000Y22500D02*
D03*
X1430000Y30000D02*
D03*
X1422500Y50000D02*
D03*
X1430000Y70000D02*
D03*
X50000Y527500D02*
D03*
X70000Y520000D02*
D03*
X77500Y500000D02*
D03*
X70000Y480000D02*
D03*
X50000Y472500D02*
D03*
X30000Y480000D02*
D03*
X22500Y500000D02*
D03*
X30000Y520000D02*
D03*
M02*
