G04*
G04 #@! TF.GenerationSoftware,Altium Limited,Altium Designer,24.1.2 (44)*
G04*
G04 Layer_Color=32896*
%FSLAX44Y44*%
%MOMM*%
G71*
G04*
G04 #@! TF.SameCoordinates,92EDBDDB-073E-4DD7-8E9B-4F7EAADC4A97*
G04*
G04*
G04 #@! TF.FilePolarity,Positive*
G04*
G01*
G75*
G36*
X150281Y39279D02*
X150744Y39187D01*
X151137Y39048D01*
X151461Y38909D01*
X151716Y38770D01*
X151901Y38631D01*
X151993Y38539D01*
X152040Y38516D01*
X152294Y38192D01*
X152502Y37845D01*
X152641Y37474D01*
X152734Y37127D01*
X152780Y36803D01*
X152803Y36549D01*
X152826Y36456D01*
Y36387D01*
Y36340D01*
Y36317D01*
Y35554D01*
X152803Y35438D01*
X152780Y35345D01*
X152734Y35299D01*
X152664Y35253D01*
X152549Y35207D01*
X151230D01*
X151114Y35230D01*
X151045Y35253D01*
X150952Y35392D01*
X150906Y35508D01*
Y35531D01*
Y35554D01*
Y36271D01*
X150883Y36549D01*
X150859Y36757D01*
X150813Y36942D01*
X150744Y37104D01*
X150674Y37220D01*
X150628Y37289D01*
X150605Y37336D01*
X150582Y37359D01*
X150443Y37474D01*
X150258Y37544D01*
X149911Y37636D01*
X149749Y37659D01*
X149610Y37683D01*
X148546D01*
X148291Y37659D01*
X148060Y37613D01*
X147851Y37544D01*
X147689Y37474D01*
X147550Y37359D01*
X147435Y37243D01*
X147250Y36988D01*
X147134Y36711D01*
X147088Y36502D01*
X147065Y36410D01*
Y36340D01*
Y36294D01*
Y36271D01*
Y35623D01*
X147111Y35276D01*
X147203Y34952D01*
X147365Y34651D01*
X147527Y34397D01*
X147712Y34189D01*
X147874Y34050D01*
X147967Y33934D01*
X148013Y33911D01*
X151716Y30903D01*
X151901Y30741D01*
X152063Y30579D01*
X152317Y30232D01*
X152502Y29885D01*
X152618Y29584D01*
X152711Y29283D01*
X152734Y29075D01*
X152757Y28982D01*
Y28913D01*
Y28890D01*
Y28867D01*
Y27062D01*
X152734Y26946D01*
X152688Y26876D01*
X152572Y26784D01*
X152433Y26738D01*
X145514D01*
X145399Y26761D01*
X145306Y26784D01*
X145260Y26830D01*
X145213Y26900D01*
X145167Y27015D01*
Y27039D01*
Y27062D01*
Y28103D01*
X145190Y28219D01*
X145213Y28288D01*
X145329Y28381D01*
X145468Y28427D01*
X150605D01*
Y29052D01*
X150582Y29237D01*
X150535Y29399D01*
X150466Y29561D01*
X150373Y29676D01*
X150304Y29792D01*
X150235Y29862D01*
X150188Y29908D01*
X150165Y29931D01*
X146394Y33008D01*
X146185Y33194D01*
X146000Y33402D01*
X145838Y33610D01*
X145699Y33818D01*
X145491Y34235D01*
X145352Y34628D01*
X145283Y34975D01*
X145260Y35114D01*
X145237Y35253D01*
X145213Y35369D01*
Y35438D01*
Y35484D01*
Y35508D01*
Y36317D01*
X145237Y36826D01*
X145329Y37266D01*
X145468Y37636D01*
X145607Y37960D01*
X145769Y38192D01*
X145885Y38377D01*
X145977Y38469D01*
X146023Y38516D01*
X146347Y38770D01*
X146694Y38978D01*
X147065Y39117D01*
X147435Y39210D01*
X147759Y39256D01*
X148013Y39302D01*
X149772D01*
X150281Y39279D01*
D02*
G37*
G36*
X172078D02*
X172171Y39256D01*
X172240Y39210D01*
X172286Y39140D01*
X172333Y39025D01*
Y39002D01*
Y38978D01*
Y37983D01*
X172310Y37868D01*
X172263Y37798D01*
X172148Y37706D01*
X172009Y37659D01*
X169510D01*
X169394Y37636D01*
X169325Y37567D01*
X169302Y37474D01*
Y37451D01*
Y27062D01*
X169278Y26946D01*
X169255Y26876D01*
X169116Y26784D01*
X169001Y26738D01*
X167728D01*
X167612Y26761D01*
X167520Y26784D01*
X167474Y26830D01*
X167427Y26900D01*
X167381Y27015D01*
Y27039D01*
Y27062D01*
Y37451D01*
X167358Y37567D01*
X167265Y37636D01*
X167196Y37659D01*
X164720D01*
X164604Y37683D01*
X164512Y37706D01*
X164442Y37752D01*
X164396Y37821D01*
X164350Y37937D01*
Y37960D01*
Y37983D01*
Y38978D01*
X164373Y39094D01*
X164396Y39163D01*
X164535Y39256D01*
X164650Y39302D01*
X171963D01*
X172078Y39279D01*
D02*
G37*
G36*
X162452D02*
X162545Y39256D01*
X162591Y39210D01*
X162637Y39140D01*
X162684Y39025D01*
Y39002D01*
Y38978D01*
Y27062D01*
X162661Y26946D01*
X162637Y26876D01*
X162499Y26784D01*
X162383Y26738D01*
X161110D01*
X160994Y26761D01*
X160925Y26784D01*
X160833Y26900D01*
X160786Y27015D01*
Y27039D01*
Y27062D01*
Y31019D01*
X160740Y31134D01*
X160671Y31180D01*
X160601Y31204D01*
X157686D01*
X157177Y31250D01*
X156737Y31342D01*
X156343Y31458D01*
X156043Y31620D01*
X155788Y31759D01*
X155603Y31898D01*
X155511Y31990D01*
X155464Y32013D01*
X155187Y32337D01*
X155001Y32708D01*
X154863Y33078D01*
X154747Y33425D01*
X154701Y33749D01*
X154677Y34003D01*
X154654Y34096D01*
Y34165D01*
Y34212D01*
Y34235D01*
Y36271D01*
X154677Y36780D01*
X154770Y37243D01*
X154909Y37613D01*
X155048Y37937D01*
X155210Y38192D01*
X155325Y38377D01*
X155418Y38469D01*
X155464Y38516D01*
X155788Y38770D01*
X156135Y38978D01*
X156505Y39117D01*
X156876Y39210D01*
X157200Y39256D01*
X157454Y39302D01*
X162337D01*
X162452Y39279D01*
D02*
G37*
G36*
X247080Y74737D02*
X247191Y74709D01*
X247246Y74654D01*
X247302Y74570D01*
X247357Y74432D01*
Y74404D01*
Y74376D01*
Y60079D01*
X247330Y59940D01*
X247302Y59857D01*
X247135Y59745D01*
X246996Y59690D01*
X245497D01*
X245358Y59718D01*
X245275Y59745D01*
X245164Y59884D01*
X245109Y60023D01*
Y60051D01*
Y60079D01*
Y70156D01*
X244998D01*
X239362Y60051D01*
X239279Y59940D01*
X239167Y59857D01*
X238973Y59745D01*
X238806Y59690D01*
X237474D01*
X237335Y59718D01*
X237252Y59745D01*
X237141Y59884D01*
X237085Y60023D01*
Y60051D01*
Y60079D01*
Y74376D01*
X237113Y74515D01*
X237141Y74598D01*
X237280Y74709D01*
X237418Y74765D01*
X238945D01*
X239084Y74737D01*
X239167Y74709D01*
X239279Y74570D01*
X239334Y74432D01*
Y74404D01*
Y74376D01*
Y64299D01*
X239445D01*
X245109Y74515D01*
X245247Y74654D01*
X245414Y74737D01*
X245581Y74765D01*
X246941D01*
X247080Y74737D01*
D02*
G37*
G36*
X257324D02*
X257879Y74626D01*
X258323Y74460D01*
X258712Y74293D01*
X259017Y74126D01*
X259240Y73960D01*
X259351Y73849D01*
X259406Y73821D01*
X259711Y73432D01*
X259961Y73016D01*
X260128Y72544D01*
X260239Y72127D01*
X260294Y71739D01*
X260322Y71406D01*
X260350Y71295D01*
Y71211D01*
Y71156D01*
Y71128D01*
Y63327D01*
X260322Y62716D01*
X260211Y62189D01*
X260045Y61717D01*
X259878Y61328D01*
X259711Y61023D01*
X259545Y60800D01*
X259434Y60689D01*
X259406Y60634D01*
X259017Y60328D01*
X258573Y60079D01*
X258129Y59912D01*
X257713Y59801D01*
X257324Y59745D01*
X256991Y59718D01*
X256880Y59690D01*
X254215D01*
X253604Y59718D01*
X253076Y59829D01*
X252604Y59995D01*
X252216Y60162D01*
X251910Y60328D01*
X251688Y60495D01*
X251577Y60606D01*
X251522Y60634D01*
X251189Y61023D01*
X250966Y61467D01*
X250800Y61911D01*
X250661Y62355D01*
X250606Y62744D01*
X250578Y63049D01*
X250550Y63160D01*
Y63244D01*
Y63299D01*
Y63327D01*
Y67269D01*
X250578Y67436D01*
X250633Y67547D01*
X250716Y67658D01*
X250800Y67713D01*
X250966Y67769D01*
X254992D01*
X255131Y67741D01*
X255242Y67713D01*
X255297Y67630D01*
X255353Y67575D01*
X255408Y67408D01*
Y67380D01*
Y67352D01*
Y66159D01*
X255381Y66020D01*
X255353Y65936D01*
X255186Y65825D01*
X255047Y65770D01*
X253104D01*
X252938Y65742D01*
X252854Y65659D01*
X252826Y65548D01*
Y65520D01*
Y63410D01*
X252854Y63105D01*
X252910Y62827D01*
X252993Y62605D01*
X253076Y62411D01*
X253215Y62244D01*
X253354Y62077D01*
X253659Y61883D01*
X253993Y61744D01*
X254242Y61689D01*
X254353Y61661D01*
X256380D01*
X256685Y61689D01*
X256935Y61744D01*
X257157Y61828D01*
X257352Y61939D01*
X257518Y62077D01*
X257657Y62216D01*
X257851Y62550D01*
X257990Y62855D01*
X258046Y63133D01*
X258074Y63244D01*
Y63327D01*
Y63382D01*
Y63410D01*
Y71045D01*
X258046Y71350D01*
X257990Y71628D01*
X257907Y71850D01*
X257796Y72044D01*
X257685Y72238D01*
X257546Y72377D01*
X257213Y72572D01*
X256908Y72710D01*
X256630Y72766D01*
X256547Y72794D01*
X254520D01*
X254215Y72766D01*
X253965Y72710D01*
X253743Y72627D01*
X253548Y72516D01*
X253382Y72377D01*
X253243Y72238D01*
X253048Y71933D01*
X252910Y71600D01*
X252854Y71322D01*
X252826Y71211D01*
Y71128D01*
Y71073D01*
Y71045D01*
Y70295D01*
X252799Y70156D01*
X252771Y70045D01*
X252715Y69990D01*
X252632Y69934D01*
X252493Y69879D01*
X250966D01*
X250828Y69907D01*
X250716Y69934D01*
X250661Y70017D01*
X250606Y70101D01*
X250550Y70240D01*
Y70267D01*
Y70295D01*
Y71128D01*
X250578Y71739D01*
X250689Y72294D01*
X250855Y72738D01*
X251022Y73127D01*
X251216Y73432D01*
X251355Y73654D01*
X251466Y73765D01*
X251522Y73821D01*
X251910Y74126D01*
X252327Y74376D01*
X252799Y74543D01*
X253215Y74654D01*
X253604Y74709D01*
X253937Y74765D01*
X256713D01*
X257324Y74737D01*
D02*
G37*
G36*
X233393D02*
X233504Y74709D01*
X233559Y74654D01*
X233615Y74570D01*
X233671Y74432D01*
Y74404D01*
Y74376D01*
Y60079D01*
X233643Y59940D01*
X233615Y59857D01*
X233448Y59745D01*
X233310Y59690D01*
X227480D01*
X226869Y59718D01*
X226341Y59829D01*
X225869Y59995D01*
X225481Y60162D01*
X225175Y60328D01*
X224953Y60495D01*
X224842Y60606D01*
X224787Y60634D01*
X224454Y61023D01*
X224231Y61467D01*
X224065Y61911D01*
X223926Y62355D01*
X223871Y62744D01*
X223843Y63049D01*
X223815Y63160D01*
Y63244D01*
Y63299D01*
Y63327D01*
Y71128D01*
X223843Y71739D01*
X223954Y72294D01*
X224120Y72738D01*
X224287Y73127D01*
X224481Y73432D01*
X224620Y73654D01*
X224731Y73765D01*
X224787Y73821D01*
X225175Y74126D01*
X225620Y74376D01*
X226064Y74543D01*
X226508Y74654D01*
X226896Y74709D01*
X227202Y74765D01*
X233254D01*
X233393Y74737D01*
D02*
G37*
G36*
X214764D02*
X214876Y74709D01*
X214931Y74654D01*
X214987Y74570D01*
X215042Y74432D01*
Y74404D01*
Y74376D01*
Y60079D01*
X215014Y59940D01*
X214987Y59857D01*
X214820Y59745D01*
X214681Y59690D01*
X213154D01*
X213015Y59718D01*
X212932Y59745D01*
X212821Y59884D01*
X212766Y60023D01*
Y60051D01*
Y60079D01*
Y64826D01*
X212710Y64965D01*
X212627Y65020D01*
X212544Y65048D01*
X209046D01*
X208435Y65104D01*
X207907Y65215D01*
X207435Y65353D01*
X207074Y65548D01*
X206769Y65714D01*
X206547Y65881D01*
X206436Y65992D01*
X206380Y66020D01*
X206047Y66409D01*
X205825Y66853D01*
X205658Y67297D01*
X205520Y67713D01*
X205464Y68102D01*
X205436Y68407D01*
X205409Y68518D01*
Y68602D01*
Y68657D01*
Y68685D01*
Y71128D01*
X205436Y71739D01*
X205547Y72294D01*
X205714Y72738D01*
X205881Y73127D01*
X206075Y73432D01*
X206214Y73654D01*
X206325Y73765D01*
X206380Y73821D01*
X206769Y74126D01*
X207185Y74376D01*
X207630Y74543D01*
X208074Y74654D01*
X208462Y74709D01*
X208768Y74765D01*
X214626D01*
X214764Y74737D01*
D02*
G37*
G36*
X200078Y71628D02*
X200606Y71517D01*
X201078Y71350D01*
X201466Y71184D01*
X201772Y70989D01*
X201994Y70850D01*
X202105Y70739D01*
X202160Y70684D01*
X202466Y70295D01*
X202716Y69879D01*
X202882Y69434D01*
X202993Y68990D01*
X203049Y68602D01*
X203077Y68296D01*
X203104Y68185D01*
Y68102D01*
Y68046D01*
Y68019D01*
Y63327D01*
X203077Y62716D01*
X202966Y62189D01*
X202799Y61717D01*
X202632Y61328D01*
X202466Y61023D01*
X202299Y60800D01*
X202188Y60689D01*
X202160Y60634D01*
X201772Y60328D01*
X201328Y60079D01*
X200883Y59912D01*
X200439Y59801D01*
X200051Y59745D01*
X199745Y59718D01*
X199634Y59690D01*
X198551D01*
X198218Y59718D01*
X197913Y59745D01*
X197663Y59801D01*
X197413Y59884D01*
X196997Y60079D01*
X196663Y60301D01*
X196441Y60523D01*
X196275Y60717D01*
X196192Y60856D01*
X196164Y60911D01*
X196080D01*
Y60079D01*
X196053Y59940D01*
X196025Y59857D01*
X195858Y59745D01*
X195720Y59690D01*
X194193D01*
X194054Y59718D01*
X193943Y59745D01*
X193887Y59801D01*
X193832Y59884D01*
X193776Y60023D01*
Y60051D01*
Y60079D01*
Y71267D01*
X193804Y71406D01*
X193832Y71489D01*
X193971Y71600D01*
X194137Y71656D01*
X199468D01*
X200078Y71628D01*
D02*
G37*
G36*
X183671Y76153D02*
X183754Y76125D01*
X183865Y75986D01*
X183921Y75848D01*
Y75820D01*
Y75792D01*
Y70406D01*
X184032D01*
X184143Y70628D01*
X184282Y70823D01*
X184615Y71128D01*
X185003Y71350D01*
X185392Y71489D01*
X185753Y71600D01*
X186086Y71628D01*
X186197Y71656D01*
X187585D01*
X188196Y71628D01*
X188696Y71517D01*
X189168Y71350D01*
X189529Y71184D01*
X189806Y71017D01*
X190028Y70850D01*
X190139Y70739D01*
X190195Y70712D01*
X190500Y70323D01*
X190695Y69907D01*
X190861Y69434D01*
X190972Y69018D01*
X191028Y68629D01*
X191056Y68296D01*
X191083Y68185D01*
Y68102D01*
Y68046D01*
Y68019D01*
Y63327D01*
X191056Y62716D01*
X190944Y62161D01*
X190806Y61717D01*
X190639Y61328D01*
X190473Y61023D01*
X190334Y60800D01*
X190223Y60689D01*
X190195Y60634D01*
X189806Y60328D01*
X189390Y60079D01*
X188973Y59912D01*
X188557Y59801D01*
X188168Y59745D01*
X187863Y59718D01*
X187752Y59690D01*
X186364D01*
X186031Y59718D01*
X185753Y59745D01*
X185226Y59884D01*
X184837Y60079D01*
X184531Y60301D01*
X184282Y60523D01*
X184143Y60717D01*
X184060Y60856D01*
X184032Y60911D01*
X183921D01*
Y60079D01*
X183893Y59940D01*
X183865Y59857D01*
X183726Y59745D01*
X183587Y59690D01*
X182033D01*
X181894Y59718D01*
X181811Y59745D01*
X181700Y59884D01*
X181644Y60023D01*
Y60051D01*
Y60079D01*
Y75792D01*
X181672Y75931D01*
X181700Y76014D01*
X181838Y76125D01*
X181977Y76181D01*
X183532D01*
X183671Y76153D01*
D02*
G37*
G36*
X97540Y157405D02*
X97623Y157378D01*
X97734Y157266D01*
X97790Y157128D01*
Y157100D01*
Y157072D01*
Y154934D01*
X97762Y154796D01*
X97734Y154684D01*
X97679Y154629D01*
X97596Y154573D01*
X97457Y154518D01*
X95874D01*
X95763Y154546D01*
X95652Y154573D01*
X95569Y154740D01*
X95513Y154879D01*
Y154907D01*
Y154934D01*
Y157072D01*
X95541Y157183D01*
X95569Y157294D01*
X95680Y157378D01*
X95819Y157433D01*
X97401D01*
X97540Y157405D01*
D02*
G37*
G36*
X89989Y156017D02*
X90239Y155934D01*
X90322Y155878D01*
X90405Y155823D01*
X90461Y155795D01*
X90489D01*
X92932Y154324D01*
X93043Y154240D01*
X93126Y154157D01*
X93209Y153963D01*
X93265Y153824D01*
Y153796D01*
Y153768D01*
Y152380D01*
X93237Y152241D01*
X93181Y152158D01*
X93126Y152103D01*
X92876D01*
X92821Y152130D01*
X92793D01*
X90239Y153630D01*
Y141359D01*
X90211Y141220D01*
X90183Y141137D01*
X90017Y141025D01*
X89878Y140970D01*
X88295D01*
X88184Y140998D01*
X88073Y141025D01*
X87990Y141164D01*
X87934Y141303D01*
Y141331D01*
Y141359D01*
Y155656D01*
X87962Y155795D01*
X87990Y155878D01*
X88129Y155989D01*
X88268Y156045D01*
X89739D01*
X89989Y156017D01*
D02*
G37*
G36*
X84575D02*
X84686Y155989D01*
X84742Y155934D01*
X84797Y155850D01*
X84853Y155712D01*
Y155684D01*
Y155656D01*
Y148272D01*
X84825Y148133D01*
X84797Y148049D01*
X84631Y147938D01*
X84492Y147883D01*
X82965D01*
X82826Y147910D01*
X82687Y147966D01*
X82493Y148160D01*
X82382Y148355D01*
X82326Y148410D01*
Y148438D01*
X82243Y148549D01*
X82104Y148660D01*
X82021Y148743D01*
X81966Y148771D01*
X81716Y148882D01*
X81466Y148910D01*
X81355Y148938D01*
X79745D01*
X79384Y148910D01*
X79106Y148882D01*
X78856Y148799D01*
X78662Y148716D01*
X78523Y148632D01*
X78440Y148577D01*
X78384Y148521D01*
X78356Y148494D01*
X78218Y148299D01*
X78107Y148077D01*
X78051Y147827D01*
X77996Y147577D01*
X77968Y147355D01*
X77940Y147161D01*
Y147050D01*
Y146994D01*
Y144607D01*
X77968Y144302D01*
X78023Y144052D01*
X78107Y143829D01*
X78218Y143635D01*
X78329Y143469D01*
X78495Y143330D01*
X78801Y143135D01*
X79106Y142997D01*
X79384Y142941D01*
X79495Y142913D01*
X81022D01*
X81327Y142941D01*
X81577Y142997D01*
X81799Y143080D01*
X81993Y143191D01*
X82160Y143302D01*
X82299Y143441D01*
X82493Y143774D01*
X82632Y144079D01*
X82687Y144357D01*
X82715Y144440D01*
Y144524D01*
Y144579D01*
Y144607D01*
Y145218D01*
X82743Y145356D01*
X82771Y145468D01*
X82826Y145523D01*
X82909Y145578D01*
X83048Y145634D01*
X84575D01*
X84714Y145606D01*
X84825Y145578D01*
X84881Y145495D01*
X84936Y145440D01*
X84992Y145273D01*
Y145245D01*
Y145218D01*
Y144607D01*
X84964Y143996D01*
X84853Y143469D01*
X84686Y142997D01*
X84520Y142608D01*
X84353Y142303D01*
X84186Y142080D01*
X84075Y141969D01*
X84048Y141914D01*
X83659Y141608D01*
X83215Y141359D01*
X82771Y141192D01*
X82326Y141081D01*
X81938Y141025D01*
X81632Y140998D01*
X81521Y140970D01*
X79356D01*
X78745Y140998D01*
X78218Y141109D01*
X77746Y141275D01*
X77357Y141442D01*
X77052Y141608D01*
X76830Y141775D01*
X76719Y141886D01*
X76663Y141914D01*
X76330Y142303D01*
X76108Y142747D01*
X75941Y143191D01*
X75802Y143635D01*
X75747Y144024D01*
X75719Y144329D01*
X75691Y144440D01*
Y144524D01*
Y144579D01*
Y144607D01*
Y147327D01*
X75719Y147938D01*
X75830Y148466D01*
X75969Y148910D01*
X76136Y149271D01*
X76330Y149549D01*
X76469Y149743D01*
X76580Y149882D01*
X76607Y149909D01*
X76968Y150215D01*
X77385Y150437D01*
X77801Y150576D01*
X78218Y150687D01*
X78606Y150742D01*
X78912Y150798D01*
X80577D01*
X81105Y150742D01*
X81549Y150631D01*
X81882Y150437D01*
X82132Y150243D01*
X82326Y150021D01*
X82465Y149826D01*
X82521Y149715D01*
X82549Y149660D01*
Y153907D01*
X76469D01*
X76330Y153935D01*
X76219Y153963D01*
X76163Y154046D01*
X76108Y154129D01*
X76052Y154268D01*
Y154296D01*
Y154324D01*
Y155656D01*
X76080Y155795D01*
X76108Y155878D01*
X76247Y155989D01*
X76413Y156045D01*
X84436D01*
X84575Y156017D01*
D02*
G37*
G36*
X97540Y152908D02*
X97623Y152880D01*
X97734Y152741D01*
X97790Y152602D01*
Y152575D01*
Y152547D01*
Y141359D01*
X97762Y141220D01*
X97734Y141137D01*
X97596Y141025D01*
X97457Y140970D01*
X95736D01*
X95652Y140998D01*
X95625Y141025D01*
X95597D01*
X95541Y141109D01*
X95513Y141220D01*
Y141331D01*
Y141359D01*
Y152547D01*
X95541Y152686D01*
X95569Y152769D01*
X95708Y152880D01*
X95847Y152935D01*
X97401D01*
X97540Y152908D01*
D02*
G37*
G36*
X364003Y228525D02*
X364086Y228498D01*
X364197Y228386D01*
X364253Y228248D01*
Y228220D01*
Y228192D01*
Y226054D01*
X364225Y225916D01*
X364197Y225805D01*
X364142Y225749D01*
X364058Y225693D01*
X363920Y225638D01*
X362337D01*
X362226Y225666D01*
X362115Y225693D01*
X362032Y225860D01*
X361976Y225999D01*
Y226027D01*
Y226054D01*
Y228192D01*
X362004Y228303D01*
X362032Y228414D01*
X362143Y228498D01*
X362282Y228553D01*
X363864D01*
X364003Y228525D01*
D02*
G37*
G36*
X223332Y224028D02*
X223415Y224000D01*
X223526Y223861D01*
X223582Y223722D01*
Y223695D01*
Y223667D01*
Y212479D01*
X223554Y212340D01*
X223526Y212257D01*
X223387Y212146D01*
X223249Y212090D01*
X221722D01*
X221583Y212118D01*
X221472Y212146D01*
X221416Y212201D01*
X221361Y212284D01*
X221305Y212423D01*
Y212451D01*
Y212479D01*
Y220058D01*
X221278Y220419D01*
X221222Y220724D01*
X221139Y220974D01*
X221000Y221224D01*
X220861Y221418D01*
X220695Y221557D01*
X220528Y221696D01*
X220334Y221807D01*
X220000Y221946D01*
X219695Y222029D01*
X219556Y222057D01*
X218279D01*
X217974Y222029D01*
X217724Y221973D01*
X217474Y221890D01*
X217280Y221779D01*
X217113Y221640D01*
X216974Y221501D01*
X216780Y221196D01*
X216641Y220863D01*
X216586Y220585D01*
X216558Y220474D01*
Y220391D01*
Y220335D01*
Y220308D01*
Y212479D01*
X216530Y212340D01*
X216502Y212257D01*
X216364Y212146D01*
X216225Y212090D01*
X214698D01*
X214559Y212118D01*
X214448Y212146D01*
X214365Y212201D01*
X214309Y212284D01*
X214254Y212423D01*
Y212451D01*
Y212479D01*
Y220419D01*
X214281Y221029D01*
X214393Y221585D01*
X214531Y222029D01*
X214698Y222418D01*
X214892Y222723D01*
X215031Y222945D01*
X215142Y223056D01*
X215170Y223112D01*
X215558Y223417D01*
X215975Y223667D01*
X216419Y223833D01*
X216835Y223944D01*
X217224Y224000D01*
X217530Y224056D01*
X219168D01*
X219445Y224000D01*
X219973Y223861D01*
X220389Y223667D01*
X220695Y223445D01*
X220944Y223195D01*
X221111Y223001D01*
X221194Y222862D01*
X221222Y222834D01*
Y222806D01*
X221305D01*
Y223667D01*
X221333Y223806D01*
X221361Y223889D01*
X221500Y224000D01*
X221666Y224056D01*
X223193D01*
X223332Y224028D01*
D02*
G37*
G36*
X324886D02*
X324969Y224000D01*
X325080Y223861D01*
X325136Y223722D01*
Y223695D01*
Y223667D01*
Y212479D01*
X325108Y212340D01*
X325080Y212257D01*
X324941Y212146D01*
X324803Y212090D01*
X323276D01*
X323137Y212118D01*
X323026Y212146D01*
X322970Y212201D01*
X322915Y212284D01*
X322859Y212423D01*
Y212451D01*
Y212479D01*
Y219919D01*
X322832Y220308D01*
X322776Y220613D01*
X322693Y220918D01*
X322554Y221168D01*
X322415Y221363D01*
X322249Y221529D01*
X322054Y221668D01*
X321888Y221779D01*
X321527Y221946D01*
X321221Y222029D01*
X321083Y222057D01*
X319361D01*
X319278Y222084D01*
X319167Y222223D01*
X319111Y222390D01*
Y222418D01*
Y222445D01*
Y223667D01*
X319139Y223806D01*
X319167Y223889D01*
X319306Y224000D01*
X319445Y224056D01*
X320361D01*
X320666Y224028D01*
X320944Y224000D01*
X321194Y223944D01*
X321416Y223889D01*
X321610Y223806D01*
X321749Y223750D01*
X321832Y223722D01*
X321860Y223695D01*
X322082Y223556D01*
X322276Y223417D01*
X322443Y223250D01*
X322554Y223112D01*
X322665Y222973D01*
X322721Y222862D01*
X322776Y222778D01*
Y222751D01*
X322859D01*
Y223667D01*
X322887Y223806D01*
X322915Y223889D01*
X323054Y224000D01*
X323220Y224056D01*
X324747D01*
X324886Y224028D01*
D02*
G37*
G36*
X272832D02*
X272915Y224000D01*
X273026Y223861D01*
X273082Y223722D01*
Y223695D01*
Y223667D01*
Y212479D01*
X273054Y212340D01*
X273026Y212257D01*
X272887Y212146D01*
X272749Y212090D01*
X271222D01*
X271083Y212118D01*
X270972Y212146D01*
X270916Y212201D01*
X270861Y212284D01*
X270805Y212423D01*
Y212451D01*
Y212479D01*
Y219919D01*
X270777Y220308D01*
X270722Y220613D01*
X270639Y220918D01*
X270500Y221168D01*
X270361Y221363D01*
X270194Y221529D01*
X270000Y221668D01*
X269834Y221779D01*
X269473Y221946D01*
X269167Y222029D01*
X269028Y222057D01*
X267307D01*
X267224Y222084D01*
X267113Y222223D01*
X267057Y222390D01*
Y222418D01*
Y222445D01*
Y223667D01*
X267085Y223806D01*
X267113Y223889D01*
X267252Y224000D01*
X267390Y224056D01*
X268307D01*
X268612Y224028D01*
X268890Y224000D01*
X269139Y223944D01*
X269362Y223889D01*
X269556Y223806D01*
X269695Y223750D01*
X269778Y223722D01*
X269806Y223695D01*
X270028Y223556D01*
X270222Y223417D01*
X270389Y223250D01*
X270500Y223112D01*
X270611Y222973D01*
X270666Y222862D01*
X270722Y222778D01*
Y222751D01*
X270805D01*
Y223667D01*
X270833Y223806D01*
X270861Y223889D01*
X271000Y224000D01*
X271166Y224056D01*
X272693D01*
X272832Y224028D01*
D02*
G37*
G36*
X189101D02*
X189184Y224000D01*
X189295Y223861D01*
X189351Y223722D01*
Y223695D01*
Y223667D01*
Y212479D01*
X189323Y212340D01*
X189295Y212257D01*
X189157Y212146D01*
X189018Y212090D01*
X187491D01*
X187352Y212118D01*
X187241Y212146D01*
X187185Y212201D01*
X187130Y212284D01*
X187075Y212423D01*
Y212451D01*
Y212479D01*
Y219919D01*
X187047Y220308D01*
X186991Y220613D01*
X186908Y220918D01*
X186769Y221168D01*
X186630Y221363D01*
X186464Y221529D01*
X186269Y221668D01*
X186103Y221779D01*
X185742Y221946D01*
X185436Y222029D01*
X185298Y222057D01*
X183576D01*
X183493Y222084D01*
X183382Y222223D01*
X183327Y222390D01*
Y222418D01*
Y222445D01*
Y223667D01*
X183354Y223806D01*
X183382Y223889D01*
X183521Y224000D01*
X183660Y224056D01*
X184576D01*
X184881Y224028D01*
X185159Y224000D01*
X185409Y223944D01*
X185631Y223889D01*
X185825Y223806D01*
X185964Y223750D01*
X186047Y223722D01*
X186075Y223695D01*
X186297Y223556D01*
X186491Y223417D01*
X186658Y223250D01*
X186769Y223112D01*
X186880Y222973D01*
X186936Y222862D01*
X186991Y222778D01*
Y222751D01*
X187075D01*
Y223667D01*
X187102Y223806D01*
X187130Y223889D01*
X187269Y224000D01*
X187435Y224056D01*
X188962D01*
X189101Y224028D01*
D02*
G37*
G36*
X285103D02*
X285186Y224000D01*
X285297Y223861D01*
X285353Y223722D01*
Y223695D01*
Y223667D01*
Y215727D01*
X285325Y215116D01*
X285214Y214561D01*
X285075Y214117D01*
X284908Y213728D01*
X284742Y213423D01*
X284603Y213200D01*
X284492Y213089D01*
X284464Y213034D01*
X284076Y212729D01*
X283659Y212479D01*
X283243Y212312D01*
X282826Y212201D01*
X282438Y212146D01*
X282132Y212118D01*
X282021Y212090D01*
X280800D01*
X280466Y212118D01*
X280189Y212146D01*
X279661Y212284D01*
X279273Y212479D01*
X278940Y212701D01*
X278717Y212923D01*
X278551Y213117D01*
X278468Y213256D01*
X278440Y213312D01*
X278329D01*
Y212479D01*
X278301Y212340D01*
X278273Y212257D01*
X278134Y212146D01*
X277996Y212090D01*
X276469D01*
X276330Y212118D01*
X276219Y212146D01*
X276163Y212201D01*
X276108Y212284D01*
X276052Y212423D01*
Y212451D01*
Y212479D01*
Y223667D01*
X276080Y223806D01*
X276108Y223889D01*
X276247Y224000D01*
X276413Y224056D01*
X277940D01*
X278079Y224028D01*
X278162Y224000D01*
X278273Y223861D01*
X278329Y223722D01*
Y223695D01*
Y223667D01*
Y216060D01*
X278357Y215699D01*
X278412Y215394D01*
X278495Y215144D01*
X278634Y214894D01*
X278773Y214700D01*
X278940Y214561D01*
X279106Y214422D01*
X279300Y214311D01*
X279661Y214172D01*
X279967Y214089D01*
X280106D01*
X280189Y214061D01*
X281383D01*
X281688Y214089D01*
X281938Y214144D01*
X282160Y214228D01*
X282354Y214339D01*
X282521Y214478D01*
X282660Y214616D01*
X282854Y214949D01*
X282993Y215255D01*
X283048Y215532D01*
X283076Y215644D01*
Y215727D01*
Y215782D01*
Y215810D01*
Y223667D01*
X283104Y223806D01*
X283132Y223889D01*
X283270Y224000D01*
X283437Y224056D01*
X284964D01*
X285103Y224028D01*
D02*
G37*
G36*
X160450Y227137D02*
X161006Y227026D01*
X161450Y226859D01*
X161839Y226693D01*
X162144Y226526D01*
X162366Y226360D01*
X162477Y226249D01*
X162533Y226221D01*
X162838Y225832D01*
X163088Y225416D01*
X163255Y224944D01*
X163365Y224527D01*
X163421Y224139D01*
X163449Y223806D01*
X163477Y223695D01*
Y223611D01*
Y223556D01*
Y223528D01*
Y215727D01*
X163449Y215116D01*
X163338Y214589D01*
X163171Y214117D01*
X163005Y213728D01*
X162838Y213423D01*
X162672Y213200D01*
X162560Y213089D01*
X162533Y213034D01*
X162144Y212729D01*
X161700Y212479D01*
X161256Y212312D01*
X160839Y212201D01*
X160450Y212146D01*
X160117Y212118D01*
X160006Y212090D01*
X157119D01*
X156508Y212118D01*
X155981Y212229D01*
X155509Y212395D01*
X155148Y212562D01*
X154843Y212729D01*
X154620Y212895D01*
X154509Y213006D01*
X154454Y213034D01*
X154121Y213423D01*
X153899Y213867D01*
X153732Y214311D01*
X153593Y214755D01*
X153538Y215144D01*
X153510Y215449D01*
X153482Y215560D01*
Y215644D01*
Y215699D01*
Y215727D01*
Y216837D01*
X153510Y216976D01*
X153538Y217087D01*
X153621Y217143D01*
X153677Y217198D01*
X153843Y217254D01*
X155370D01*
X155509Y217226D01*
X155620Y217198D01*
X155675Y217115D01*
X155731Y217059D01*
X155787Y216893D01*
Y216865D01*
Y216837D01*
Y215810D01*
X155814Y215505D01*
X155870Y215227D01*
X155953Y215005D01*
X156036Y214811D01*
X156175Y214644D01*
X156314Y214478D01*
X156619Y214283D01*
X156952Y214144D01*
X157202Y214089D01*
X157313Y214061D01*
X159507D01*
X159812Y214089D01*
X160062Y214144D01*
X160284Y214228D01*
X160478Y214339D01*
X160645Y214478D01*
X160784Y214616D01*
X160978Y214949D01*
X161117Y215255D01*
X161172Y215532D01*
X161200Y215644D01*
Y215727D01*
Y215782D01*
Y215810D01*
Y223445D01*
X161172Y223750D01*
X161117Y224028D01*
X161033Y224250D01*
X160923Y224444D01*
X160811Y224639D01*
X160673Y224777D01*
X160340Y224972D01*
X160034Y225110D01*
X159756Y225166D01*
X159673Y225194D01*
X157480D01*
X157175Y225166D01*
X156925Y225110D01*
X156703Y225027D01*
X156508Y224916D01*
X156342Y224777D01*
X156203Y224639D01*
X156009Y224333D01*
X155870Y224000D01*
X155814Y223722D01*
X155787Y223611D01*
Y223528D01*
Y223472D01*
Y223445D01*
Y222418D01*
X155759Y222279D01*
X155731Y222168D01*
X155648Y222112D01*
X155564Y222057D01*
X155426Y222001D01*
X153899D01*
X153760Y222029D01*
X153649Y222057D01*
X153593Y222140D01*
X153538Y222223D01*
X153482Y222362D01*
Y222390D01*
Y222418D01*
Y223528D01*
X153510Y224139D01*
X153621Y224694D01*
X153788Y225138D01*
X153954Y225527D01*
X154149Y225832D01*
X154287Y226054D01*
X154398Y226165D01*
X154454Y226221D01*
X154843Y226526D01*
X155259Y226776D01*
X155703Y226943D01*
X156147Y227054D01*
X156536Y227109D01*
X156841Y227165D01*
X159840D01*
X160450Y227137D01*
D02*
G37*
G36*
X376912D02*
X377023Y227109D01*
X377079Y227054D01*
X377135Y226971D01*
X377190Y226832D01*
Y226804D01*
Y226776D01*
Y212479D01*
X377162Y212340D01*
X377135Y212257D01*
X376968Y212146D01*
X376829Y212090D01*
X370999D01*
X370388Y212118D01*
X369861Y212229D01*
X369389Y212395D01*
X369000Y212562D01*
X368695Y212729D01*
X368473Y212895D01*
X368362Y213006D01*
X368306Y213034D01*
X367973Y213423D01*
X367751Y213867D01*
X367584Y214311D01*
X367445Y214755D01*
X367390Y215144D01*
X367362Y215449D01*
X367334Y215560D01*
Y215644D01*
Y215699D01*
Y215727D01*
Y223528D01*
X367362Y224139D01*
X367473Y224694D01*
X367640Y225138D01*
X367806Y225527D01*
X368001Y225832D01*
X368139Y226054D01*
X368251Y226165D01*
X368306Y226221D01*
X368695Y226526D01*
X369139Y226776D01*
X369583Y226943D01*
X370027Y227054D01*
X370416Y227109D01*
X370721Y227165D01*
X376774D01*
X376912Y227137D01*
D02*
G37*
G36*
X364003Y224028D02*
X364086Y224000D01*
X364197Y223861D01*
X364253Y223722D01*
Y223695D01*
Y223667D01*
Y212479D01*
X364225Y212340D01*
X364197Y212257D01*
X364058Y212146D01*
X363920Y212090D01*
X362198D01*
X362115Y212118D01*
X362087Y212146D01*
X362060D01*
X362004Y212229D01*
X361976Y212340D01*
Y212451D01*
Y212479D01*
Y223667D01*
X362004Y223806D01*
X362032Y223889D01*
X362171Y224000D01*
X362309Y224056D01*
X363864D01*
X364003Y224028D01*
D02*
G37*
G36*
X354925Y228553D02*
X355452Y228442D01*
X355896Y228275D01*
X356257Y228109D01*
X356563Y227942D01*
X356757Y227776D01*
X356868Y227665D01*
X356924Y227637D01*
X357229Y227248D01*
X357423Y226832D01*
X357590Y226388D01*
X357701Y225971D01*
X357757Y225582D01*
X357784Y225249D01*
X357812Y225138D01*
Y225055D01*
Y224999D01*
Y224972D01*
Y224278D01*
X357868Y224139D01*
X357951Y224083D01*
X358034Y224056D01*
X359478D01*
X359561Y224028D01*
X359617Y224000D01*
X359644Y223972D01*
X359700Y223889D01*
X359728Y223778D01*
Y223695D01*
Y223667D01*
Y222445D01*
X359700Y222306D01*
X359672Y222223D01*
X359506Y222112D01*
X359367Y222057D01*
X358090D01*
X357923Y222029D01*
X357840Y221946D01*
X357812Y221862D01*
Y221835D01*
Y212479D01*
X357784Y212340D01*
X357757Y212257D01*
X357618Y212146D01*
X357479Y212090D01*
X355952D01*
X355813Y212118D01*
X355702Y212146D01*
X355619Y212201D01*
X355563Y212284D01*
X355508Y212423D01*
Y212451D01*
Y212479D01*
Y221835D01*
X355480Y221973D01*
X355397Y222029D01*
X355313Y222057D01*
X353315D01*
X353176Y222084D01*
X353065Y222112D01*
X353009Y222168D01*
X352954Y222251D01*
X352898Y222390D01*
Y222418D01*
Y222445D01*
Y223667D01*
X352926Y223806D01*
X352954Y223889D01*
X353092Y224000D01*
X353259Y224056D01*
X355286D01*
X355424Y224083D01*
X355480Y224167D01*
X355508Y224250D01*
Y224278D01*
Y224861D01*
X355480Y225194D01*
X355452Y225444D01*
X355397Y225666D01*
X355341Y225860D01*
X355286Y225999D01*
X355230Y226082D01*
X355175Y226138D01*
Y226165D01*
X355036Y226304D01*
X354841Y226415D01*
X354647Y226471D01*
X354453Y226526D01*
X354258Y226554D01*
X354120Y226582D01*
X353287D01*
X353148Y226610D01*
X353065Y226637D01*
X352954Y226804D01*
X352898Y226943D01*
Y226971D01*
Y226998D01*
Y228220D01*
X352926Y228331D01*
X352954Y228442D01*
X353092Y228525D01*
X353231Y228581D01*
X354314D01*
X354925Y228553D01*
D02*
G37*
G36*
X347040D02*
X347568Y228442D01*
X348012Y228275D01*
X348373Y228109D01*
X348678Y227942D01*
X348873Y227776D01*
X348984Y227665D01*
X349039Y227637D01*
X349344Y227248D01*
X349539Y226832D01*
X349705Y226388D01*
X349817Y225971D01*
X349872Y225582D01*
X349900Y225249D01*
X349927Y225138D01*
Y225055D01*
Y224999D01*
Y224972D01*
Y224278D01*
X349983Y224139D01*
X350066Y224083D01*
X350150Y224056D01*
X351593D01*
X351676Y224028D01*
X351732Y224000D01*
X351760Y223972D01*
X351815Y223889D01*
X351843Y223778D01*
Y223695D01*
Y223667D01*
Y222445D01*
X351815Y222306D01*
X351788Y222223D01*
X351621Y222112D01*
X351482Y222057D01*
X350205D01*
X350039Y222029D01*
X349955Y221946D01*
X349927Y221862D01*
Y221835D01*
Y212479D01*
X349900Y212340D01*
X349872Y212257D01*
X349733Y212146D01*
X349594Y212090D01*
X348068D01*
X347929Y212118D01*
X347818Y212146D01*
X347734Y212201D01*
X347679Y212284D01*
X347623Y212423D01*
Y212451D01*
Y212479D01*
Y221835D01*
X347595Y221973D01*
X347512Y222029D01*
X347429Y222057D01*
X345430D01*
X345291Y222084D01*
X345180Y222112D01*
X345125Y222168D01*
X345069Y222251D01*
X345014Y222390D01*
Y222418D01*
Y222445D01*
Y223667D01*
X345041Y223806D01*
X345069Y223889D01*
X345208Y224000D01*
X345374Y224056D01*
X347401D01*
X347540Y224083D01*
X347595Y224167D01*
X347623Y224250D01*
Y224278D01*
Y224861D01*
X347595Y225194D01*
X347568Y225444D01*
X347512Y225666D01*
X347457Y225860D01*
X347401Y225999D01*
X347346Y226082D01*
X347290Y226138D01*
Y226165D01*
X347151Y226304D01*
X346957Y226415D01*
X346763Y226471D01*
X346568Y226526D01*
X346374Y226554D01*
X346235Y226582D01*
X345402D01*
X345263Y226610D01*
X345180Y226637D01*
X345069Y226804D01*
X345014Y226943D01*
Y226971D01*
Y226998D01*
Y228220D01*
X345041Y228331D01*
X345069Y228442D01*
X345208Y228525D01*
X345347Y228581D01*
X346429D01*
X347040Y228553D01*
D02*
G37*
G36*
X337046Y227137D02*
X337157Y227109D01*
X337212Y227054D01*
X337268Y226971D01*
X337323Y226832D01*
Y226804D01*
Y226776D01*
Y212479D01*
X337296Y212340D01*
X337268Y212257D01*
X337101Y212146D01*
X336963Y212090D01*
X335436D01*
X335297Y212118D01*
X335214Y212146D01*
X335103Y212284D01*
X335047Y212423D01*
Y212451D01*
Y212479D01*
Y217226D01*
X334991Y217365D01*
X334908Y217420D01*
X334825Y217448D01*
X331327D01*
X330716Y217504D01*
X330189Y217615D01*
X329717Y217754D01*
X329356Y217948D01*
X329050Y218114D01*
X328828Y218281D01*
X328717Y218392D01*
X328662Y218420D01*
X328329Y218808D01*
X328106Y219253D01*
X327940Y219697D01*
X327801Y220113D01*
X327746Y220502D01*
X327718Y220807D01*
X327690Y220918D01*
Y221002D01*
Y221057D01*
Y221085D01*
Y223528D01*
X327718Y224139D01*
X327829Y224694D01*
X327995Y225138D01*
X328162Y225527D01*
X328356Y225832D01*
X328495Y226054D01*
X328606Y226165D01*
X328662Y226221D01*
X329050Y226526D01*
X329467Y226776D01*
X329911Y226943D01*
X330355Y227054D01*
X330744Y227109D01*
X331049Y227165D01*
X336907D01*
X337046Y227137D01*
D02*
G37*
G36*
X314475Y224028D02*
X315003Y223917D01*
X315475Y223750D01*
X315863Y223584D01*
X316169Y223389D01*
X316391Y223250D01*
X316502Y223139D01*
X316557Y223084D01*
X316863Y222695D01*
X317113Y222279D01*
X317279Y221835D01*
X317390Y221390D01*
X317446Y221002D01*
X317474Y220696D01*
X317501Y220585D01*
Y220502D01*
Y220446D01*
Y220419D01*
Y215727D01*
X317474Y215116D01*
X317362Y214589D01*
X317196Y214117D01*
X317029Y213728D01*
X316863Y213423D01*
X316696Y213200D01*
X316585Y213089D01*
X316557Y213034D01*
X316169Y212729D01*
X315725Y212479D01*
X315280Y212312D01*
X314836Y212201D01*
X314447Y212146D01*
X314142Y212118D01*
X314031Y212090D01*
X308784D01*
X308645Y212118D01*
X308534Y212146D01*
X308479Y212201D01*
X308423Y212284D01*
X308368Y212395D01*
Y212423D01*
Y212451D01*
Y213617D01*
X308395Y213756D01*
X308423Y213867D01*
X308506Y213950D01*
X308562Y214006D01*
X308728Y214061D01*
X313531D01*
X313837Y214089D01*
X314086Y214144D01*
X314309Y214228D01*
X314503Y214339D01*
X314669Y214450D01*
X314808Y214589D01*
X315003Y214922D01*
X315142Y215227D01*
X315197Y215505D01*
X315225Y215588D01*
Y215671D01*
Y215727D01*
Y215755D01*
Y216782D01*
X315197Y216921D01*
X315086Y216976D01*
X315003Y217004D01*
X308673D01*
X308534Y217032D01*
X308423Y217059D01*
X308368Y217143D01*
X308312Y217226D01*
X308256Y217365D01*
Y217393D01*
Y217420D01*
Y220419D01*
X308284Y221029D01*
X308395Y221557D01*
X308562Y222029D01*
X308728Y222390D01*
X308923Y222695D01*
X309062Y222917D01*
X309173Y223028D01*
X309228Y223084D01*
X309617Y223417D01*
X310061Y223639D01*
X310505Y223806D01*
X310949Y223944D01*
X311338Y224000D01*
X311643Y224028D01*
X311754Y224056D01*
X313864D01*
X314475Y224028D01*
D02*
G37*
G36*
X303426D02*
X303953Y223917D01*
X304398Y223778D01*
X304786Y223584D01*
X305119Y223361D01*
X305369Y223112D01*
X305591Y222834D01*
X305786Y222556D01*
X305924Y222251D01*
X306035Y222001D01*
X306091Y221723D01*
X306147Y221501D01*
X306174Y221307D01*
X306202Y221168D01*
Y221057D01*
Y221029D01*
X306174Y220641D01*
X306119Y220280D01*
X306035Y219974D01*
X305924Y219725D01*
X305841Y219503D01*
X305758Y219364D01*
X305702Y219253D01*
X305675Y219225D01*
X305452Y218975D01*
X305175Y218753D01*
X304869Y218559D01*
X304592Y218364D01*
X304342Y218225D01*
X304120Y218114D01*
X303981Y218031D01*
X303926Y218003D01*
X301371Y216782D01*
X301010Y216588D01*
X300733Y216338D01*
X300539Y216115D01*
X300400Y215866D01*
X300317Y215671D01*
X300289Y215505D01*
X300261Y215394D01*
Y215338D01*
Y215061D01*
X300289Y214866D01*
X300317Y214700D01*
X300511Y214450D01*
X300733Y214256D01*
X301010Y214144D01*
X301316Y214061D01*
X301538Y214033D01*
X301732Y214006D01*
X305730D01*
X305869Y213978D01*
X305952Y213950D01*
X306063Y213811D01*
X306119Y213672D01*
Y213645D01*
Y213617D01*
Y212479D01*
X306091Y212340D01*
X306063Y212257D01*
X305924Y212146D01*
X305786Y212090D01*
X301399D01*
X300788Y212118D01*
X300233Y212229D01*
X299789Y212368D01*
X299373Y212562D01*
X299039Y212784D01*
X298762Y213062D01*
X298512Y213312D01*
X298345Y213617D01*
X298207Y213895D01*
X298095Y214172D01*
X298012Y214422D01*
X297957Y214644D01*
X297929Y214839D01*
X297901Y214977D01*
Y215088D01*
Y215116D01*
X297929Y215532D01*
X297984Y215921D01*
X298040Y216254D01*
X298123Y216532D01*
X298234Y216754D01*
X298290Y216893D01*
X298345Y217004D01*
X298373Y217032D01*
X298567Y217309D01*
X298817Y217559D01*
X299095Y217781D01*
X299373Y217976D01*
X299622Y218114D01*
X299844Y218225D01*
X299983Y218309D01*
X300011Y218337D01*
X300039D01*
X302621Y219641D01*
X302843Y219752D01*
X303009Y219863D01*
X303315Y220086D01*
X303509Y220308D01*
X303676Y220502D01*
X303759Y220669D01*
X303787Y220835D01*
X303815Y220918D01*
Y220946D01*
Y221224D01*
X303787Y221363D01*
X303759Y221501D01*
X303620Y221696D01*
X303509Y221807D01*
X303481Y221862D01*
X303454D01*
X303287Y221946D01*
X303120Y222001D01*
X302759Y222084D01*
X302621Y222112D01*
X298928D01*
X298817Y222140D01*
X298706Y222168D01*
X298623Y222306D01*
X298567Y222445D01*
Y222473D01*
Y222501D01*
Y223667D01*
X298595Y223806D01*
X298623Y223889D01*
X298734Y224000D01*
X298873Y224056D01*
X302843D01*
X303426Y224028D01*
D02*
G37*
G36*
X293209D02*
X293737Y223917D01*
X294181Y223778D01*
X294570Y223584D01*
X294903Y223361D01*
X295153Y223112D01*
X295375Y222834D01*
X295569Y222556D01*
X295708Y222251D01*
X295819Y222001D01*
X295875Y221723D01*
X295930Y221501D01*
X295958Y221307D01*
X295986Y221168D01*
Y221057D01*
Y221029D01*
X295958Y220641D01*
X295902Y220280D01*
X295819Y219974D01*
X295708Y219725D01*
X295625Y219503D01*
X295541Y219364D01*
X295486Y219253D01*
X295458Y219225D01*
X295236Y218975D01*
X294958Y218753D01*
X294653Y218559D01*
X294375Y218364D01*
X294125Y218225D01*
X293903Y218114D01*
X293765Y218031D01*
X293709Y218003D01*
X291155Y216782D01*
X290794Y216588D01*
X290516Y216338D01*
X290322Y216115D01*
X290183Y215866D01*
X290100Y215671D01*
X290072Y215505D01*
X290044Y215394D01*
Y215338D01*
Y215061D01*
X290072Y214866D01*
X290100Y214700D01*
X290294Y214450D01*
X290516Y214256D01*
X290794Y214144D01*
X291099Y214061D01*
X291322Y214033D01*
X291516Y214006D01*
X295514D01*
X295652Y213978D01*
X295736Y213950D01*
X295847Y213811D01*
X295902Y213672D01*
Y213645D01*
Y213617D01*
Y212479D01*
X295875Y212340D01*
X295847Y212257D01*
X295708Y212146D01*
X295569Y212090D01*
X291183D01*
X290572Y212118D01*
X290017Y212229D01*
X289573Y212368D01*
X289156Y212562D01*
X288823Y212784D01*
X288545Y213062D01*
X288295Y213312D01*
X288129Y213617D01*
X287990Y213895D01*
X287879Y214172D01*
X287796Y214422D01*
X287740Y214644D01*
X287712Y214839D01*
X287685Y214977D01*
Y215088D01*
Y215116D01*
X287712Y215532D01*
X287768Y215921D01*
X287824Y216254D01*
X287907Y216532D01*
X288018Y216754D01*
X288073Y216893D01*
X288129Y217004D01*
X288157Y217032D01*
X288351Y217309D01*
X288601Y217559D01*
X288878Y217781D01*
X289156Y217976D01*
X289406Y218114D01*
X289628Y218225D01*
X289767Y218309D01*
X289795Y218337D01*
X289822D01*
X292404Y219641D01*
X292626Y219752D01*
X292793Y219863D01*
X293098Y220086D01*
X293293Y220308D01*
X293459Y220502D01*
X293542Y220669D01*
X293570Y220835D01*
X293598Y220918D01*
Y220946D01*
Y221224D01*
X293570Y221363D01*
X293542Y221501D01*
X293404Y221696D01*
X293293Y221807D01*
X293265Y221862D01*
X293237D01*
X293071Y221946D01*
X292904Y222001D01*
X292543Y222084D01*
X292404Y222112D01*
X288712D01*
X288601Y222140D01*
X288490Y222168D01*
X288407Y222306D01*
X288351Y222445D01*
Y222473D01*
Y222501D01*
Y223667D01*
X288379Y223806D01*
X288407Y223889D01*
X288517Y224000D01*
X288656Y224056D01*
X292626D01*
X293209Y224028D01*
D02*
G37*
G36*
X262421D02*
X262948Y223917D01*
X263421Y223750D01*
X263809Y223584D01*
X264115Y223389D01*
X264337Y223250D01*
X264448Y223139D01*
X264503Y223084D01*
X264809Y222695D01*
X265058Y222279D01*
X265225Y221835D01*
X265336Y221390D01*
X265392Y221002D01*
X265419Y220696D01*
X265447Y220585D01*
Y220502D01*
Y220446D01*
Y220419D01*
Y215727D01*
X265419Y215116D01*
X265308Y214589D01*
X265142Y214117D01*
X264975Y213728D01*
X264809Y213423D01*
X264642Y213200D01*
X264531Y213089D01*
X264503Y213034D01*
X264115Y212729D01*
X263670Y212479D01*
X263226Y212312D01*
X262782Y212201D01*
X262393Y212146D01*
X262088Y212118D01*
X261977Y212090D01*
X256730D01*
X256591Y212118D01*
X256480Y212146D01*
X256424Y212201D01*
X256369Y212284D01*
X256313Y212395D01*
Y212423D01*
Y212451D01*
Y213617D01*
X256341Y213756D01*
X256369Y213867D01*
X256452Y213950D01*
X256508Y214006D01*
X256674Y214061D01*
X261477D01*
X261782Y214089D01*
X262032Y214144D01*
X262255Y214228D01*
X262449Y214339D01*
X262615Y214450D01*
X262754Y214589D01*
X262948Y214922D01*
X263087Y215227D01*
X263143Y215505D01*
X263171Y215588D01*
Y215671D01*
Y215727D01*
Y215755D01*
Y216782D01*
X263143Y216921D01*
X263032Y216976D01*
X262948Y217004D01*
X256619D01*
X256480Y217032D01*
X256369Y217059D01*
X256313Y217143D01*
X256258Y217226D01*
X256202Y217365D01*
Y217393D01*
Y217420D01*
Y220419D01*
X256230Y221029D01*
X256341Y221557D01*
X256508Y222029D01*
X256674Y222390D01*
X256869Y222695D01*
X257007Y222917D01*
X257118Y223028D01*
X257174Y223084D01*
X257563Y223417D01*
X258007Y223639D01*
X258451Y223806D01*
X258895Y223944D01*
X259284Y224000D01*
X259589Y224028D01*
X259700Y224056D01*
X261810D01*
X262421Y224028D01*
D02*
G37*
G36*
X245042Y227137D02*
X245569Y227026D01*
X246041Y226859D01*
X246430Y226693D01*
X246735Y226499D01*
X246957Y226360D01*
X247069Y226249D01*
X247124Y226193D01*
X247457Y225805D01*
X247679Y225360D01*
X247846Y224916D01*
X247985Y224500D01*
X248040Y224111D01*
X248068Y223806D01*
X248096Y223695D01*
Y223611D01*
Y223556D01*
Y223528D01*
Y222529D01*
X248068Y222057D01*
X248013Y221640D01*
X247901Y221279D01*
X247790Y220946D01*
X247707Y220696D01*
X247596Y220530D01*
X247540Y220391D01*
X247513Y220363D01*
X247291Y220086D01*
X247041Y219836D01*
X246819Y219641D01*
X246597Y219475D01*
X246402Y219364D01*
X246236Y219280D01*
X246125Y219253D01*
X246097Y219225D01*
X245458Y219003D01*
X245153Y218920D01*
X244875Y218836D01*
X244625Y218753D01*
X244431Y218725D01*
X244320Y218670D01*
X244265D01*
X243876Y218586D01*
X243543Y218531D01*
X243237Y218447D01*
X242960Y218420D01*
X242710Y218364D01*
X242543Y218337D01*
X242432Y218309D01*
X242404D01*
X242099Y218253D01*
X241821Y218170D01*
X241572Y218059D01*
X241350Y217976D01*
X241183Y217864D01*
X241072Y217809D01*
X240989Y217754D01*
X240961Y217726D01*
X240767Y217559D01*
X240628Y217365D01*
X240517Y217171D01*
X240461Y216976D01*
X240406Y216810D01*
X240378Y216671D01*
Y216588D01*
Y216560D01*
Y216032D01*
X240406Y215671D01*
X240461Y215338D01*
X240517Y215088D01*
X240600Y214866D01*
X240711Y214700D01*
X240767Y214589D01*
X240822Y214533D01*
X240850Y214505D01*
X241044Y214366D01*
X241266Y214256D01*
X241488Y214172D01*
X241738Y214117D01*
X241960Y214089D01*
X242127Y214061D01*
X243904D01*
X244265Y214089D01*
X244570Y214144D01*
X244820Y214200D01*
X245014Y214283D01*
X245181Y214366D01*
X245292Y214450D01*
X245347Y214478D01*
X245375Y214505D01*
X245514Y214700D01*
X245625Y214922D01*
X245681Y215144D01*
X245736Y215394D01*
X245764Y215588D01*
X245791Y215755D01*
Y215866D01*
Y215921D01*
Y216338D01*
X245819Y216476D01*
X245847Y216588D01*
X245903Y216643D01*
X245986Y216698D01*
X246125Y216754D01*
X247707D01*
X247846Y216726D01*
X247929Y216698D01*
X248040Y216560D01*
X248096Y216393D01*
Y216365D01*
Y216338D01*
Y215727D01*
X248040Y215116D01*
X247929Y214589D01*
X247790Y214144D01*
X247596Y213756D01*
X247430Y213450D01*
X247263Y213228D01*
X247152Y213117D01*
X247124Y213062D01*
X246708Y212729D01*
X246264Y212506D01*
X245819Y212340D01*
X245375Y212201D01*
X244986Y212146D01*
X244681Y212118D01*
X244570Y212090D01*
X241766D01*
X241155Y212146D01*
X240628Y212257D01*
X240184Y212395D01*
X239795Y212590D01*
X239489Y212756D01*
X239267Y212923D01*
X239156Y213034D01*
X239101Y213062D01*
X238768Y213450D01*
X238518Y213895D01*
X238351Y214339D01*
X238212Y214755D01*
X238157Y215144D01*
X238129Y215449D01*
X238101Y215560D01*
Y215644D01*
Y215699D01*
Y215727D01*
Y216643D01*
X238129Y217059D01*
X238157Y217420D01*
X238240Y217754D01*
X238323Y218031D01*
X238407Y218253D01*
X238462Y218420D01*
X238518Y218531D01*
X238546Y218559D01*
X238712Y218836D01*
X238906Y219086D01*
X239073Y219280D01*
X239267Y219447D01*
X239406Y219586D01*
X239545Y219669D01*
X239628Y219725D01*
X239656Y219752D01*
X240184Y220002D01*
X240433Y220113D01*
X240655Y220197D01*
X240850Y220280D01*
X241016Y220335D01*
X241127Y220363D01*
X241155D01*
X241738Y220530D01*
X242016Y220585D01*
X242266Y220641D01*
X242460Y220669D01*
X242627Y220696D01*
X242738Y220724D01*
X242765D01*
X243348Y220807D01*
X243598Y220863D01*
X243820Y220918D01*
X244015Y220946D01*
X244153Y220974D01*
X244237Y221002D01*
X244265D01*
X244542Y221085D01*
X244764Y221168D01*
X244959Y221279D01*
X245153Y221390D01*
X245431Y221640D01*
X245597Y221862D01*
X245708Y222084D01*
X245764Y222279D01*
X245791Y222390D01*
Y222445D01*
Y223167D01*
X245764Y223556D01*
X245736Y223889D01*
X245653Y224139D01*
X245569Y224361D01*
X245514Y224527D01*
X245431Y224639D01*
X245403Y224694D01*
X245375Y224722D01*
X245181Y224888D01*
X244959Y224999D01*
X244709Y225083D01*
X244459Y225138D01*
X244265Y225166D01*
X244070Y225194D01*
X242432D01*
X242071Y225166D01*
X241794Y225138D01*
X241544Y225055D01*
X241322Y224972D01*
X241183Y224888D01*
X241072Y224833D01*
X241016Y224777D01*
X240989Y224750D01*
X240850Y224555D01*
X240739Y224333D01*
X240655Y224111D01*
X240600Y223861D01*
X240572Y223639D01*
X240544Y223472D01*
Y223361D01*
Y223306D01*
Y223001D01*
X240517Y222862D01*
X240489Y222778D01*
X240350Y222667D01*
X240211Y222612D01*
X238657D01*
X238518Y222640D01*
X238407Y222667D01*
X238351Y222723D01*
X238296Y222806D01*
X238240Y222945D01*
Y222973D01*
Y223001D01*
Y223528D01*
X238296Y224139D01*
X238407Y224666D01*
X238546Y225110D01*
X238740Y225499D01*
X238934Y225805D01*
X239073Y226027D01*
X239184Y226138D01*
X239240Y226193D01*
X239628Y226526D01*
X240072Y226748D01*
X240517Y226915D01*
X240961Y227054D01*
X241350Y227109D01*
X241655Y227137D01*
X241766Y227165D01*
X244431D01*
X245042Y227137D01*
D02*
G37*
G36*
X232382Y224028D02*
X232910Y223917D01*
X233382Y223750D01*
X233771Y223584D01*
X234076Y223389D01*
X234298Y223250D01*
X234409Y223139D01*
X234464Y223084D01*
X234770Y222695D01*
X235020Y222279D01*
X235186Y221835D01*
X235297Y221390D01*
X235353Y221002D01*
X235381Y220696D01*
X235408Y220585D01*
Y220502D01*
Y220446D01*
Y220419D01*
Y215727D01*
X235381Y215116D01*
X235270Y214589D01*
X235103Y214117D01*
X234937Y213728D01*
X234770Y213423D01*
X234603Y213200D01*
X234492Y213089D01*
X234464Y213034D01*
X234076Y212729D01*
X233632Y212479D01*
X233188Y212312D01*
X232743Y212201D01*
X232355Y212146D01*
X232049Y212118D01*
X231938Y212090D01*
X226691D01*
X226552Y212118D01*
X226441Y212146D01*
X226386Y212201D01*
X226330Y212284D01*
X226275Y212395D01*
Y212423D01*
Y212451D01*
Y213617D01*
X226302Y213756D01*
X226330Y213867D01*
X226413Y213950D01*
X226469Y214006D01*
X226636Y214061D01*
X231438D01*
X231744Y214089D01*
X231994Y214144D01*
X232216Y214228D01*
X232410Y214339D01*
X232577Y214450D01*
X232715Y214589D01*
X232910Y214922D01*
X233049Y215227D01*
X233104Y215505D01*
X233132Y215588D01*
Y215671D01*
Y215727D01*
Y215755D01*
Y216782D01*
X233104Y216921D01*
X232993Y216976D01*
X232910Y217004D01*
X226580D01*
X226441Y217032D01*
X226330Y217059D01*
X226275Y217143D01*
X226219Y217226D01*
X226164Y217365D01*
Y217393D01*
Y217420D01*
Y220419D01*
X226191Y221029D01*
X226302Y221557D01*
X226469Y222029D01*
X226636Y222390D01*
X226830Y222695D01*
X226969Y222917D01*
X227080Y223028D01*
X227135Y223084D01*
X227524Y223417D01*
X227968Y223639D01*
X228412Y223806D01*
X228857Y223944D01*
X229245Y224000D01*
X229551Y224028D01*
X229662Y224056D01*
X231772D01*
X232382Y224028D01*
D02*
G37*
G36*
X209173D02*
X209701Y223917D01*
X210145Y223778D01*
X210534Y223584D01*
X210867Y223361D01*
X211117Y223112D01*
X211339Y222834D01*
X211533Y222556D01*
X211672Y222251D01*
X211783Y222001D01*
X211838Y221723D01*
X211894Y221501D01*
X211922Y221307D01*
X211949Y221168D01*
Y221057D01*
Y221029D01*
X211922Y220641D01*
X211866Y220280D01*
X211783Y219974D01*
X211672Y219725D01*
X211588Y219503D01*
X211505Y219364D01*
X211450Y219253D01*
X211422Y219225D01*
X211200Y218975D01*
X210922Y218753D01*
X210617Y218559D01*
X210339Y218364D01*
X210089Y218225D01*
X209867Y218114D01*
X209728Y218031D01*
X209673Y218003D01*
X207119Y216782D01*
X206758Y216588D01*
X206480Y216338D01*
X206286Y216115D01*
X206147Y215866D01*
X206064Y215671D01*
X206036Y215505D01*
X206008Y215394D01*
Y215338D01*
Y215061D01*
X206036Y214866D01*
X206064Y214700D01*
X206258Y214450D01*
X206480Y214256D01*
X206758Y214144D01*
X207063Y214061D01*
X207285Y214033D01*
X207480Y214006D01*
X211477D01*
X211616Y213978D01*
X211700Y213950D01*
X211811Y213811D01*
X211866Y213672D01*
Y213645D01*
Y213617D01*
Y212479D01*
X211838Y212340D01*
X211811Y212257D01*
X211672Y212146D01*
X211533Y212090D01*
X207146D01*
X206536Y212118D01*
X205980Y212229D01*
X205536Y212368D01*
X205120Y212562D01*
X204787Y212784D01*
X204509Y213062D01*
X204259Y213312D01*
X204093Y213617D01*
X203954Y213895D01*
X203843Y214172D01*
X203759Y214422D01*
X203704Y214644D01*
X203676Y214839D01*
X203648Y214977D01*
Y215088D01*
Y215116D01*
X203676Y215532D01*
X203732Y215921D01*
X203787Y216254D01*
X203871Y216532D01*
X203982Y216754D01*
X204037Y216893D01*
X204093Y217004D01*
X204120Y217032D01*
X204315Y217309D01*
X204565Y217559D01*
X204842Y217781D01*
X205120Y217976D01*
X205370Y218114D01*
X205592Y218225D01*
X205731Y218309D01*
X205758Y218337D01*
X205786D01*
X208368Y219641D01*
X208590Y219752D01*
X208757Y219863D01*
X209062Y220086D01*
X209256Y220308D01*
X209423Y220502D01*
X209506Y220669D01*
X209534Y220835D01*
X209562Y220918D01*
Y220946D01*
Y221224D01*
X209534Y221363D01*
X209506Y221501D01*
X209368Y221696D01*
X209256Y221807D01*
X209229Y221862D01*
X209201D01*
X209034Y221946D01*
X208868Y222001D01*
X208507Y222084D01*
X208368Y222112D01*
X204676D01*
X204565Y222140D01*
X204454Y222168D01*
X204370Y222306D01*
X204315Y222445D01*
Y222473D01*
Y222501D01*
Y223667D01*
X204342Y223806D01*
X204370Y223889D01*
X204481Y224000D01*
X204620Y224056D01*
X208590D01*
X209173Y224028D01*
D02*
G37*
G36*
X198429D02*
X198957Y223917D01*
X199429Y223750D01*
X199817Y223584D01*
X200123Y223389D01*
X200345Y223250D01*
X200456Y223139D01*
X200511Y223084D01*
X200817Y222695D01*
X201067Y222279D01*
X201233Y221835D01*
X201344Y221390D01*
X201400Y221002D01*
X201427Y220696D01*
X201455Y220585D01*
Y220502D01*
Y220446D01*
Y220419D01*
Y215727D01*
X201427Y215116D01*
X201317Y214589D01*
X201150Y214117D01*
X200983Y213728D01*
X200817Y213423D01*
X200650Y213200D01*
X200539Y213089D01*
X200511Y213034D01*
X200123Y212729D01*
X199678Y212479D01*
X199234Y212312D01*
X198790Y212201D01*
X198401Y212146D01*
X198096Y212118D01*
X197985Y212090D01*
X195736D01*
X195126Y212118D01*
X194598Y212229D01*
X194126Y212395D01*
X193737Y212562D01*
X193432Y212729D01*
X193210Y212895D01*
X193099Y213006D01*
X193043Y213034D01*
X192710Y213423D01*
X192488Y213867D01*
X192321Y214311D01*
X192183Y214755D01*
X192127Y215144D01*
X192099Y215449D01*
X192072Y215560D01*
Y215644D01*
Y215699D01*
Y215727D01*
Y220419D01*
X192099Y221029D01*
X192211Y221557D01*
X192377Y222029D01*
X192544Y222390D01*
X192738Y222695D01*
X192877Y222917D01*
X192988Y223028D01*
X193043Y223084D01*
X193432Y223417D01*
X193876Y223639D01*
X194320Y223806D01*
X194765Y223944D01*
X195153Y224000D01*
X195459Y224028D01*
X195570Y224056D01*
X197818D01*
X198429Y224028D01*
D02*
G37*
G36*
X175387Y227137D02*
X175498Y227109D01*
X175553Y227054D01*
X175609Y226971D01*
X175664Y226832D01*
Y226804D01*
Y226776D01*
Y212479D01*
X175636Y212340D01*
X175609Y212257D01*
X175442Y212146D01*
X175303Y212090D01*
X173776D01*
X173638Y212118D01*
X173554Y212146D01*
X173443Y212284D01*
X173388Y212423D01*
Y212451D01*
Y212479D01*
Y217226D01*
X173332Y217365D01*
X173249Y217420D01*
X173166Y217448D01*
X169668D01*
X169057Y217504D01*
X168529Y217615D01*
X168057Y217754D01*
X167696Y217948D01*
X167391Y218114D01*
X167169Y218281D01*
X167058Y218392D01*
X167002Y218420D01*
X166669Y218808D01*
X166447Y219253D01*
X166281Y219697D01*
X166142Y220113D01*
X166086Y220502D01*
X166059Y220807D01*
X166031Y220918D01*
Y221002D01*
Y221057D01*
Y221085D01*
Y223528D01*
X166059Y224139D01*
X166169Y224694D01*
X166336Y225138D01*
X166503Y225527D01*
X166697Y225832D01*
X166836Y226054D01*
X166947Y226165D01*
X167002Y226221D01*
X167391Y226526D01*
X167808Y226776D01*
X168252Y226943D01*
X168696Y227054D01*
X169084Y227109D01*
X169390Y227165D01*
X175248D01*
X175387Y227137D01*
D02*
G37*
G36*
X150289D02*
X150401Y227109D01*
X150456Y227054D01*
X150512Y226971D01*
X150567Y226832D01*
Y226804D01*
Y226776D01*
Y212479D01*
X150539Y212340D01*
X150512Y212257D01*
X150345Y212146D01*
X150206Y212090D01*
X144376D01*
X143765Y212118D01*
X143238Y212229D01*
X142766Y212368D01*
X142405Y212562D01*
X142100Y212729D01*
X141878Y212867D01*
X141767Y212978D01*
X141711Y213006D01*
X141378Y213395D01*
X141156Y213811D01*
X140989Y214256D01*
X140850Y214700D01*
X140795Y215088D01*
X140767Y215394D01*
X140739Y215505D01*
Y215588D01*
Y215644D01*
Y215671D01*
Y217171D01*
X140767Y217587D01*
X140823Y217948D01*
X140934Y218253D01*
X141045Y218531D01*
X141156Y218725D01*
X141267Y218892D01*
X141322Y218975D01*
X141350Y219003D01*
X141572Y219225D01*
X141822Y219419D01*
X142072Y219558D01*
X142322Y219669D01*
X142516Y219725D01*
X142683Y219780D01*
X142822Y219808D01*
X142849D01*
X142516Y219947D01*
X142211Y220086D01*
X141961Y220280D01*
X141739Y220474D01*
X141544Y220669D01*
X141406Y220891D01*
X141267Y221113D01*
X141184Y221335D01*
X141045Y221779D01*
X140961Y222112D01*
X140934Y222251D01*
Y222362D01*
Y222418D01*
Y222445D01*
Y223584D01*
X140961Y224194D01*
X141073Y224722D01*
X141239Y225166D01*
X141406Y225555D01*
X141600Y225832D01*
X141739Y226054D01*
X141850Y226165D01*
X141905Y226221D01*
X142294Y226526D01*
X142711Y226776D01*
X143182Y226943D01*
X143599Y227054D01*
X143988Y227109D01*
X144321Y227165D01*
X150151D01*
X150289Y227137D01*
D02*
G37*
%LPC*%
G36*
X160601Y37659D02*
X157963D01*
X157709Y37636D01*
X157500Y37590D01*
X157315Y37521D01*
X157153Y37428D01*
X157015Y37312D01*
X156922Y37197D01*
X156737Y36942D01*
X156644Y36665D01*
X156598Y36433D01*
X156575Y36340D01*
Y36271D01*
Y36225D01*
Y36202D01*
Y34351D01*
X156598Y34096D01*
X156644Y33865D01*
X156714Y33679D01*
X156783Y33517D01*
X156899Y33379D01*
X157015Y33240D01*
X157269Y33078D01*
X157524Y32962D01*
X157755Y32916D01*
X157824Y32893D01*
X160555D01*
X160694Y32916D01*
X160763Y32985D01*
X160786Y33055D01*
Y33078D01*
Y37451D01*
X160740Y37567D01*
X160671Y37636D01*
X160601Y37659D01*
D02*
G37*
G36*
X231172Y72794D02*
X227813D01*
X227507Y72766D01*
X227257Y72710D01*
X227035Y72627D01*
X226841Y72516D01*
X226674Y72377D01*
X226536Y72238D01*
X226341Y71933D01*
X226203Y71600D01*
X226147Y71322D01*
X226119Y71211D01*
Y71128D01*
Y71073D01*
Y71045D01*
Y63410D01*
X226147Y63105D01*
X226203Y62827D01*
X226286Y62605D01*
X226369Y62411D01*
X226508Y62244D01*
X226647Y62077D01*
X226952Y61883D01*
X227285Y61744D01*
X227535Y61689D01*
X227646Y61661D01*
X231116D01*
X231283Y61717D01*
X231366Y61800D01*
X231394Y61883D01*
Y61939D01*
Y72544D01*
X231339Y72683D01*
X231255Y72766D01*
X231172Y72794D01*
D02*
G37*
G36*
X212544D02*
X209379D01*
X209073Y72766D01*
X208823Y72710D01*
X208601Y72627D01*
X208407Y72516D01*
X208240Y72377D01*
X208129Y72238D01*
X207907Y71933D01*
X207796Y71600D01*
X207741Y71322D01*
X207713Y71211D01*
Y71128D01*
Y71073D01*
Y71045D01*
Y68824D01*
X207741Y68518D01*
X207796Y68241D01*
X207879Y68019D01*
X207963Y67824D01*
X208102Y67658D01*
X208240Y67491D01*
X208546Y67297D01*
X208851Y67158D01*
X209129Y67102D01*
X209212Y67075D01*
X212488D01*
X212654Y67102D01*
X212738Y67186D01*
X212766Y67269D01*
Y67297D01*
Y72544D01*
X212710Y72683D01*
X212627Y72766D01*
X212544Y72794D01*
D02*
G37*
G36*
X199301Y69657D02*
X196330D01*
X196192Y69629D01*
X196108Y69546D01*
X196080Y69462D01*
Y69434D01*
Y63660D01*
X196108Y63299D01*
X196164Y62994D01*
X196247Y62744D01*
X196386Y62494D01*
X196525Y62300D01*
X196691Y62161D01*
X196858Y62022D01*
X197024Y61911D01*
X197385Y61772D01*
X197691Y61689D01*
X197829D01*
X197913Y61661D01*
X199134D01*
X199440Y61689D01*
X199690Y61744D01*
X199912Y61828D01*
X200106Y61939D01*
X200273Y62077D01*
X200411Y62216D01*
X200606Y62550D01*
X200745Y62855D01*
X200800Y63133D01*
X200828Y63244D01*
Y63327D01*
Y63382D01*
Y63410D01*
Y67908D01*
X200800Y68213D01*
X200745Y68491D01*
X200661Y68713D01*
X200550Y68907D01*
X200439Y69101D01*
X200300Y69240D01*
X199967Y69434D01*
X199662Y69573D01*
X199384Y69629D01*
X199301Y69657D01*
D02*
G37*
G36*
X187280D02*
X185864D01*
X185531Y69629D01*
X185226Y69573D01*
X184976Y69462D01*
X184726Y69351D01*
X184559Y69185D01*
X184393Y69018D01*
X184254Y68851D01*
X184170Y68657D01*
X184032Y68296D01*
X183948Y67963D01*
X183921Y67852D01*
Y67741D01*
Y67685D01*
Y67658D01*
Y63660D01*
X183948Y63299D01*
X184004Y62994D01*
X184087Y62744D01*
X184226Y62494D01*
X184365Y62300D01*
X184531Y62161D01*
X184698Y62022D01*
X184892Y61911D01*
X185253Y61772D01*
X185559Y61689D01*
X185697D01*
X185781Y61661D01*
X187113D01*
X187419Y61689D01*
X187669Y61744D01*
X187891Y61828D01*
X188085Y61939D01*
X188252Y62077D01*
X188390Y62216D01*
X188585Y62550D01*
X188724Y62855D01*
X188779Y63133D01*
X188807Y63244D01*
Y63327D01*
Y63382D01*
Y63410D01*
Y67908D01*
X188779Y68213D01*
X188724Y68491D01*
X188640Y68713D01*
X188529Y68907D01*
X188418Y69101D01*
X188279Y69240D01*
X187946Y69434D01*
X187641Y69573D01*
X187363Y69629D01*
X187280Y69657D01*
D02*
G37*
G36*
X374691Y225194D02*
X371332D01*
X371027Y225166D01*
X370777Y225110D01*
X370555Y225027D01*
X370360Y224916D01*
X370194Y224777D01*
X370055Y224639D01*
X369861Y224333D01*
X369722Y224000D01*
X369666Y223722D01*
X369639Y223611D01*
Y223528D01*
Y223472D01*
Y223445D01*
Y215810D01*
X369666Y215505D01*
X369722Y215227D01*
X369805Y215005D01*
X369888Y214811D01*
X370027Y214644D01*
X370166Y214478D01*
X370471Y214283D01*
X370805Y214144D01*
X371055Y214089D01*
X371166Y214061D01*
X374636D01*
X374803Y214117D01*
X374886Y214200D01*
X374913Y214283D01*
Y214339D01*
Y224944D01*
X374858Y225083D01*
X374775Y225166D01*
X374691Y225194D01*
D02*
G37*
G36*
X334825D02*
X331660D01*
X331355Y225166D01*
X331105Y225110D01*
X330883Y225027D01*
X330688Y224916D01*
X330522Y224777D01*
X330411Y224639D01*
X330189Y224333D01*
X330078Y224000D01*
X330022Y223722D01*
X329994Y223611D01*
Y223528D01*
Y223472D01*
Y223445D01*
Y221224D01*
X330022Y220918D01*
X330078Y220641D01*
X330161Y220419D01*
X330244Y220224D01*
X330383Y220058D01*
X330522Y219891D01*
X330827Y219697D01*
X331133Y219558D01*
X331410Y219503D01*
X331493Y219475D01*
X334769D01*
X334936Y219503D01*
X335019Y219586D01*
X335047Y219669D01*
Y219697D01*
Y224944D01*
X334991Y225083D01*
X334908Y225166D01*
X334825Y225194D01*
D02*
G37*
G36*
X313670Y222057D02*
X312227D01*
X311921Y222029D01*
X311643Y222001D01*
X311421Y221918D01*
X311255Y221862D01*
X311116Y221779D01*
X311033Y221696D01*
X310977Y221668D01*
X310949Y221640D01*
X310811Y221474D01*
X310700Y221252D01*
X310644Y221057D01*
X310588Y220835D01*
X310561Y220641D01*
X310533Y220474D01*
Y220363D01*
Y220335D01*
Y218836D01*
X310561Y218697D01*
X310644Y218642D01*
X310755Y218614D01*
X314975D01*
X315114Y218642D01*
X315197Y218725D01*
X315225Y218808D01*
Y218836D01*
Y220335D01*
X315197Y220641D01*
X315169Y220918D01*
X315114Y221140D01*
X315030Y221335D01*
X314947Y221474D01*
X314892Y221557D01*
X314864Y221612D01*
X314836Y221640D01*
X314669Y221779D01*
X314447Y221890D01*
X314253Y221946D01*
X314031Y222001D01*
X313837Y222029D01*
X313670Y222057D01*
D02*
G37*
G36*
X261616D02*
X260172D01*
X259867Y222029D01*
X259589Y222001D01*
X259367Y221918D01*
X259201Y221862D01*
X259062Y221779D01*
X258979Y221696D01*
X258923Y221668D01*
X258895Y221640D01*
X258757Y221474D01*
X258645Y221252D01*
X258590Y221057D01*
X258534Y220835D01*
X258507Y220641D01*
X258479Y220474D01*
Y220363D01*
Y220335D01*
Y218836D01*
X258507Y218697D01*
X258590Y218642D01*
X258701Y218614D01*
X262921D01*
X263060Y218642D01*
X263143Y218725D01*
X263171Y218808D01*
Y218836D01*
Y220335D01*
X263143Y220641D01*
X263115Y220918D01*
X263060Y221140D01*
X262976Y221335D01*
X262893Y221474D01*
X262838Y221557D01*
X262810Y221612D01*
X262782Y221640D01*
X262615Y221779D01*
X262393Y221890D01*
X262199Y221946D01*
X261977Y222001D01*
X261782Y222029D01*
X261616Y222057D01*
D02*
G37*
G36*
X231577D02*
X230134D01*
X229828Y222029D01*
X229551Y222001D01*
X229328Y221918D01*
X229162Y221862D01*
X229023Y221779D01*
X228940Y221696D01*
X228884Y221668D01*
X228857Y221640D01*
X228718Y221474D01*
X228607Y221252D01*
X228551Y221057D01*
X228496Y220835D01*
X228468Y220641D01*
X228440Y220474D01*
Y220363D01*
Y220335D01*
Y218836D01*
X228468Y218697D01*
X228551Y218642D01*
X228662Y218614D01*
X232882D01*
X233021Y218642D01*
X233104Y218725D01*
X233132Y218808D01*
Y218836D01*
Y220335D01*
X233104Y220641D01*
X233076Y220918D01*
X233021Y221140D01*
X232938Y221335D01*
X232854Y221474D01*
X232799Y221557D01*
X232771Y221612D01*
X232743Y221640D01*
X232577Y221779D01*
X232355Y221890D01*
X232160Y221946D01*
X231938Y222001D01*
X231744Y222029D01*
X231577Y222057D01*
D02*
G37*
G36*
X197624D02*
X196042D01*
X195736Y222029D01*
X195486Y221973D01*
X195264Y221890D01*
X195070Y221779D01*
X194903Y221668D01*
X194765Y221501D01*
X194570Y221196D01*
X194431Y220891D01*
X194376Y220613D01*
X194348Y220502D01*
Y220419D01*
Y220363D01*
Y220335D01*
Y215782D01*
X194376Y215477D01*
X194431Y215227D01*
X194515Y214977D01*
X194598Y214783D01*
X194737Y214616D01*
X194876Y214478D01*
X195181Y214283D01*
X195514Y214144D01*
X195764Y214089D01*
X195875Y214061D01*
X197485D01*
X197791Y214089D01*
X198068Y214117D01*
X198290Y214200D01*
X198457Y214283D01*
X198624Y214339D01*
X198707Y214422D01*
X198762Y214450D01*
X198790Y214478D01*
X198929Y214644D01*
X199012Y214866D01*
X199123Y215283D01*
X199151Y215477D01*
X199179Y215644D01*
Y215755D01*
Y215782D01*
Y220335D01*
X199151Y220641D01*
X199123Y220918D01*
X199068Y221140D01*
X198984Y221335D01*
X198901Y221474D01*
X198846Y221557D01*
X198818Y221612D01*
X198790Y221640D01*
X198624Y221779D01*
X198401Y221890D01*
X198207Y221946D01*
X197985Y222001D01*
X197791Y222029D01*
X197624Y222057D01*
D02*
G37*
G36*
X173166Y225194D02*
X170001D01*
X169695Y225166D01*
X169445Y225110D01*
X169223Y225027D01*
X169029Y224916D01*
X168862Y224777D01*
X168751Y224639D01*
X168529Y224333D01*
X168418Y224000D01*
X168363Y223722D01*
X168335Y223611D01*
Y223528D01*
Y223472D01*
Y223445D01*
Y221224D01*
X168363Y220918D01*
X168418Y220641D01*
X168501Y220419D01*
X168585Y220224D01*
X168724Y220058D01*
X168862Y219891D01*
X169168Y219697D01*
X169473Y219558D01*
X169751Y219503D01*
X169834Y219475D01*
X173110D01*
X173277Y219503D01*
X173360Y219586D01*
X173388Y219669D01*
Y219697D01*
Y224944D01*
X173332Y225083D01*
X173249Y225166D01*
X173166Y225194D01*
D02*
G37*
G36*
X148069Y225222D02*
X144931D01*
X144626Y225194D01*
X144348Y225138D01*
X144126Y225055D01*
X143932Y224972D01*
X143738Y224833D01*
X143599Y224694D01*
X143405Y224389D01*
X143266Y224056D01*
X143210Y223806D01*
X143182Y223695D01*
Y223611D01*
Y223556D01*
Y223528D01*
Y222445D01*
X143210Y222140D01*
X143266Y221890D01*
X143349Y221668D01*
X143460Y221474D01*
X143599Y221307D01*
X143738Y221168D01*
X144071Y220974D01*
X144404Y220835D01*
X144682Y220780D01*
X144793Y220752D01*
X148013D01*
X148180Y220780D01*
X148263Y220863D01*
X148291Y220946D01*
Y220974D01*
Y224999D01*
X148235Y225138D01*
X148152Y225194D01*
X148069Y225222D01*
D02*
G37*
G36*
Y218864D02*
X144820D01*
X144487Y218836D01*
X144210Y218781D01*
X143960Y218697D01*
X143738Y218614D01*
X143571Y218475D01*
X143405Y218337D01*
X143182Y218031D01*
X143071Y217698D01*
X142988Y217448D01*
X142960Y217337D01*
Y217254D01*
Y217198D01*
Y217171D01*
Y215727D01*
X142988Y215422D01*
X143044Y215172D01*
X143127Y214949D01*
X143238Y214755D01*
X143377Y214589D01*
X143516Y214450D01*
X143849Y214256D01*
X144182Y214117D01*
X144459Y214061D01*
X144571Y214033D01*
X148013D01*
X148180Y214061D01*
X148263Y214144D01*
X148291Y214228D01*
Y214256D01*
Y218642D01*
X148235Y218781D01*
X148152Y218836D01*
X148069Y218864D01*
D02*
G37*
%LPD*%
M02*
